<svg width="150" height="48" viewBox="0 0 150 48" fill="none" xmlns="http://www.w3.org/2000/svg">
<g clip-path="url(#clip0_323_73110)">
<rect width="96" height="48" transform="translate(0.559998)" fill="#1B459B"/>
<path d="M12.5282 27.0561L13.7282 20.2401C13.7442 20.1441 13.8082 20.0801 13.9042 20.0801H14.0642C14.1442 20.0801 14.2082 20.1121 14.2402 20.1761L16.4642 24.9601H16.4962L18.7362 20.1761C18.7682 20.1121 18.8322 20.0801 18.9122 20.0801H19.0722C19.1842 20.0801 19.2482 20.1281 19.2482 20.2401L20.4482 27.0561C20.4642 27.1201 20.4482 27.1841 20.4162 27.2161C20.3842 27.2641 20.3362 27.2801 20.2562 27.2801H19.3282C19.2322 27.2801 19.1682 27.2321 19.1362 27.1201L18.5442 23.2801H18.5122L16.7362 27.2641C16.7042 27.3441 16.6562 27.3761 16.5602 27.3761H16.3842C16.3042 27.3761 16.2562 27.3441 16.2082 27.2641L14.4162 23.2801H14.3842L13.7922 27.1201C13.7922 27.1681 13.7602 27.2001 13.7282 27.2321C13.6962 27.2641 13.6482 27.2801 13.6162 27.2801H12.7202C12.5762 27.2801 12.5122 27.2001 12.5282 27.0561Z" fill="white"/>
<path d="M22.9443 27.088V20.368C22.9443 20.32 22.9603 20.272 22.9923 20.224C23.0243 20.192 23.0723 20.176 23.1363 20.176H27.2643C27.3123 20.176 27.3603 20.192 27.4083 20.224C27.4403 20.256 27.4563 20.304 27.4563 20.368V21.2C27.4563 21.248 27.4403 21.296 27.4083 21.344C27.3763 21.376 27.3283 21.392 27.2643 21.392H24.2563V23.056H26.7683C26.8163 23.056 26.8643 23.072 26.9123 23.12C26.9443 23.168 26.9603 23.2 26.9603 23.248V24.096C26.9603 24.144 26.9443 24.192 26.9123 24.24C26.8803 24.272 26.8323 24.288 26.7683 24.288H24.2563V26.064H27.2643C27.3123 26.064 27.3603 26.08 27.4083 26.112C27.4403 26.144 27.4563 26.192 27.4563 26.256V27.088C27.4563 27.136 27.4403 27.184 27.4083 27.232C27.3763 27.264 27.3283 27.28 27.2643 27.28H23.1363C23.0883 27.28 23.0403 27.264 22.9923 27.232C22.9603 27.184 22.9443 27.152 22.9443 27.088Z" fill="white"/>
<path d="M30.08 27.088V20.368C30.08 20.32 30.096 20.272 30.128 20.224C30.16 20.192 30.208 20.176 30.256 20.176H32.656C33.632 20.176 34.48 20.528 35.168 21.216C35.872 21.904 36.208 22.736 36.208 23.712C36.208 24.688 35.856 25.536 35.168 26.224C34.464 26.928 33.632 27.264 32.656 27.264H30.256C30.208 27.264 30.16 27.248 30.128 27.216C30.096 27.184 30.08 27.152 30.08 27.088ZM31.392 26.048H32.544C33.2 26.048 33.744 25.824 34.176 25.376C34.608 24.928 34.832 24.384 34.832 23.712C34.832 23.056 34.608 22.496 34.176 22.064C33.744 21.632 33.2 21.408 32.544 21.408H31.392V26.048Z" fill="white"/>
<path d="M38.6879 27.088V20.368C38.6879 20.32 38.7039 20.272 38.7359 20.24C38.7679 20.208 38.8159 20.176 38.8799 20.176H39.8239C39.8719 20.176 39.9199 20.192 39.9519 20.24C39.9999 20.288 40.0159 20.32 40.0159 20.368V27.088C40.0159 27.136 39.9999 27.184 39.9519 27.216C39.9039 27.264 39.8719 27.28 39.8239 27.28H38.8799C38.8319 27.28 38.7839 27.264 38.7359 27.216C38.7039 27.184 38.6879 27.136 38.6879 27.088Z" fill="white"/>
<path d="M42.2401 27.2801C42.1601 27.2801 42.1121 27.2481 42.0801 27.2001C42.0481 27.1521 42.0481 27.0881 42.0801 27.0241L45.2321 20.1921C45.2641 20.1121 45.3281 20.0801 45.4081 20.0801H45.5041C45.5841 20.0801 45.6481 20.1121 45.6801 20.1921L48.8001 27.0241C48.8321 27.0881 48.8321 27.1521 48.8001 27.2001C48.7681 27.2481 48.7041 27.2801 48.6401 27.2801H47.7601C47.6321 27.2801 47.5361 27.2161 47.4721 27.0721L46.9761 25.9841H43.9361L43.4401 27.0721C43.3921 27.2001 43.2801 27.2801 43.1521 27.2801H42.2401ZM44.4161 24.8641H46.4481L45.4401 22.6241H45.4081L44.4161 24.8641Z" fill="white"/>
<path d="M50.832 27.088V20.368C50.832 20.32 50.848 20.272 50.88 20.224C50.912 20.192 50.96 20.176 51.024 20.176H53.408C54.032 20.176 54.56 20.4 55.008 20.832C55.456 21.264 55.68 21.792 55.68 22.416C55.68 23.04 55.456 23.584 55.008 24.032C54.56 24.48 54.032 24.704 53.408 24.704H52.144V27.088C52.144 27.136 52.128 27.184 52.096 27.216C52.064 27.264 52.016 27.28 51.952 27.28H51.024C50.976 27.28 50.928 27.264 50.88 27.232C50.848 27.184 50.832 27.152 50.832 27.088ZM52.144 23.472H53.328C53.616 23.472 53.856 23.376 54.064 23.168C54.272 22.96 54.368 22.72 54.368 22.416C54.368 22.144 54.272 21.904 54.064 21.712C53.856 21.52 53.616 21.424 53.328 21.424H52.144V23.472Z" fill="white"/>
<path d="M58.5921 26.3201C57.8881 25.6161 57.5361 24.7521 57.5361 23.7441C57.5361 22.7361 57.8881 21.8721 58.5921 21.1521C59.2961 20.4321 60.1601 20.0801 61.1681 20.0801C62.1761 20.0801 63.0401 20.4321 63.7601 21.1521C64.4641 21.8721 64.8321 22.7361 64.8321 23.7441C64.8321 24.7521 64.4801 25.6161 63.7601 26.3201C63.0561 27.0241 62.1921 27.3761 61.1681 27.3761C60.1601 27.3921 59.2961 27.0241 58.5921 26.3201ZM59.5361 22.0961C59.0721 22.5601 58.8481 23.1041 58.8481 23.7441C58.8481 24.3841 59.0721 24.9281 59.5361 25.3921C60.0001 25.8401 60.5441 26.0641 61.1681 26.0641C61.8081 26.0641 62.3681 25.8401 62.8161 25.3761C63.2801 24.9121 63.5041 24.3681 63.5041 23.7441C63.5041 23.1041 63.2801 22.5441 62.8161 22.0961C62.3521 21.6321 61.8081 21.4081 61.1681 21.4081C60.5441 21.3921 60.0001 21.6321 59.5361 22.0961Z" fill="white"/>
<path d="M67.2963 27.088V20.368C67.2963 20.32 67.3123 20.272 67.3443 20.24C67.3763 20.208 67.4243 20.176 67.4883 20.176H68.4323C68.4803 20.176 68.5283 20.192 68.5603 20.24C68.6083 20.288 68.6243 20.32 68.6243 20.368V27.088C68.6243 27.136 68.6083 27.184 68.5603 27.216C68.5123 27.264 68.4803 27.28 68.4323 27.28H67.4883C67.4403 27.28 67.3923 27.264 67.3443 27.216C67.3123 27.184 67.2963 27.136 67.2963 27.088Z" fill="white"/>
<path d="M71.5683 27.0881V20.2561C71.5683 20.2081 71.5843 20.1601 71.6163 20.1281C71.6483 20.0961 71.6963 20.0801 71.7603 20.0801H72.0163L76.2403 24.5601H76.2563V20.3681C76.2563 20.3201 76.2723 20.2721 76.3043 20.2241C76.3363 20.1921 76.3843 20.1761 76.4483 20.1761H77.3763C77.4243 20.1761 77.4723 20.1921 77.5043 20.2401C77.5363 20.2881 77.5683 20.3201 77.5683 20.3681V27.2001C77.5683 27.2481 77.5523 27.2961 77.5203 27.3281C77.4883 27.3601 77.4403 27.3761 77.3763 27.3761H77.1363L72.8963 22.7201H72.8803V27.0881C72.8803 27.1361 72.8643 27.1841 72.8323 27.2321C72.8003 27.2641 72.7523 27.2801 72.6883 27.2801H71.7603C71.7123 27.2801 71.6643 27.2641 71.6163 27.2161C71.5843 27.1841 71.5683 27.1361 71.5683 27.0881Z" fill="white"/>
<path d="M81.408 27.088V21.392H79.856C79.808 21.392 79.76 21.376 79.712 21.344C79.68 21.312 79.664 21.264 79.664 21.2V20.368C79.664 20.32 79.68 20.272 79.712 20.224C79.744 20.192 79.792 20.176 79.856 20.176H84.288C84.336 20.176 84.384 20.192 84.432 20.224C84.464 20.256 84.48 20.304 84.48 20.368V21.2C84.48 21.248 84.464 21.296 84.432 21.344C84.4 21.376 84.352 21.392 84.288 21.392H82.736V27.088C82.736 27.136 82.72 27.184 82.672 27.216C82.624 27.264 82.592 27.28 82.544 27.28H81.6C81.552 27.28 81.504 27.264 81.456 27.216C81.424 27.184 81.408 27.136 81.408 27.088Z" fill="white"/>
<rect width="48" height="48" transform="translate(101.68)" fill="#1B459B"/>
<path d="M134.688 33.088C137.445 33.088 139.68 30.853 139.68 28.096C139.68 25.339 137.445 23.104 134.688 23.104C131.931 23.104 129.696 25.339 129.696 28.096C129.696 30.853 131.931 33.088 134.688 33.088Z" fill="white"/>
<path d="M116.672 33.088C119.429 33.088 121.664 30.853 121.664 28.096C121.664 25.339 119.429 23.104 116.672 23.104C113.915 23.104 111.68 25.339 111.68 28.096C111.68 30.853 113.915 33.088 116.672 33.088Z" fill="white"/>
<path d="M132.352 20.2399C134.137 20.2399 135.584 18.7929 135.584 17.0079C135.584 15.2229 134.137 13.7759 132.352 13.7759C130.567 13.7759 129.12 15.2229 129.12 17.0079C129.12 18.7929 130.567 20.2399 132.352 20.2399Z" fill="white"/>
<path d="M118.896 20.2399C120.681 20.2399 122.128 18.7929 122.128 17.0079C122.128 15.2229 120.681 13.7759 118.896 13.7759C117.111 13.7759 115.664 15.2229 115.664 17.0079C115.664 18.7929 117.111 20.2399 118.896 20.2399Z" fill="white"/>
<path d="M125.664 25.504C127.449 25.504 128.896 24.057 128.896 22.272C128.896 20.487 127.449 19.04 125.664 19.04C123.879 19.04 122.432 20.487 122.432 22.272C122.432 24.057 123.879 25.504 125.664 25.504Z" fill="white"/>
</g>
<defs>
<clipPath id="clip0_323_73110">
<rect width="149.12" height="48" fill="white" transform="translate(0.559998)"/>
</clipPath>
</defs>
</svg>
