<svg width="150" height="48" viewBox="0 0 150 48" fill="none" xmlns="http://www.w3.org/2000/svg">
<g clip-path="url(#clip0_8109_125)">
<rect x="1.5" y="1.5" width="93" height="45" fill="#1B459B"/>
<rect x="1.5" y="1.5" width="93" height="45" stroke="white" stroke-width="3"/>
<path d="M11.9682 27.0561L13.1682 20.2401C13.1842 20.1441 13.2482 20.0801 13.3442 20.0801H13.5042C13.5842 20.0801 13.6482 20.1121 13.6802 20.1761L15.9042 24.9601H15.9362L18.1762 20.1761C18.2082 20.1121 18.2722 20.0801 18.3522 20.0801H18.5122C18.6242 20.0801 18.6882 20.1281 18.6882 20.2401L19.8882 27.0561C19.9042 27.1201 19.8882 27.1841 19.8562 27.2161C19.8242 27.2641 19.7762 27.2801 19.6962 27.2801H18.7682C18.6722 27.2801 18.6082 27.2321 18.5762 27.1201L17.9842 23.2801H17.9522L16.1762 27.2641C16.1442 27.3441 16.0962 27.3761 16.0002 27.3761H15.8242C15.7442 27.3761 15.6962 27.3441 15.6482 27.2641L13.8562 23.2801H13.8242L13.2322 27.1201C13.2322 27.1681 13.2002 27.2001 13.1682 27.2321C13.1362 27.2641 13.0882 27.2801 13.0562 27.2801H12.1602C12.0162 27.2801 11.9522 27.2001 11.9682 27.0561Z" fill="white"/>
<path d="M22.3843 27.088V20.368C22.3843 20.32 22.4003 20.272 22.4323 20.224C22.4643 20.192 22.5123 20.176 22.5763 20.176H26.7043C26.7523 20.176 26.8003 20.192 26.8483 20.224C26.8803 20.256 26.8963 20.304 26.8963 20.368V21.2C26.8963 21.248 26.8803 21.296 26.8483 21.344C26.8163 21.376 26.7683 21.392 26.7043 21.392H23.6963V23.056H26.2083C26.2563 23.056 26.3043 23.072 26.3523 23.12C26.3843 23.168 26.4003 23.2 26.4003 23.248V24.096C26.4003 24.144 26.3843 24.192 26.3523 24.24C26.3203 24.272 26.2723 24.288 26.2083 24.288H23.6963V26.064H26.7043C26.7523 26.064 26.8003 26.08 26.8483 26.112C26.8803 26.144 26.8963 26.192 26.8963 26.256V27.088C26.8963 27.136 26.8803 27.184 26.8483 27.232C26.8163 27.264 26.7683 27.28 26.7043 27.28H22.5763C22.5283 27.28 22.4803 27.264 22.4323 27.232C22.4003 27.184 22.3843 27.152 22.3843 27.088Z" fill="white"/>
<path d="M29.52 27.088V20.368C29.52 20.32 29.536 20.272 29.568 20.224C29.6 20.192 29.648 20.176 29.696 20.176H32.096C33.072 20.176 33.92 20.528 34.608 21.216C35.312 21.904 35.648 22.736 35.648 23.712C35.648 24.688 35.296 25.536 34.608 26.224C33.904 26.928 33.072 27.264 32.096 27.264H29.696C29.648 27.264 29.6 27.248 29.568 27.216C29.536 27.184 29.52 27.152 29.52 27.088ZM30.832 26.048H31.984C32.64 26.048 33.184 25.824 33.616 25.376C34.048 24.928 34.272 24.384 34.272 23.712C34.272 23.056 34.048 22.496 33.616 22.064C33.184 21.632 32.64 21.408 31.984 21.408H30.832V26.048Z" fill="white"/>
<path d="M38.1279 27.088V20.368C38.1279 20.32 38.1439 20.272 38.1759 20.24C38.2079 20.208 38.2559 20.176 38.3199 20.176H39.2639C39.3119 20.176 39.3599 20.192 39.3919 20.24C39.4399 20.288 39.4559 20.32 39.4559 20.368V27.088C39.4559 27.136 39.4399 27.184 39.3919 27.216C39.3439 27.264 39.3119 27.28 39.2639 27.28H38.3199C38.2719 27.28 38.2239 27.264 38.1759 27.216C38.1439 27.184 38.1279 27.136 38.1279 27.088Z" fill="white"/>
<path d="M41.6801 27.2801C41.6001 27.2801 41.5521 27.2481 41.5201 27.2001C41.4881 27.1521 41.4881 27.0881 41.5201 27.0241L44.6721 20.1921C44.7041 20.1121 44.7681 20.0801 44.8481 20.0801H44.9441C45.0241 20.0801 45.0881 20.1121 45.1201 20.1921L48.2401 27.0241C48.2721 27.0881 48.2721 27.1521 48.2401 27.2001C48.2081 27.2481 48.1441 27.2801 48.0801 27.2801H47.2001C47.0721 27.2801 46.9761 27.2161 46.9121 27.0721L46.4161 25.9841H43.3761L42.8801 27.0721C42.8321 27.2001 42.7201 27.2801 42.5921 27.2801H41.6801ZM43.8561 24.8641H45.8881L44.8801 22.6241H44.8481L43.8561 24.8641Z" fill="white"/>
<path d="M50.272 27.088V20.368C50.272 20.32 50.288 20.272 50.32 20.224C50.352 20.192 50.4 20.176 50.464 20.176H52.848C53.472 20.176 54 20.4 54.448 20.832C54.896 21.264 55.12 21.792 55.12 22.416C55.12 23.04 54.896 23.584 54.448 24.032C54 24.48 53.472 24.704 52.848 24.704H51.584V27.088C51.584 27.136 51.568 27.184 51.536 27.216C51.504 27.264 51.456 27.28 51.392 27.28H50.464C50.416 27.28 50.368 27.264 50.32 27.232C50.288 27.184 50.272 27.152 50.272 27.088ZM51.584 23.472H52.768C53.056 23.472 53.296 23.376 53.504 23.168C53.712 22.96 53.808 22.72 53.808 22.416C53.808 22.144 53.712 21.904 53.504 21.712C53.296 21.52 53.056 21.424 52.768 21.424H51.584V23.472Z" fill="white"/>
<path d="M58.0321 26.3201C57.3281 25.6161 56.9761 24.7521 56.9761 23.7441C56.9761 22.7361 57.3281 21.8721 58.0321 21.1521C58.7361 20.4321 59.6001 20.0801 60.6081 20.0801C61.6161 20.0801 62.4801 20.4321 63.2001 21.1521C63.9041 21.8721 64.2721 22.7361 64.2721 23.7441C64.2721 24.7521 63.9201 25.6161 63.2001 26.3201C62.4961 27.0241 61.6321 27.3761 60.6081 27.3761C59.6001 27.3921 58.7361 27.0241 58.0321 26.3201ZM58.9761 22.0961C58.5121 22.5601 58.2881 23.1041 58.2881 23.7441C58.2881 24.3841 58.5121 24.9281 58.9761 25.3921C59.4401 25.8401 59.9841 26.0641 60.6081 26.0641C61.2481 26.0641 61.8081 25.8401 62.2561 25.3761C62.7201 24.9121 62.9441 24.3681 62.9441 23.7441C62.9441 23.1041 62.7201 22.5441 62.2561 22.0961C61.7921 21.6321 61.2481 21.4081 60.6081 21.4081C59.9841 21.3921 59.4401 21.6321 58.9761 22.0961Z" fill="white"/>
<path d="M66.7363 27.088V20.368C66.7363 20.32 66.7523 20.272 66.7843 20.24C66.8163 20.208 66.8643 20.176 66.9283 20.176H67.8723C67.9203 20.176 67.9683 20.192 68.0003 20.24C68.0483 20.288 68.0643 20.32 68.0643 20.368V27.088C68.0643 27.136 68.0483 27.184 68.0003 27.216C67.9523 27.264 67.9203 27.28 67.8723 27.28H66.9283C66.8803 27.28 66.8323 27.264 66.7843 27.216C66.7523 27.184 66.7363 27.136 66.7363 27.088Z" fill="white"/>
<path d="M71.0083 27.0881V20.2561C71.0083 20.2081 71.0243 20.1601 71.0563 20.1281C71.0883 20.0961 71.1363 20.0801 71.2003 20.0801H71.4563L75.6803 24.5601H75.6963V20.3681C75.6963 20.3201 75.7123 20.2721 75.7443 20.2241C75.7763 20.1921 75.8243 20.1761 75.8883 20.1761H76.8163C76.8643 20.1761 76.9123 20.1921 76.9443 20.2401C76.9763 20.2881 77.0083 20.3201 77.0083 20.3681V27.2001C77.0083 27.2481 76.9923 27.2961 76.9603 27.3281C76.9283 27.3601 76.8803 27.3761 76.8163 27.3761H76.5763L72.3363 22.7201H72.3203V27.0881C72.3203 27.1361 72.3043 27.1841 72.2723 27.2321C72.2403 27.2641 72.1923 27.2801 72.1283 27.2801H71.2003C71.1523 27.2801 71.1043 27.2641 71.0563 27.2161C71.0243 27.1841 71.0083 27.1361 71.0083 27.0881Z" fill="white"/>
<path d="M80.848 27.088V21.392H79.296C79.248 21.392 79.2 21.376 79.152 21.344C79.12 21.312 79.104 21.264 79.104 21.2V20.368C79.104 20.32 79.12 20.272 79.152 20.224C79.184 20.192 79.232 20.176 79.296 20.176H83.728C83.776 20.176 83.824 20.192 83.872 20.224C83.904 20.256 83.92 20.304 83.92 20.368V21.2C83.92 21.248 83.904 21.296 83.872 21.344C83.84 21.376 83.792 21.392 83.728 21.392H82.176V27.088C82.176 27.136 82.16 27.184 82.112 27.216C82.064 27.264 82.032 27.28 81.984 27.28H81.04C80.992 27.28 80.944 27.264 80.896 27.216C80.864 27.184 80.848 27.136 80.848 27.088Z" fill="white"/>
<rect x="102.62" y="1.5" width="45" height="45" fill="#1B459B"/>
<rect x="102.62" y="1.5" width="45" height="45" stroke="white" stroke-width="3"/>
<path d="M134.128 33.088C136.885 33.088 139.12 30.853 139.12 28.096C139.12 25.339 136.885 23.104 134.128 23.104C131.371 23.104 129.136 25.339 129.136 28.096C129.136 30.853 131.371 33.088 134.128 33.088Z" fill="white"/>
<path d="M116.112 33.088C118.869 33.088 121.104 30.853 121.104 28.096C121.104 25.339 118.869 23.104 116.112 23.104C113.355 23.104 111.12 25.339 111.12 28.096C111.12 30.853 113.355 33.088 116.112 33.088Z" fill="white"/>
<path d="M131.792 20.24C133.577 20.24 135.024 18.793 135.024 17.008C135.024 15.223 133.577 13.776 131.792 13.776C130.007 13.776 128.56 15.223 128.56 17.008C128.56 18.793 130.007 20.24 131.792 20.24Z" fill="white"/>
<path d="M118.336 20.24C120.121 20.24 121.568 18.793 121.568 17.008C121.568 15.223 120.121 13.776 118.336 13.776C116.551 13.776 115.104 15.223 115.104 17.008C115.104 18.793 116.551 20.24 118.336 20.24Z" fill="white"/>
<path d="M125.104 25.504C126.889 25.504 128.336 24.057 128.336 22.272C128.336 20.487 126.889 19.04 125.104 19.04C123.319 19.04 121.872 20.487 121.872 22.272C121.872 24.057 123.319 25.504 125.104 25.504Z" fill="white"/>
</g>
<rect x="0.16" y="0.16" width="148.8" height="47.68" stroke="#1B459B" stroke-width="0.32"/>
<defs>
<clipPath id="clip0_8109_125">
<rect width="149.12" height="48" fill="white"/>
</clipPath>
</defs>
</svg>
