<svg class="desctop" width="1002" height="244" viewBox="0 0 1002 244" fill="none" xmlns="http://www.w3.org/2000/svg">
            <path d="M13.376 100.228L12.8867 101.1L12.8913 101.103L13.376 100.228ZM-6.012 81.284L-6.87766 81.7846L-6.87408 81.7908L-6.87041 81.797L-6.012 81.284ZM-6.012 26.376L-6.87045 25.863L-6.87501 25.8708L-6.012 26.376ZM13.376 7.432L12.8912 6.55733L12.8868 6.55986L13.376 7.432ZM67.1 7.432L66.6107 8.30415L66.6153 8.30665L67.1 7.432ZM86.34 26.376L85.4724 26.8733L85.477 26.8812L86.34 26.376ZM86.34 81.284L87.203 81.7892L87.2057 81.7846L86.34 81.284ZM67.1 100.228L67.5893 101.1L67.1 100.228ZM60.144 75.66L59.4046 74.9866L59.3981 74.994L60.144 75.66ZM60.144 31.852L59.3981 32.518L59.4043 32.525L59.4107 32.5319L60.144 31.852ZM20.184 31.704L19.4507 31.024L19.4441 31.0313L20.184 31.704ZM20.184 75.808L19.4381 76.474L19.4443 76.481L19.4507 76.4879L20.184 75.808ZM40.312 106.036C30.706 106.036 21.8952 103.806 13.8608 99.3533L12.8913 101.103C21.2355 105.727 30.382 108.036 40.312 108.036V106.036ZM13.8653 99.3559C5.92943 94.9041 -0.406996 88.7143 -5.15358 80.771L-6.87041 81.797C-1.94767 90.035 4.64124 96.4746 12.8868 101.1L13.8653 99.3559ZM-5.14634 80.7834C-9.78782 72.7575 -12.116 63.7564 -12.116 53.756H-14.116C-14.116 64.0809 -11.7082 73.4318 -6.87766 81.7846L-5.14634 80.7834ZM-12.116 53.756C-12.116 43.7555 -9.78781 34.8058 -5.14899 26.8812L-6.87501 25.8708C-11.7082 34.1275 -14.116 43.4312 -14.116 53.756H-12.116ZM-5.15358 26.889C-0.406996 18.9457 5.92943 12.7559 13.8653 8.30414L12.8868 6.55986C4.64124 11.1854 -1.94767 17.625 -6.87041 25.863L-5.15358 26.889ZM13.8608 8.30665C21.8952 3.85381 30.706 1.624 40.312 1.624V-0.376001C30.382 -0.376001 21.2355 1.93285 12.8913 6.55734L13.8608 8.30665ZM40.312 1.624C49.9181 1.624 58.6775 3.85379 66.6108 8.30414L67.5893 6.55986C59.3412 1.93287 50.2419 -0.376001 40.312 -0.376001V1.624ZM66.6153 8.30665C74.6456 12.7572 80.9262 18.9417 85.4724 26.8733L87.2076 25.8787C82.4791 17.629 75.9331 11.1841 67.5848 6.55734L66.6153 8.30665ZM85.477 26.8812C90.1158 34.8058 92.444 43.7555 92.444 53.756H94.444C94.444 43.4312 92.0362 34.1275 87.203 25.8708L85.477 26.8812ZM92.444 53.756C92.444 63.7564 90.1158 72.7575 85.4743 80.7834L87.2057 81.7846C92.0362 73.4318 94.444 64.0809 94.444 53.756H92.444ZM85.477 80.7788C80.8298 88.7178 74.5447 94.9051 66.6108 99.3559L67.5893 101.1C75.8366 96.4736 82.3782 90.0315 87.203 81.7892L85.477 80.7788ZM66.6108 99.3559C58.6775 103.806 49.9181 106.036 40.312 106.036V108.036C50.2419 108.036 59.3412 105.727 67.5893 101.1L66.6108 99.3559ZM40.312 84.948C48.8471 84.948 55.7431 82.0904 60.8899 76.326L59.3981 74.994C54.6782 80.2802 48.3529 82.948 40.312 82.948V84.948ZM60.8833 76.3333C66.1174 70.5861 68.692 63.0262 68.692 53.756H66.692C66.692 62.6405 64.2346 69.6832 59.4047 74.9867L60.8833 76.3333ZM68.692 53.756C68.692 44.3912 66.1194 36.8254 60.8773 31.1721L59.4107 32.5319C64.2326 37.732 66.692 44.7688 66.692 53.756H68.692ZM60.8899 31.186C55.7431 25.4215 48.8471 22.564 40.312 22.564V24.564C48.3529 24.564 54.6782 27.2318 59.3981 32.518L60.8899 31.186ZM40.312 22.564C31.6879 22.564 24.6981 25.3651 19.4507 31.0241L20.9173 32.3839C25.7339 27.1895 32.1628 24.564 40.312 24.564V22.564ZM19.4441 31.0313C14.3025 36.687 11.784 44.3008 11.784 53.756H13.784C13.784 44.6618 16.1988 37.5743 20.9239 32.3767L19.4441 31.0313ZM11.784 53.756C11.784 63.1166 14.3045 70.7244 19.4381 76.474L20.9299 75.142C16.1968 69.8409 13.784 62.7474 13.784 53.756H11.784ZM19.4507 76.4879C24.6981 82.1468 31.6879 84.948 40.312 84.948V82.948C32.1628 82.948 25.7339 80.3225 20.9173 75.1281L19.4507 76.4879ZM132.388 2.104H133.388V1.104H132.388V2.104ZM136.976 78.62L136.237 79.2938L136.976 78.62ZM164.06 78.62L164.788 79.3054L164.06 78.62ZM168.796 2.104V1.104H167.796V2.104H168.796ZM194.104 2.104H195.104V1.104H194.104V2.104ZM188.184 87.648L189.035 88.1721L188.184 87.648ZM172.2 102.152L171.763 101.252L171.758 101.255L172.2 102.152ZM127.948 102.3L127.495 103.192L127.503 103.196L127.511 103.2L127.948 102.3ZM112.704 87.796L111.837 88.295L111.84 88.3007L112.704 87.796ZM107.08 2.104V1.104H106.08V2.104H107.08ZM131.388 2.104V64.264H133.388V2.104H131.388ZM131.388 64.264C131.388 70.6364 132.957 75.6962 136.237 79.2938L137.715 77.9462C134.877 74.8345 133.388 70.3236 133.388 64.264H131.388ZM136.237 79.2938C139.538 82.9147 144.333 84.652 150.444 84.652V82.652C144.715 82.652 140.53 81.0346 137.715 77.9462L136.237 79.2938ZM150.444 84.652C156.556 84.652 161.391 82.9142 164.788 79.3054L163.331 77.9346C160.413 81.0351 156.171 82.652 150.444 82.652V84.652ZM164.788 79.3054C168.173 75.7083 169.796 70.644 169.796 64.264H167.796C167.796 70.316 166.261 74.8224 163.331 77.9346L164.788 79.3054ZM169.796 64.264V2.104H167.796V64.264H169.796ZM168.796 3.104H194.104V1.104H168.796V3.104ZM193.104 2.104V64.116H195.104V2.104H193.104ZM193.104 64.116C193.104 73.2484 191.161 80.901 187.332 87.1239L189.035 88.1721C193.099 81.5683 195.104 73.5329 195.104 64.116H193.104ZM187.332 87.1239C183.484 93.3768 178.299 98.0803 171.763 101.252L172.636 103.052C179.519 99.7117 184.99 94.7459 189.035 88.1721L187.332 87.1239ZM171.758 101.255C165.299 104.436 158.053 106.036 150 106.036V108.036C158.325 108.036 165.879 106.38 172.642 103.049L171.758 101.255ZM150 106.036C141.941 106.036 134.743 104.483 128.384 101.4L127.511 103.2C134.176 106.431 141.679 108.036 150 108.036V106.036ZM128.4 101.408C122.164 98.2422 117.223 93.5447 113.567 87.2913L111.84 88.3007C115.683 94.874 120.905 99.8458 127.495 103.192L128.4 101.408ZM113.57 87.297C109.927 80.9686 108.08 73.2562 108.08 64.116H106.08C106.08 73.5251 107.982 81.5994 111.837 88.295L113.57 87.297ZM108.08 64.116V2.104H106.08V64.116H108.08ZM107.08 3.104H132.388V1.104H107.08V3.104ZM264.859 106L263.983 106.483L264.268 107H264.859V106ZM243.251 66.78L244.127 66.2974L243.842 65.78H243.251V66.78ZM237.183 66.78V65.78H236.183V66.78H237.183ZM237.183 106V107H238.183V106H237.183ZM211.875 106H210.875V107H211.875V106ZM211.875 2.104V1.104H210.875V2.104H211.875ZM275.219 6.39599L274.772 7.29044L274.778 7.29344L275.219 6.39599ZM288.243 18.236L287.374 18.7303L287.378 18.7377L288.243 18.236ZM286.615 53.312L285.806 52.7238L285.799 52.7336L286.615 53.312ZM269.447 64.856L269.161 63.8978L267.943 64.2615L268.583 65.3595L269.447 64.856ZM293.423 106V107H295.163L294.287 105.497L293.423 106ZM237.183 48.872H236.183V49.872H237.183V48.872ZM263.231 45.468L262.539 44.746L262.532 44.7534L262.524 44.7609L263.231 45.468ZM263.231 26.524L262.524 27.2311L262.532 27.2386L262.539 27.246L263.231 26.524ZM237.183 23.12V22.12H236.183V23.12H237.183ZM265.735 105.517L244.127 66.2974L242.375 67.2626L263.983 106.483L265.735 105.517ZM243.251 65.78H237.183V67.78H243.251V65.78ZM236.183 66.78V106H238.183V66.78H236.183ZM237.183 105H211.875V107H237.183V105ZM212.875 106V2.104H210.875V106H212.875ZM211.875 3.104H254.351V1.104H211.875V3.104ZM254.351 3.104C262.427 3.104 269.222 4.51518 274.772 7.29042L275.666 5.50157C269.772 2.55415 262.654 1.104 254.351 1.104V3.104ZM274.778 7.29344C280.442 10.0774 284.623 13.8932 287.374 18.7303L289.113 17.7417C286.14 12.5148 281.639 8.43724 275.66 5.49854L274.778 7.29344ZM287.378 18.7377C290.145 23.5076 291.535 28.8576 291.535 34.812H293.535C293.535 28.5317 292.064 22.8311 289.108 17.7343L287.378 18.7377ZM291.535 34.812C291.535 41.514 289.625 47.4734 285.806 52.7238L287.424 53.9002C291.499 48.2973 293.535 41.9234 293.535 34.812H291.535ZM285.799 52.7336C282.104 57.9449 276.587 61.6797 269.161 63.8978L269.733 65.8142C277.502 63.4936 283.43 59.5324 287.431 53.8904L285.799 52.7336ZM268.583 65.3595L292.559 106.503L294.287 105.497L270.311 64.3525L268.583 65.3595ZM293.423 105H264.859V107H293.423V105ZM237.183 49.872H252.871V47.872H237.183V49.872ZM252.871 49.872C257.655 49.872 261.412 48.7017 263.938 46.1751L262.524 44.7609C260.512 46.7729 257.362 47.872 252.871 47.872V49.872ZM263.923 46.19C266.537 43.6852 267.783 40.1885 267.783 35.848H265.783C265.783 39.7955 264.662 42.7122 262.539 44.746L263.923 46.19ZM267.783 35.848C267.783 31.6884 266.527 28.2976 263.923 25.802L262.539 27.246C264.671 29.2891 265.783 32.1143 265.783 35.848H267.783ZM263.938 25.8169C261.412 23.2903 257.655 22.12 252.871 22.12V24.12C257.362 24.12 260.512 25.219 262.524 27.2311L263.938 25.8169ZM252.871 22.12H237.183V24.12H252.871V22.12ZM236.183 23.12V48.872H238.183V23.12H236.183ZM55.852 223.648L56.7991 223.327L56.5691 222.648H55.852V223.648ZM17.076 223.648V222.648H16.3589L16.1289 223.327L17.076 223.648ZM10.86 242V243H11.5771L11.8071 242.321L10.86 242ZM-15.632 242L-16.5723 241.66L-17.0573 243H-15.632V242ZM21.96 138.104V137.104H21.2584L21.0197 137.764L21.96 138.104ZM51.264 138.104L52.2043 137.764L51.9656 137.104H51.264V138.104ZM88.856 242V243H90.2813L89.7963 241.66L88.856 242ZM62.068 242L61.1209 242.321L61.3509 243H62.068V242ZM49.34 204.112V205.112H50.7343L50.2872 203.791L49.34 204.112ZM36.464 166.076L37.4112 165.755L36.4585 162.941L35.5157 165.759L36.464 166.076ZM23.736 204.112L22.7877 203.795L22.3469 205.112H23.736V204.112ZM55.852 222.648H17.076V224.648H55.852V222.648ZM16.1289 223.327L9.91286 241.679L11.8071 242.321L18.0231 223.969L16.1289 223.327ZM10.86 241H-15.632V243H10.86V241ZM-14.6917 242.34L22.9003 138.444L21.0197 137.764L-16.5723 241.66L-14.6917 242.34ZM21.96 139.104H51.264V137.104H21.96V139.104ZM50.3237 138.444L87.9157 242.34L89.7963 241.66L52.2043 137.764L50.3237 138.444ZM88.856 241H62.068V243H88.856V241ZM63.0151 241.679L56.7991 223.327L54.9049 223.969L61.1209 242.321L63.0151 241.679ZM50.2872 203.791L37.4112 165.755L35.5168 166.397L48.3928 204.433L50.2872 203.791ZM35.5157 165.759L22.7877 203.795L24.6843 204.429L37.4123 166.393L35.5157 165.759ZM23.736 205.112H49.34V203.112H23.736V205.112ZM167.933 144.616L168.401 143.732L167.933 144.616ZM186.877 162.968L186.006 163.458L186.009 163.465L186.013 163.471L186.877 162.968ZM186.877 217.136L186.01 216.638L186.006 216.646L186.877 217.136ZM167.785 235.488L167.321 234.602L167.317 234.604L167.785 235.488ZM100.297 242H99.2971V243H100.297V242ZM100.297 138.104V137.104H99.2971V138.104H100.297ZM125.605 159.712V158.712H124.605V159.712H125.605ZM125.605 220.096H124.605V221.096H125.605V220.096ZM139.221 139.104C150.039 139.104 159.444 141.247 167.465 145.5L168.401 143.732C160.044 139.302 150.307 137.104 139.221 137.104V139.104ZM167.465 145.5C175.489 149.753 181.662 155.736 186.006 163.458L187.749 162.478C183.212 154.413 176.756 148.161 168.401 143.732L167.465 145.5ZM186.013 163.471C190.451 171.093 192.685 179.943 192.685 190.052H194.685C194.685 179.639 192.381 170.432 187.741 162.465L186.013 163.471ZM192.685 190.052C192.685 200.061 190.452 208.913 186.01 216.638L187.744 217.634C192.38 209.572 194.685 200.369 194.685 190.052H192.685ZM186.006 216.646C181.664 224.365 175.444 230.347 167.321 234.602L168.249 236.374C176.702 231.946 183.211 225.694 187.749 217.626L186.006 216.646ZM167.317 234.604C159.294 238.857 149.939 241 139.221 241V243C150.21 243 159.897 240.801 168.253 236.372L167.317 234.604ZM139.221 241H100.297V243H139.221V241ZM101.297 242V138.104H99.2971V242H101.297ZM100.297 139.104H139.221V137.104H100.297V139.104ZM137.593 221.096C147.349 221.096 155.078 218.426 160.642 212.966L159.241 211.538C154.148 216.536 146.979 219.096 137.593 219.096V221.096ZM160.642 212.966C166.211 207.499 168.933 199.812 168.933 190.052H166.933C166.933 199.434 164.327 206.546 159.241 211.538L160.642 212.966ZM168.933 190.052C168.933 180.291 166.211 172.56 160.648 166.997L159.234 168.411C164.327 173.504 166.933 180.671 166.933 190.052H168.933ZM160.648 166.997C155.085 161.434 147.354 158.712 137.593 158.712V160.712C146.974 160.712 154.141 163.318 159.234 168.411L160.648 166.997ZM137.593 158.712H125.605V160.712H137.593V158.712ZM124.605 159.712V220.096H126.605V159.712H124.605ZM125.605 221.096H137.593V219.096H125.605V221.096ZM305.36 138.104L306.303 138.438L306.776 137.104H305.36V138.104ZM268.508 242V243H269.215L269.451 242.334L268.508 242ZM236.836 242L235.894 242.334L236.13 243H236.836V242ZM199.984 138.104V137.104H198.569L199.042 138.438L199.984 138.104ZM226.92 138.104L227.87 137.792L227.645 137.104H226.92V138.104ZM252.672 216.544L251.722 216.856L252.67 219.742L253.622 216.858L252.672 216.544ZM278.572 138.104V137.104H277.849L277.623 137.79L278.572 138.104ZM304.418 137.77L267.566 241.666L269.451 242.334L306.303 138.438L304.418 137.77ZM268.508 241H236.836V243H268.508V241ZM237.779 241.666L200.927 137.77L199.042 138.438L235.894 242.334L237.779 241.666ZM199.984 139.104H226.92V137.104H199.984V139.104ZM225.97 138.416L251.722 216.856L253.622 216.232L227.87 137.792L225.97 138.416ZM253.622 216.858L279.522 138.418L277.623 137.79L251.723 216.23L253.622 216.858ZM278.572 139.104H305.36V137.104H278.572V139.104ZM380.614 223.648L381.561 223.327L381.331 222.648H380.614V223.648ZM341.838 223.648V222.648H341.121L340.891 223.327L341.838 223.648ZM335.622 242V243H336.339L336.569 242.321L335.622 242ZM309.13 242L308.189 241.66L307.704 243H309.13V242ZM346.722 138.104V137.104H346.02L345.781 137.764L346.722 138.104ZM376.026 138.104L376.966 137.764L376.727 137.104H376.026V138.104ZM413.618 242V243H415.043L414.558 241.66L413.618 242ZM386.83 242L385.883 242.321L386.113 243H386.83V242ZM374.102 204.112V205.112H375.496L375.049 203.791L374.102 204.112ZM361.226 166.076L362.173 165.755L361.22 162.941L360.277 165.759L361.226 166.076ZM348.498 204.112L347.549 203.795L347.109 205.112H348.498V204.112ZM380.614 222.648H341.838V224.648H380.614V222.648ZM340.891 223.327L334.675 241.679L336.569 242.321L342.785 223.969L340.891 223.327ZM335.622 241H309.13V243H335.622V241ZM310.07 242.34L347.662 138.444L345.781 137.764L308.189 241.66L310.07 242.34ZM346.722 139.104H376.026V137.104H346.722V139.104ZM375.085 138.444L412.677 242.34L414.558 241.66L376.966 137.764L375.085 138.444ZM413.618 241H386.83V243H413.618V241ZM387.777 241.679L381.561 223.327L379.667 223.969L385.883 242.321L387.777 241.679ZM375.049 203.791L362.173 165.755L360.279 166.397L373.155 204.433L375.049 203.791ZM360.277 165.759L347.549 203.795L349.446 204.429L362.174 166.393L360.277 165.759ZM348.498 205.112H374.102V203.112H348.498V205.112ZM518.003 242V243H519.003V242H518.003ZM492.695 242L491.86 242.551L492.157 243H492.695V242ZM450.367 177.916L451.201 177.365L449.367 174.588V177.916H450.367ZM450.367 242V243H451.367V242H450.367ZM425.059 242H424.059V243H425.059V242ZM425.059 138.104V137.104H424.059V138.104H425.059ZM450.367 138.104L451.202 137.555L450.906 137.104H450.367V138.104ZM492.695 202.484L491.859 203.033L493.695 205.825V202.484H492.695ZM492.695 138.104V137.104H491.695V138.104H492.695ZM518.003 138.104H519.003V137.104H518.003V138.104ZM518.003 241H492.695V243H518.003V241ZM493.529 241.449L451.201 177.365L449.532 178.467L491.86 242.551L493.529 241.449ZM449.367 177.916V242H451.367V177.916H449.367ZM450.367 241H425.059V243H450.367V241ZM426.059 242V138.104H424.059V242H426.059ZM425.059 139.104H450.367V137.104H425.059V139.104ZM449.531 138.653L491.859 203.033L493.53 201.935L451.202 137.555L449.531 138.653ZM493.695 202.484V138.104H491.695V202.484H493.695ZM492.695 139.104H518.003V137.104H492.695V139.104ZM517.003 138.104V242H519.003V138.104H517.003ZM611.088 138.104H612.088V137.104H611.088V138.104ZM611.088 158.38V159.38H612.088V158.38H611.088ZM583.56 158.38V157.38H582.56V158.38H583.56ZM583.56 242V243H584.56V242H583.56ZM558.252 242H557.252V243H558.252V242ZM558.252 158.38H559.252V157.38H558.252V158.38ZM530.724 158.38H529.724V159.38H530.724V158.38ZM530.724 138.104V137.104H529.724V138.104H530.724ZM610.088 138.104V158.38H612.088V138.104H610.088ZM611.088 157.38H583.56V159.38H611.088V157.38ZM582.56 158.38V242H584.56V158.38H582.56ZM583.56 241H558.252V243H583.56V241ZM559.252 242V158.38H557.252V242H559.252ZM558.252 157.38H530.724V159.38H558.252V157.38ZM531.724 158.38V138.104H529.724V158.38H531.724ZM530.724 139.104H611.088V137.104H530.724V139.104ZM688.465 223.648L689.412 223.327L689.182 222.648H688.465V223.648ZM649.689 223.648V222.648H648.972L648.742 223.327L649.689 223.648ZM643.473 242V243H644.19L644.42 242.321L643.473 242ZM616.981 242L616.041 241.66L615.556 243H616.981V242ZM654.573 138.104V137.104H653.872L653.633 137.764L654.573 138.104ZM683.877 138.104L684.818 137.764L684.579 137.104H683.877V138.104ZM721.469 242V243H722.895L722.41 241.66L721.469 242ZM694.681 242L693.734 242.321L693.964 243H694.681V242ZM681.953 204.112V205.112H683.348L682.9 203.791L681.953 204.112ZM669.077 166.076L670.024 165.755L669.072 162.941L668.129 165.759L669.077 166.076ZM656.349 204.112L655.401 203.795L654.96 205.112H656.349V204.112ZM688.465 222.648H649.689V224.648H688.465V222.648ZM648.742 223.327L642.526 241.679L644.42 242.321L650.636 223.969L648.742 223.327ZM643.473 241H616.981V243H643.473V241ZM617.922 242.34L655.514 138.444L653.633 137.764L616.041 241.66L617.922 242.34ZM654.573 139.104H683.877V137.104H654.573V139.104ZM682.937 138.444L720.529 242.34L722.41 241.66L684.818 137.764L682.937 138.444ZM721.469 241H694.681V243H721.469V241ZM695.628 241.679L689.412 223.327L687.518 223.969L693.734 242.321L695.628 241.679ZM682.9 203.791L670.024 165.755L668.13 166.397L681.006 204.433L682.9 203.791ZM668.129 165.759L655.401 203.795L657.298 204.429L670.026 166.393L668.129 165.759ZM656.349 205.112H681.953V203.112H656.349V205.112ZM801.878 170.96L801 171.437L801.283 171.96H801.878V170.96ZM793.738 163.116L793.261 163.995L793.276 164.003L793.291 164.01L793.738 163.116ZM761.77 168.444L762.504 169.123L762.51 169.117L761.77 168.444ZM762.066 212.4L761.34 213.087L761.346 213.094L761.353 213.1L762.066 212.4ZM799.214 215.656L798.626 214.847L798.617 214.854L799.214 215.656ZM808.686 202.04L809.635 202.356L810.074 201.04H808.686V202.04ZM776.57 202.04H775.57V203.04H776.57V202.04ZM776.57 183.392V182.392H775.57V183.392H776.57ZM831.626 183.392H832.626V182.392H831.626V183.392ZM831.626 206.924L832.585 207.209L832.626 207.069V206.924H831.626ZM822.006 224.536L821.239 223.894L821.232 223.903L822.006 224.536ZM804.986 237.708L804.549 236.808L804.986 237.708ZM754.074 236.08L753.581 236.95L753.587 236.953L753.593 236.957L754.074 236.08ZM735.278 217.284L734.404 217.77L734.409 217.778L735.278 217.284ZM735.278 162.524L734.406 162.035L734.404 162.038L735.278 162.524ZM754.074 143.728L754.56 144.602L754.568 144.598L754.074 143.728ZM812.83 145.948L812.252 146.764L812.256 146.767L812.83 145.948ZM829.85 170.96V171.96H831.143L830.818 170.709L829.85 170.96ZM802.757 170.483C800.784 166.847 797.919 164.088 794.186 162.222L793.291 164.01C796.662 165.696 799.224 168.166 801 171.437L802.757 170.483ZM794.215 162.237C790.588 160.268 786.323 159.304 781.454 159.304V161.304C786.058 161.304 789.982 162.214 793.261 163.995L794.215 162.237ZM781.454 159.304C773.02 159.304 766.177 162.111 761.03 167.771L762.51 169.117C767.231 163.924 773.51 161.304 781.454 161.304V159.304ZM761.037 167.765C755.894 173.319 753.37 180.736 753.37 189.904H755.37C755.37 181.115 757.78 174.225 762.504 169.123L761.037 167.765ZM753.37 189.904C753.37 199.655 755.988 207.427 761.34 213.087L762.793 211.713C757.883 206.52 755.37 199.294 755.37 189.904H753.37ZM761.353 213.1C766.809 218.66 774.243 221.392 783.526 221.392V219.392C774.656 219.392 767.782 216.796 762.78 211.7L761.353 213.1ZM783.526 221.392C789.918 221.392 795.367 219.765 799.811 216.458L798.617 214.854C794.576 217.861 789.566 219.392 783.526 219.392V221.392ZM799.803 216.465C804.339 213.166 807.607 208.441 809.635 202.356L807.738 201.724C805.819 207.479 802.773 211.832 798.626 214.847L799.803 216.465ZM808.686 201.04H776.57V203.04H808.686V201.04ZM777.57 202.04V183.392H775.57V202.04H777.57ZM776.57 184.392H831.626V182.392H776.57V184.392ZM830.626 183.392V206.924H832.626V183.392H830.626ZM830.668 206.639C828.835 212.814 825.697 218.565 821.239 223.894L822.773 225.178C827.393 219.654 830.669 213.664 832.585 207.209L830.668 206.639ZM821.232 223.903C816.893 229.207 811.338 233.511 804.549 236.808L805.423 238.608C812.448 235.196 818.24 230.718 822.78 225.169L821.232 223.903ZM804.549 236.808C797.796 240.089 790.154 241.74 781.602 241.74V243.74C790.417 243.74 798.364 242.036 805.423 238.608L804.549 236.808ZM781.602 241.74C771.49 241.74 762.483 239.554 754.555 235.203L753.593 236.957C761.847 241.486 771.192 243.74 781.602 243.74V241.74ZM754.568 235.21C746.733 230.761 740.598 224.625 736.148 216.79L734.409 217.778C739.037 225.927 745.432 232.322 753.581 236.95L754.568 235.21ZM736.153 216.798C731.805 208.972 729.618 200.017 729.618 189.904H727.618C727.618 200.314 729.872 209.612 734.404 217.77L736.153 216.798ZM729.618 189.904C729.618 179.791 731.805 170.836 736.153 163.01L734.404 162.038C729.872 170.196 727.618 179.494 727.618 189.904H729.618ZM736.151 163.013C740.6 155.082 746.733 148.951 754.56 144.602L753.589 142.854C745.432 147.385 739.034 153.785 734.406 162.035L736.151 163.013ZM754.568 144.598C762.393 140.154 771.346 137.92 781.454 137.92V135.92C771.041 135.92 761.74 138.225 753.581 142.858L754.568 144.598ZM781.454 137.92C793.72 137.92 803.966 140.887 812.252 146.764L813.409 145.132C804.724 138.972 794.052 135.92 781.454 135.92V137.92ZM812.256 146.767C820.635 152.642 826.176 160.773 828.882 171.211L830.818 170.709C827.999 159.835 822.193 151.292 813.404 145.129L812.256 146.767ZM829.85 169.96H801.878V171.96H829.85V169.96ZM870.953 158.38V157.38H869.953V158.38H870.953ZM870.953 179.396H869.953V180.396H870.953V179.396ZM904.845 179.396H905.845V178.396H904.845V179.396ZM904.845 198.932V199.932H905.845V198.932H904.845ZM870.953 198.932V197.932H869.953V198.932H870.953ZM870.953 221.724H869.953V222.724H870.953V221.724ZM909.285 221.724H910.285V220.724H909.285V221.724ZM909.285 242V243H910.285V242H909.285ZM845.645 242H844.645V243H845.645V242ZM845.645 138.104V137.104H844.645V138.104H845.645ZM909.285 138.104H910.285V137.104H909.285V138.104ZM909.285 158.38V159.38H910.285V158.38H909.285ZM869.953 158.38V179.396H871.953V158.38H869.953ZM870.953 180.396H904.845V178.396H870.953V180.396ZM903.845 179.396V198.932H905.845V179.396H903.845ZM904.845 197.932H870.953V199.932H904.845V197.932ZM869.953 198.932V221.724H871.953V198.932H869.953ZM870.953 222.724H909.285V220.724H870.953V222.724ZM908.285 221.724V242H910.285V221.724H908.285ZM909.285 241H845.645V243H909.285V241ZM846.645 242V138.104H844.645V242H846.645ZM845.645 139.104H909.285V137.104H845.645V139.104ZM908.285 138.104V158.38H910.285V138.104H908.285ZM909.285 157.38H870.953V159.38H909.285V157.38ZM942.883 239.336L942.504 240.261L942.883 239.336ZM928.379 228.384L927.573 228.976L927.581 228.987L928.379 228.384ZM922.755 210.92V209.92H921.726L921.755 210.949L922.755 210.92ZM949.691 210.92L950.686 210.818L950.594 209.92H949.691V210.92ZM953.687 219.8L953.013 220.538L953.022 220.547L953.031 220.555L953.687 219.8ZM971.447 220.244L972.059 221.035L972.07 221.027L972.08 221.018L971.447 220.244ZM972.039 206.628L971.332 207.335L971.342 207.345L971.352 207.355L972.039 206.628ZM965.675 202.484L965.272 203.399L965.279 203.402L965.285 203.405L965.675 202.484ZM955.019 198.784L954.724 199.74L954.734 199.742L955.019 198.784ZM938.591 192.568L938.152 193.467L938.591 192.568ZM927.639 183.392L928.437 182.789L927.639 183.392ZM933.559 144.912L934.172 145.703L934.178 145.697L933.559 144.912ZM988.615 144.912L987.996 145.697L988.003 145.703L988.615 144.912ZM999.863 167.704V168.704H1000.91L1000.86 167.654L999.863 167.704ZM972.483 167.704L971.485 167.763L971.54 168.704H972.483V167.704ZM968.783 159.86L968.127 160.615L968.136 160.623L968.146 160.631L968.783 159.86ZM952.651 159.416L953.295 160.181L953.307 160.171L953.318 160.161L952.651 159.416ZM954.575 174.216L955.086 173.356L954.575 174.216ZM969.375 180.284L969.695 179.337L969.683 179.333L969.375 180.284ZM985.655 186.796L985.208 187.69L985.216 187.695L985.655 186.796ZM996.607 195.824L995.817 196.437L996.607 195.824ZM996.607 227.2L995.762 226.665L995.758 226.672L995.754 226.678L996.607 227.2ZM983.583 238.744L983.136 237.85L983.583 238.744ZM963.307 242.036C955.818 242.036 949.142 240.82 943.262 238.411L942.504 240.261C948.661 242.785 955.601 244.036 963.307 244.036V242.036ZM943.262 238.411C937.397 236.007 932.712 232.462 929.177 227.781L927.581 228.987C931.348 233.975 936.332 237.732 942.504 240.261L943.262 238.411ZM929.185 227.792C925.769 223.142 923.947 217.524 923.755 210.891L921.755 210.949C921.958 217.932 923.885 223.956 927.573 228.976L929.185 227.792ZM922.755 211.92H949.691V209.92H922.755V211.92ZM948.696 211.022C949.109 215.049 950.519 218.261 953.013 220.538L954.361 219.062C952.317 217.195 951.062 214.487 950.686 210.818L948.696 211.022ZM953.031 220.555C955.519 222.718 958.729 223.76 962.567 223.76V221.76C959.104 221.76 956.394 220.828 954.343 219.045L953.031 220.555ZM962.567 223.76C966.458 223.76 969.658 222.89 972.059 221.035L970.836 219.453C968.894 220.953 966.175 221.76 962.567 221.76V223.76ZM972.08 221.018C974.506 219.033 975.703 216.32 975.703 212.992H973.703C973.703 215.782 972.729 217.903 970.814 219.47L972.08 221.018ZM975.703 212.992C975.703 210.167 974.713 207.778 972.726 205.901L971.352 207.355C972.917 208.833 973.703 210.686 973.703 212.992H975.703ZM972.746 205.921C970.963 204.138 968.728 202.69 966.065 201.563L965.285 203.405C967.753 204.449 969.76 205.763 971.332 207.335L972.746 205.921ZM966.078 201.569C963.554 200.458 959.956 199.211 955.305 197.826L954.734 199.742C959.357 201.12 962.862 202.339 965.272 203.399L966.078 201.569ZM955.314 197.829C948.633 195.765 943.21 193.711 939.03 191.669L938.152 193.467C942.458 195.569 947.987 197.659 954.724 199.739L955.314 197.829ZM939.03 191.669C934.939 189.671 931.408 186.718 928.437 182.789L926.841 183.995C929.988 188.156 933.758 191.321 938.152 193.467L939.03 191.669ZM928.437 182.789C925.543 178.961 924.051 173.913 924.051 167.556H922.051C922.051 174.223 923.618 179.732 926.841 183.995L928.437 182.789ZM924.051 167.556C924.051 158.164 927.435 150.921 934.171 145.703L932.947 144.121C925.672 149.757 922.051 157.61 922.051 167.556H924.051ZM934.178 145.697C940.966 140.344 949.856 137.624 960.939 137.624V135.624C949.526 135.624 940.163 138.429 932.94 144.127L934.178 145.697ZM960.939 137.624C972.224 137.624 981.211 140.346 987.996 145.697L989.234 144.127C982.008 138.427 972.545 135.624 960.939 135.624V137.624ZM988.003 145.703C994.752 150.931 998.384 158.244 998.864 167.754L1000.86 167.654C1000.36 157.628 996.489 149.747 989.227 144.121L988.003 145.703ZM999.863 166.704H972.483V168.704H999.863V166.704ZM973.481 167.645C973.27 164.057 971.935 161.166 969.42 159.089L968.146 160.631C970.17 162.303 971.301 164.642 971.485 167.763L973.481 167.645ZM969.439 159.105C966.956 156.946 963.798 155.9 960.051 155.9V157.9C963.408 157.9 966.071 158.827 968.127 160.615L969.439 159.105ZM960.051 155.9C956.802 155.9 954.08 156.796 951.984 158.671L953.318 160.161C954.971 158.682 957.183 157.9 960.051 157.9V155.9ZM952.007 158.651C949.852 160.466 948.839 163.098 948.839 166.372H950.839C950.839 163.529 951.701 161.524 953.295 160.181L952.007 158.651ZM948.839 166.372C948.839 170.118 950.638 173.042 954.065 175.076L955.086 173.356C952.197 171.641 950.839 169.335 950.839 166.372H948.839ZM954.065 175.076C957.32 177.009 962.339 179.059 969.067 181.235L969.683 179.333C962.992 177.168 958.145 175.172 955.086 173.356L954.065 175.076ZM969.055 181.231C975.741 183.493 981.12 185.647 985.208 187.69L986.102 185.902C981.902 183.801 976.428 181.614 969.695 179.337L969.055 181.231ZM985.216 187.695C989.313 189.696 992.846 192.604 995.817 196.437L997.397 195.211C994.251 191.151 990.482 188.04 986.094 185.897L985.216 187.695ZM995.817 196.437C998.709 200.169 1000.2 205.018 1000.2 211.068H1002.2C1002.2 204.686 1000.62 199.373 997.397 195.211L995.817 196.437ZM1000.2 211.068C1000.2 216.806 998.716 221.996 995.762 226.665L997.452 227.735C1000.62 222.734 1002.2 217.17 1002.2 211.068H1000.2ZM995.754 226.678C992.904 231.333 988.713 235.061 983.136 237.85L984.03 239.638C989.898 236.704 994.39 232.736 997.46 227.722L995.754 226.678ZM983.136 237.85C977.579 240.628 970.98 242.036 963.307 242.036V244.036C971.224 244.036 978.142 242.583 984.03 239.638L983.136 237.85Z" fill="#4773BE"></path>
        </svg>