<?xml version="1.0" encoding="UTF-8"?> <svg xmlns="http://www.w3.org/2000/svg" width="36" height="36" viewBox="0 0 36 36" fill="none"><rect x="1" y="3" width="34" height="21" fill="#F2F5F9"></rect><path d="M35.2507 2.25H0.74925C0.336164 2.25 0 2.5856 0 2.99981V27C0 27.4142 0.336164 27.7498 0.74925 27.7498H13.1967L12.2991 32.2498H11.9992C11.5861 32.2498 11.2499 32.586 11.2499 33.0002C11.2499 33.4144 11.5862 33.75 11.9993 33.75H24.0007C24.4138 33.75 24.75 33.4144 24.75 33.0002C24.75 32.586 24.4138 32.2498 24.0007 32.2498H23.6997L22.8011 27.7498H35.2507C35.6638 27.7498 36 27.4142 36 27V2.99981C36 2.5856 35.6638 2.25 35.2507 2.25ZM13.8296 32.2499L14.7261 27.7559L21.2718 27.7542L22.1704 32.2499H13.8296ZM34.4993 26.2502H18H1.50075V24.75H18H34.4993V26.2502ZM34.4993 23.2498H1.50075V3.75019H34.4993V23.2498Z" fill="#003DA5"></path><path d="M18.0002 24.75C17.5861 24.75 17.251 25.0856 17.251 25.4998C17.251 25.914 17.5861 26.2502 18.0002 26.2502C18.4144 26.2502 18.7495 25.914 18.7495 25.4998C18.7495 25.0856 18.4144 24.75 18.0002 24.75Z" fill="#003DA5"></path><path d="M26.2505 6.24976H3.75052C3.33526 6.24976 2.99902 6.58592 2.99902 7.00013C2.99902 7.41434 3.33526 7.74994 3.75052 7.74994H26.2483C26.2483 7.74994 26.2495 7.74994 26.2505 7.74994C26.6636 7.74994 26.9998 7.41434 26.9998 7.00013C26.9998 6.58592 26.6636 6.24976 26.2505 6.24976Z" fill="#003DA5"></path><path d="M15.7498 10.2502H3.75052C3.33526 10.2502 2.99902 10.5858 2.99902 11.0001C2.99902 11.4143 3.33526 11.7499 3.75052 11.7499H15.7487C15.7498 11.7499 15.7498 11.7499 15.7498 11.7499C16.1641 11.7499 16.4991 11.4143 16.4991 11.0001C16.4991 10.5858 16.164 10.2502 15.7498 10.2502Z" fill="#003DA5"></path><path d="M20.2498 14.25H3.75052C3.33526 14.25 2.99902 14.5856 2.99902 14.9998C2.99902 15.4145 3.33526 15.7502 3.75052 15.7502H20.2487C20.2498 15.7502 20.2498 15.7502 20.2498 15.7502C20.6641 15.7502 20.9991 15.4146 20.9991 15.0004C20.9991 14.5862 20.664 14.25 20.2498 14.25Z" fill="#003DA5"></path><path d="M14.249 18.2503L3.75052 18.2498C3.33526 18.2498 2.99902 18.5859 2.99902 19.0001C2.99902 19.4143 3.33526 19.7499 3.75052 19.7499H14.249C14.6643 19.7499 15.0005 19.4143 15.0005 19.0001C15.0005 18.5859 14.6644 18.2503 14.249 18.2503Z" fill="#003DA5"></path></svg> 