<?xml version="1.0" encoding="UTF-8"?> <svg xmlns="http://www.w3.org/2000/svg" width="36" height="23" viewBox="0 0 36 23" fill="none"><path d="M5.5 13.5L8 3H15.5L17.5 2L19.5 1.5L24.5 4.5H26.5L28 4L30.5 14.5L27.5 15.5L28 16L27.5 18L26 18.5L25.5 20.5L24 21L22 20L21.5 21.5L20 22L17 20.5L16 22H15L5.5 13.5Z" fill="#F2F5F9"></path><path fill-rule="evenodd" clip-rule="evenodd" d="M4.15816 0.0595815C3.49903 0.222236 2.85547 0.82444 2.67852 1.44406C2.62175 1.64297 1.98615 4.39693 1.26602 7.564C-0.170641 13.8831 -0.15296 13.7685 0.199249 14.4642C0.421001 14.9022 0.753416 15.2283 1.16437 15.4108C1.64916 15.6261 3.67774 16.0769 4.16295 16.0771C4.67414 16.0774 5.11032 15.9019 5.51459 15.5333C5.66991 15.3917 5.8363 15.1801 5.88427 15.0632C5.93224 14.9464 5.99881 14.8507 6.03212 14.8507C6.06544 14.8507 7.82297 16.5809 9.93771 18.6955C13.4624 22.22 13.8219 22.559 14.2536 22.7642C15.2063 23.2172 16.3376 23.0044 17.0473 22.2386C17.2219 22.0502 17.4185 21.7825 17.4842 21.6435C17.5497 21.5046 17.6221 21.391 17.645 21.391C17.6679 21.391 17.9207 21.6289 18.2068 21.9197C18.8862 22.6098 19.36 22.8379 20.1133 22.837C20.8377 22.8362 21.3671 22.6237 21.8394 22.1443C22.0357 21.945 22.253 21.6602 22.3223 21.5113C22.3916 21.3624 22.4702 21.2504 22.4968 21.2625C22.5234 21.2745 22.735 21.3804 22.967 21.4977C23.347 21.6898 23.4552 21.7109 24.058 21.7109C24.6854 21.7109 24.7547 21.6959 25.1687 21.4693C25.9442 21.0449 26.3929 20.3737 26.5026 19.4735L26.5587 19.0134L26.8515 18.963C27.519 18.848 28.2258 18.2938 28.5473 17.6334C28.7176 17.2832 28.7424 17.1491 28.7424 16.5774V15.9225L29.4715 15.5981L30.2006 15.2737L30.4843 15.5323C30.8896 15.9019 31.3254 16.0774 31.8371 16.0771C32.3223 16.0769 34.3508 15.6261 34.8356 15.4108C35.2466 15.2283 35.579 14.9022 35.8008 14.4642C36.153 13.7685 36.1706 13.8831 34.734 7.564C34.0139 4.39693 33.3783 1.64297 33.3215 1.44406C33.192 0.99072 32.7503 0.472118 32.2954 0.239511C31.7112 -0.0592813 31.3659 -0.0539499 29.9399 0.275553C29.2425 0.436714 28.5379 0.633563 28.3741 0.7129C28.2103 0.792236 27.9328 1.01823 27.7574 1.21508C27.3631 1.65776 27.2041 2.15112 27.2387 2.82485L27.2631 3.29852L26.6996 3.528C26.2529 3.70992 26.0338 3.75762 25.643 3.7584C25.0377 3.75947 24.9168 3.7058 22.991 2.58158C20.4362 1.09003 19.6843 0.799132 18.5635 0.868374C17.6088 0.927308 16.7449 1.3092 15.9722 2.01371L15.6921 2.26913L12.2219 2.25065L8.75161 2.23224L8.65637 1.90238C8.53817 1.4934 8.03282 0.909962 7.62587 0.7129C7.27719 0.543989 4.91696 -0.0104427 4.59194 0.000149723C4.46958 0.00420186 4.27439 0.0309322 4.15816 0.0595815ZM5.88117 1.69387C6.86862 1.92762 7.06466 1.99643 7.20195 2.15759C7.29071 2.26167 7.36327 2.41508 7.36327 2.49847C7.36327 2.69141 4.77854 14.1192 4.6852 14.339C4.64695 14.429 4.50994 14.5473 4.38068 14.6018C4.1652 14.6926 4.04841 14.6787 2.98227 14.4354C2.34245 14.2893 1.73784 14.1162 1.63866 14.0506C1.53948 13.985 1.43769 13.8364 1.4124 13.7201C1.35915 13.4754 3.93091 1.98684 4.10032 1.713C4.20204 1.54842 4.41943 1.42558 4.61603 1.42153C4.67414 1.42032 5.24346 1.54288 5.88117 1.69387ZM31.8292 1.61916C32.0137 1.80541 34.6497 13.3447 34.588 13.6961C34.5632 13.8369 34.4756 13.9751 34.3642 14.0487C34.2634 14.1153 33.6576 14.2893 33.0177 14.4354C31.9516 14.6787 31.8348 14.6926 31.6193 14.6018C31.4901 14.5473 31.353 14.429 31.3148 14.339C31.2215 14.1192 28.6367 2.69141 28.6367 2.49847C28.6367 2.41508 28.7095 2.26139 28.7985 2.15703C28.9351 1.99672 29.1346 1.92492 30.084 1.69458C31.2727 1.40617 31.604 1.39188 31.8292 1.61916ZM19.4829 2.3821C20.0015 2.5375 20.9257 3.01629 22.6844 4.04056C24.3641 5.01883 24.8049 5.18916 25.6575 5.18938C26.2921 5.18959 26.6277 5.11772 27.2141 4.85603C27.4273 4.76084 27.6169 4.69828 27.6355 4.71698C27.6539 4.73568 28.1239 6.75947 28.6798 9.21436C29.2356 11.6692 29.7033 13.7312 29.7191 13.7966C29.7413 13.8886 29.5549 14.0031 28.8929 14.3045L28.038 14.6936L24.692 11.334C22.8517 9.48628 21.2033 7.88056 21.029 7.76575C20.37 7.33189 19.8209 7.17393 18.9701 7.17343C18.1174 7.17286 17.6205 7.35251 16.5667 8.04222C14.3098 9.51948 13.192 9.70019 11.9779 8.78419C11.8433 8.6826 11.8657 8.64919 12.5434 7.94348C12.9315 7.53926 13.9171 6.42457 14.7337 5.46634C16.6825 3.17959 17.2178 2.68032 18.0221 2.3998C18.4792 2.24041 18.9896 2.23423 19.4829 2.3821ZM14.2581 3.81399C13.6134 4.64788 11.9229 6.56106 11.1547 7.3262C10.1085 8.36831 10.0062 8.54049 10.2043 8.92694C10.4085 9.32576 11.2651 10.0595 11.8843 10.3662C12.8638 10.8514 13.8112 10.8846 15.0239 10.476C15.6638 10.2604 16.2083 9.96998 17.2254 9.30159C18.1965 8.66355 18.4168 8.57469 19.0319 8.5727C19.9287 8.56985 19.8666 8.51881 23.8067 12.4979L27.3239 16.05L27.3503 16.4634C27.371 16.7907 27.346 16.9259 27.2299 17.1127C27.0285 17.4365 26.5413 17.65 26.1489 17.5863C25.8755 17.5419 25.6618 17.3449 23.1775 14.8475C21.7052 13.3675 20.4198 12.1261 20.321 12.089C19.8774 11.9222 19.4088 12.2576 19.4088 12.742C19.4088 13.0273 19.4434 13.066 22.1816 15.8425C25.1027 18.8045 25.1834 18.904 25.0862 19.4229C25.0212 19.7699 24.8051 20.0748 24.5312 20.206C24.246 20.3425 23.8365 20.3603 23.6131 20.2458C23.5285 20.2025 22.1745 18.8749 20.6044 17.2956C18.4679 15.1468 17.7056 14.4221 17.5754 14.416C17.2382 14.4002 17.1176 14.4383 16.9258 14.6214C16.7773 14.7631 16.732 14.8726 16.732 15.0903C16.732 15.3679 16.7815 15.4246 18.8761 17.5488C20.0554 18.7448 21.0539 19.8127 21.095 19.922C21.4103 20.7589 20.7618 21.5722 19.9024 21.4176C19.6948 21.3803 19.2783 20.9947 17.2956 19.0046C15.9977 17.7019 14.8441 16.6013 14.7319 16.5588C14.4758 16.4617 14.1013 16.5731 13.9498 16.7914C13.8915 16.8753 13.8439 17.0732 13.8439 17.2312C13.8439 17.5067 13.887 17.5617 14.9025 18.5839C15.4846 19.1699 16.042 19.7668 16.141 19.9105C16.5696 20.5321 16.2128 21.4384 15.4854 21.5761C14.9286 21.6815 14.9732 21.7201 10.5691 17.3201L6.42033 13.175L7.32163 9.19652C7.81733 7.00836 8.30219 4.87409 8.39911 4.45381L8.57536 3.68959H11.4648C14.2063 3.68959 14.3493 3.69598 14.2581 3.81399Z" fill="#003DA5"></path></svg> 