<svg width="203" height="48" viewBox="0 0 203 48" fill="none" xmlns="http://www.w3.org/2000/svg">
<g clip-path="url(#clip0_2455_73398)">
<rect x="1.5" y="1.5" width="93" height="45" fill="#1B459B"/>
<rect x="1.5" y="1.5" width="93" height="45" stroke="white" stroke-width="3"/>
<path d="M11.9682 27.0561L13.1682 20.2401C13.1842 20.1441 13.2482 20.0801 13.3442 20.0801H13.5042C13.5842 20.0801 13.6482 20.1121 13.6802 20.1761L15.9042 24.9601H15.9362L18.1762 20.1761C18.2082 20.1121 18.2722 20.0801 18.3522 20.0801H18.5122C18.6242 20.0801 18.6882 20.1281 18.6882 20.2401L19.8882 27.0561C19.9042 27.1201 19.8882 27.1841 19.8562 27.2161C19.8242 27.2641 19.7762 27.2801 19.6962 27.2801H18.7682C18.6722 27.2801 18.6082 27.2321 18.5762 27.1201L17.9842 23.2801H17.9522L16.1762 27.2641C16.1442 27.3441 16.0962 27.3761 16.0002 27.3761H15.8242C15.7442 27.3761 15.6962 27.3441 15.6482 27.2641L13.8562 23.2801H13.8242L13.2322 27.1201C13.2322 27.1681 13.2002 27.2001 13.1682 27.2321C13.1362 27.2641 13.0882 27.2801 13.0562 27.2801H12.1602C12.0162 27.2801 11.9522 27.2001 11.9682 27.0561Z" fill="white"/>
<path d="M22.3843 27.088V20.368C22.3843 20.32 22.4003 20.272 22.4323 20.224C22.4643 20.192 22.5123 20.176 22.5763 20.176H26.7043C26.7523 20.176 26.8003 20.192 26.8483 20.224C26.8803 20.256 26.8963 20.304 26.8963 20.368V21.2C26.8963 21.248 26.8803 21.296 26.8483 21.344C26.8163 21.376 26.7683 21.392 26.7043 21.392H23.6963V23.056H26.2083C26.2563 23.056 26.3043 23.072 26.3523 23.12C26.3843 23.168 26.4003 23.2 26.4003 23.248V24.096C26.4003 24.144 26.3843 24.192 26.3523 24.24C26.3203 24.272 26.2723 24.288 26.2083 24.288H23.6963V26.064H26.7043C26.7523 26.064 26.8003 26.08 26.8483 26.112C26.8803 26.144 26.8963 26.192 26.8963 26.256V27.088C26.8963 27.136 26.8803 27.184 26.8483 27.232C26.8163 27.264 26.7683 27.28 26.7043 27.28H22.5763C22.5283 27.28 22.4803 27.264 22.4323 27.232C22.4003 27.184 22.3843 27.152 22.3843 27.088Z" fill="white"/>
<path d="M29.52 27.088V20.368C29.52 20.32 29.536 20.272 29.568 20.224C29.6 20.192 29.648 20.176 29.696 20.176H32.096C33.072 20.176 33.92 20.528 34.608 21.216C35.312 21.904 35.648 22.736 35.648 23.712C35.648 24.688 35.296 25.536 34.608 26.224C33.904 26.928 33.072 27.264 32.096 27.264H29.696C29.648 27.264 29.6 27.248 29.568 27.216C29.536 27.184 29.52 27.152 29.52 27.088ZM30.832 26.048H31.984C32.64 26.048 33.184 25.824 33.616 25.376C34.048 24.928 34.272 24.384 34.272 23.712C34.272 23.056 34.048 22.496 33.616 22.064C33.184 21.632 32.64 21.408 31.984 21.408H30.832V26.048Z" fill="white"/>
<path d="M38.1279 27.088V20.368C38.1279 20.32 38.1439 20.272 38.1759 20.24C38.2079 20.208 38.2559 20.176 38.3199 20.176H39.2639C39.3119 20.176 39.3599 20.192 39.3919 20.24C39.4399 20.288 39.4559 20.32 39.4559 20.368V27.088C39.4559 27.136 39.4399 27.184 39.3919 27.216C39.3439 27.264 39.3119 27.28 39.2639 27.28H38.3199C38.2719 27.28 38.2239 27.264 38.1759 27.216C38.1439 27.184 38.1279 27.136 38.1279 27.088Z" fill="white"/>
<path d="M41.6801 27.2801C41.6001 27.2801 41.5521 27.2481 41.5201 27.2001C41.4881 27.1521 41.4881 27.0881 41.5201 27.0241L44.6721 20.1921C44.7041 20.1121 44.7681 20.0801 44.8481 20.0801H44.9441C45.0241 20.0801 45.0881 20.1121 45.1201 20.1921L48.2401 27.0241C48.2721 27.0881 48.2721 27.1521 48.2401 27.2001C48.2081 27.2481 48.1441 27.2801 48.0801 27.2801H47.2001C47.0721 27.2801 46.9761 27.2161 46.9121 27.0721L46.4161 25.9841H43.3761L42.8801 27.0721C42.8321 27.2001 42.7201 27.2801 42.5921 27.2801H41.6801ZM43.8561 24.8641H45.8881L44.8801 22.6241H44.8481L43.8561 24.8641Z" fill="white"/>
<path d="M50.272 27.088V20.368C50.272 20.32 50.288 20.272 50.32 20.224C50.352 20.192 50.4 20.176 50.464 20.176H52.848C53.472 20.176 54 20.4 54.448 20.832C54.896 21.264 55.12 21.792 55.12 22.416C55.12 23.04 54.896 23.584 54.448 24.032C54 24.48 53.472 24.704 52.848 24.704H51.584V27.088C51.584 27.136 51.568 27.184 51.536 27.216C51.504 27.264 51.456 27.28 51.392 27.28H50.464C50.416 27.28 50.368 27.264 50.32 27.232C50.288 27.184 50.272 27.152 50.272 27.088ZM51.584 23.472H52.768C53.056 23.472 53.296 23.376 53.504 23.168C53.712 22.96 53.808 22.72 53.808 22.416C53.808 22.144 53.712 21.904 53.504 21.712C53.296 21.52 53.056 21.424 52.768 21.424H51.584V23.472Z" fill="white"/>
<path d="M58.0321 26.3201C57.3281 25.6161 56.9761 24.7521 56.9761 23.7441C56.9761 22.7361 57.3281 21.8721 58.0321 21.1521C58.7361 20.4321 59.6001 20.0801 60.6081 20.0801C61.6161 20.0801 62.4801 20.4321 63.2001 21.1521C63.9041 21.8721 64.2721 22.7361 64.2721 23.7441C64.2721 24.7521 63.9201 25.6161 63.2001 26.3201C62.4961 27.0241 61.6321 27.3761 60.6081 27.3761C59.6001 27.3921 58.7361 27.0241 58.0321 26.3201ZM58.9761 22.0961C58.5121 22.5601 58.2881 23.1041 58.2881 23.7441C58.2881 24.3841 58.5121 24.9281 58.9761 25.3921C59.4401 25.8401 59.9841 26.0641 60.6081 26.0641C61.2481 26.0641 61.8081 25.8401 62.2561 25.3761C62.7201 24.9121 62.9441 24.3681 62.9441 23.7441C62.9441 23.1041 62.7201 22.5441 62.2561 22.0961C61.7921 21.6321 61.2481 21.4081 60.6081 21.4081C59.9841 21.3921 59.4401 21.6321 58.9761 22.0961Z" fill="white"/>
<path d="M66.7363 27.088V20.368C66.7363 20.32 66.7523 20.272 66.7843 20.24C66.8163 20.208 66.8643 20.176 66.9283 20.176H67.8723C67.9203 20.176 67.9683 20.192 68.0003 20.24C68.0483 20.288 68.0643 20.32 68.0643 20.368V27.088C68.0643 27.136 68.0483 27.184 68.0003 27.216C67.9523 27.264 67.9203 27.28 67.8723 27.28H66.9283C66.8803 27.28 66.8323 27.264 66.7843 27.216C66.7523 27.184 66.7363 27.136 66.7363 27.088Z" fill="white"/>
<path d="M71.0083 27.0881V20.2561C71.0083 20.2081 71.0243 20.1601 71.0563 20.1281C71.0883 20.0961 71.1363 20.0801 71.2003 20.0801H71.4563L75.6803 24.5601H75.6963V20.3681C75.6963 20.3201 75.7123 20.2721 75.7443 20.2241C75.7763 20.1921 75.8243 20.1761 75.8883 20.1761H76.8163C76.8643 20.1761 76.9123 20.1921 76.9443 20.2401C76.9763 20.2881 77.0083 20.3201 77.0083 20.3681V27.2001C77.0083 27.2481 76.9923 27.2961 76.9603 27.3281C76.9283 27.3601 76.8803 27.3761 76.8163 27.3761H76.5763L72.3363 22.7201H72.3203V27.0881C72.3203 27.1361 72.3043 27.1841 72.2723 27.2321C72.2403 27.2641 72.1923 27.2801 72.1283 27.2801H71.2003C71.1523 27.2801 71.1043 27.2641 71.0563 27.2161C71.0243 27.1841 71.0083 27.1361 71.0083 27.0881Z" fill="white"/>
<path d="M80.848 27.088V21.392H79.296C79.248 21.392 79.2 21.376 79.152 21.344C79.12 21.312 79.104 21.264 79.104 21.2V20.368C79.104 20.32 79.12 20.272 79.152 20.224C79.184 20.192 79.232 20.176 79.296 20.176H83.728C83.776 20.176 83.824 20.192 83.872 20.224C83.904 20.256 83.92 20.304 83.92 20.368V21.2C83.92 21.248 83.904 21.296 83.872 21.344C83.84 21.376 83.792 21.392 83.728 21.392H82.176V27.088C82.176 27.136 82.16 27.184 82.112 27.216C82.064 27.264 82.032 27.28 81.984 27.28H81.04C80.992 27.28 80.944 27.264 80.896 27.216C80.864 27.184 80.848 27.136 80.848 27.088Z" fill="white"/>
<rect x="102.62" y="1.5" width="45" height="45" fill="#1B459B"/>
<rect x="102.62" y="1.5" width="45" height="45" stroke="white" stroke-width="3"/>
<path d="M114.416 21.1681V16.992H113.28C113.248 16.992 113.2 16.976 113.184 16.944C113.152 16.912 113.136 16.8801 113.136 16.8481V16.2401C113.136 16.2081 113.152 16.16 113.184 16.144C113.216 16.112 113.248 16.0961 113.28 16.0961H116.528C116.56 16.0961 116.608 16.112 116.624 16.144C116.656 16.176 116.672 16.2081 116.672 16.2401V16.8481C116.672 16.8801 116.656 16.928 116.624 16.944C116.592 16.976 116.56 16.992 116.528 16.992H115.392V21.1681C115.392 21.2001 115.376 21.232 115.344 21.264C115.312 21.296 115.28 21.312 115.248 21.312H114.56C114.528 21.312 114.48 21.296 114.464 21.264C114.432 21.248 114.416 21.2161 114.416 21.1681Z" fill="white"/>
<path d="M117.648 21.1681V16.2401C117.648 16.2081 117.664 16.16 117.696 16.144C117.728 16.112 117.76 16.0961 117.792 16.0961H119.92C120.368 16.0961 120.752 16.2561 121.072 16.5601C121.392 16.8801 121.552 17.2481 121.552 17.6961C121.552 18.0321 121.456 18.3361 121.248 18.6081C121.04 18.8801 120.784 19.0721 120.448 19.2001L121.472 21.0881C121.504 21.1361 121.504 21.184 121.472 21.232C121.44 21.28 121.408 21.2961 121.344 21.2961H120.56C120.512 21.2961 120.464 21.28 120.448 21.232L119.456 19.264H118.624V21.1681C118.624 21.2001 118.608 21.232 118.576 21.264C118.544 21.296 118.512 21.312 118.48 21.312H117.792C117.76 21.312 117.712 21.296 117.696 21.264C117.664 21.248 117.648 21.2161 117.648 21.1681ZM118.624 18.4801H119.84C120.032 18.4801 120.208 18.4001 120.352 18.2561C120.496 18.1121 120.576 17.936 120.576 17.712C120.576 17.52 120.496 17.3441 120.352 17.2001C120.208 17.0561 120.032 16.992 119.84 16.992H118.624V18.4801Z" fill="white"/>
<path d="M122.448 21.312C122.4 21.312 122.352 21.296 122.32 21.248C122.288 21.216 122.288 21.168 122.32 21.12L124.64 16.112C124.672 16.064 124.704 16.032 124.768 16.032H124.848C124.912 16.032 124.944 16.064 124.976 16.112L127.264 21.12C127.296 21.168 127.28 21.216 127.264 21.248C127.232 21.28 127.2 21.312 127.136 21.312H126.48C126.384 21.312 126.32 21.264 126.272 21.168L125.904 20.368H123.68L123.312 21.168C123.28 21.264 123.2 21.312 123.088 21.312H122.448ZM124.032 19.536H125.536L124.784 17.904H124.768L124.032 19.536Z" fill="white"/>
<path d="M128.192 21.1681V16.2401C128.192 16.2081 128.208 16.16 128.24 16.144C128.272 16.112 128.304 16.0961 128.336 16.0961H130.096C130.816 16.0961 131.424 16.352 131.936 16.864C132.448 17.376 132.704 17.984 132.704 18.704C132.704 19.424 132.448 20.032 131.936 20.544C131.424 21.056 130.816 21.312 130.096 21.312H128.336C128.304 21.312 128.272 21.296 128.24 21.264C128.208 21.248 128.192 21.2161 128.192 21.1681ZM129.152 20.4001H130C130.48 20.4001 130.88 20.2401 131.2 19.9201C131.52 19.6001 131.68 19.184 131.68 18.704C131.68 18.224 131.52 17.8081 131.2 17.4881C130.88 17.1681 130.48 17.0081 130 17.0081H129.152V20.4001Z" fill="white"/>
<path d="M133.968 21.1681V16.2401C133.968 16.2081 133.984 16.16 134.016 16.144C134.048 16.112 134.08 16.0961 134.112 16.0961H137.136C137.168 16.0961 137.216 16.112 137.232 16.144C137.264 16.176 137.28 16.2081 137.28 16.2401V16.8481C137.28 16.8801 137.264 16.928 137.232 16.944C137.2 16.976 137.168 16.992 137.136 16.992H134.928V18.2081H136.768C136.8 18.2081 136.848 18.2241 136.864 18.2561C136.896 18.2881 136.912 18.32 136.912 18.352V18.9761C136.912 19.0081 136.896 19.056 136.864 19.072C136.832 19.104 136.8 19.1201 136.768 19.1201H134.928V20.4161H137.136C137.168 20.4161 137.216 20.432 137.232 20.464C137.264 20.496 137.28 20.5281 137.28 20.5601V21.1681C137.28 21.2001 137.264 21.248 137.232 21.264C137.2 21.296 137.168 21.312 137.136 21.312H134.112C134.08 21.312 134.032 21.296 134.016 21.264C133.968 21.248 133.968 21.2161 133.968 21.1681Z" fill="white"/>
<path d="M114.544 30.432V25.504C114.544 25.472 114.56 25.424 114.592 25.408C114.624 25.376 114.656 25.36 114.688 25.36H116.432C116.896 25.36 117.28 25.52 117.616 25.84C117.936 26.16 118.112 26.544 118.112 27.008C118.112 27.472 117.952 27.872 117.632 28.192C117.312 28.512 116.912 28.688 116.464 28.688H115.536V30.432C115.536 30.464 115.52 30.496 115.488 30.528C115.456 30.56 115.424 30.576 115.392 30.576H114.704C114.672 30.576 114.624 30.56 114.608 30.528C114.56 30.512 114.544 30.48 114.544 30.432ZM115.504 27.776H116.368C116.576 27.776 116.752 27.696 116.912 27.552C117.056 27.408 117.136 27.216 117.136 27.008C117.136 26.8 117.056 26.64 116.912 26.496C116.768 26.352 116.576 26.288 116.368 26.288H115.504V27.776Z" fill="white"/>
<path d="M119.152 30.432V25.504C119.152 25.472 119.168 25.424 119.2 25.408C119.232 25.376 119.264 25.36 119.296 25.36H121.424C121.872 25.36 122.256 25.52 122.576 25.824C122.896 26.144 123.056 26.512 123.056 26.96C123.056 27.296 122.96 27.6 122.752 27.872C122.544 28.144 122.288 28.336 121.952 28.464L122.976 30.352C123.008 30.4 123.008 30.448 122.976 30.496C122.944 30.544 122.912 30.56 122.848 30.56H122.064C122.016 30.56 121.968 30.544 121.952 30.496L120.96 28.528H120.128V30.432C120.128 30.464 120.112 30.496 120.08 30.528C120.048 30.56 120.016 30.576 119.984 30.576H119.296C119.264 30.576 119.216 30.56 119.2 30.528C119.168 30.512 119.152 30.48 119.152 30.432ZM120.128 27.744H121.344C121.536 27.744 121.712 27.664 121.856 27.52C122 27.376 122.08 27.2 122.08 26.976C122.08 26.784 122 26.608 121.856 26.464C121.712 26.32 121.536 26.256 121.344 26.256H120.128V27.744Z" fill="white"/>
<path d="M124.368 30.432V25.504C124.368 25.472 124.384 25.44 124.416 25.408C124.448 25.376 124.48 25.36 124.512 25.36H125.2C125.232 25.36 125.264 25.376 125.296 25.408C125.328 25.44 125.344 25.472 125.344 25.504V30.432C125.344 30.464 125.328 30.496 125.296 30.528C125.264 30.56 125.232 30.576 125.2 30.576H124.512C124.48 30.576 124.432 30.56 124.416 30.528C124.384 30.496 124.368 30.464 124.368 30.432Z" fill="white"/>
<path d="M126.944 30.432V25.424C126.944 25.392 126.96 25.36 126.992 25.328C127.024 25.296 127.056 25.28 127.088 25.28H127.28L130.384 28.576V25.504C130.384 25.472 130.4 25.424 130.432 25.408C130.464 25.376 130.496 25.36 130.528 25.36H131.216C131.248 25.36 131.28 25.376 131.312 25.408C131.344 25.44 131.36 25.472 131.36 25.504V30.512C131.36 30.544 131.344 30.576 131.312 30.608C131.28 30.64 131.248 30.656 131.216 30.656H131.04L127.92 27.232V30.432C127.92 30.464 127.904 30.512 127.872 30.528C127.84 30.56 127.808 30.576 127.776 30.576H127.104C127.072 30.576 127.024 30.56 127.008 30.528C126.96 30.496 126.944 30.464 126.944 30.432Z" fill="white"/>
<path d="M133.616 30.432V26.256H132.48C132.448 26.256 132.4 26.24 132.384 26.208C132.352 26.176 132.336 26.144 132.336 26.112V25.504C132.336 25.472 132.352 25.424 132.384 25.408C132.416 25.376 132.448 25.36 132.48 25.36H135.728C135.76 25.36 135.808 25.376 135.824 25.408C135.856 25.44 135.872 25.472 135.872 25.504V26.112C135.872 26.144 135.856 26.192 135.824 26.208C135.792 26.24 135.76 26.256 135.728 26.256H134.592V30.432C134.592 30.464 134.576 30.496 134.544 30.528C134.512 30.56 134.48 30.576 134.448 30.576H133.76C133.728 30.576 133.68 30.56 133.664 30.528C133.632 30.496 133.616 30.464 133.616 30.432Z" fill="white"/>
<rect x="155.74" y="1.5" width="45" height="45" fill="#1B459B"/>
<rect x="155.74" y="1.5" width="45" height="45" stroke="white" stroke-width="3"/>
<path d="M187.248 33.088C190.005 33.088 192.24 30.853 192.24 28.096C192.24 25.339 190.005 23.104 187.248 23.104C184.491 23.104 182.256 25.339 182.256 28.096C182.256 30.853 184.491 33.088 187.248 33.088Z" fill="white"/>
<path d="M169.232 33.088C171.989 33.088 174.224 30.853 174.224 28.096C174.224 25.339 171.989 23.104 169.232 23.104C166.475 23.104 164.24 25.339 164.24 28.096C164.24 30.853 166.475 33.088 169.232 33.088Z" fill="white"/>
<path d="M184.912 20.24C186.697 20.24 188.144 18.793 188.144 17.008C188.144 15.223 186.697 13.776 184.912 13.776C183.127 13.776 181.68 15.223 181.68 17.008C181.68 18.793 183.127 20.24 184.912 20.24Z" fill="white"/>
<path d="M171.456 20.24C173.241 20.24 174.688 18.793 174.688 17.008C174.688 15.223 173.241 13.776 171.456 13.776C169.671 13.776 168.224 15.223 168.224 17.008C168.224 18.793 169.671 20.24 171.456 20.24Z" fill="white"/>
<path d="M178.224 25.504C180.009 25.504 181.456 24.057 181.456 22.272C181.456 20.487 180.009 19.04 178.224 19.04C176.439 19.04 174.992 20.487 174.992 22.272C174.992 24.057 176.439 25.504 178.224 25.504Z" fill="white"/>
</g>
<rect x="0.16" y="0.16" width="201.92" height="47.68" stroke="#1B459B" stroke-width="0.32"/>
<defs>
<clipPath id="clip0_2455_73398">
<rect width="202.24" height="48" fill="white"/>
</clipPath>
</defs>
</svg>
