<svg width="20" height="20" viewBox="0 0 20 20" fill="none" xmlns="http://www.w3.org/2000/svg">
<path d="M2.5 1.9C2.16863 1.9 1.9 2.16863 1.9 2.5C1.9 2.83137 2.16863 3.1 2.5 3.1V1.9ZM4.03483 3.59131L3.4448 3.70024L4.03483 3.59131ZM5.83337 13.3334L5.24334 13.4423C5.29587 13.7269 5.54401 13.9334 5.83337 13.9334L5.83337 13.3334ZM3.47705 2.57123L3.23433 3.11994L3.47705 2.57123ZM3.82813 2.86346L3.3326 3.20177V3.20177L3.82813 2.86346ZM4.58333 4.4C4.25196 4.4 3.98333 4.66863 3.98333 5C3.98333 5.33137 4.25196 5.6 4.58333 5.6V4.4ZM17.1231 6.6331L16.5385 6.49818V6.49818L17.1231 6.6331ZM15.8154 12.2998L16.4001 12.4347L15.8154 12.2998ZM14.5162 13.3333V12.7333H14.5162L14.5162 13.3333ZM15.5876 12.9909L16.0724 13.3444L15.5876 12.9909ZM15.2413 13.2665L15.0059 12.7146L15.2413 13.2665ZM16.88 5.11827L16.5719 5.63311L16.88 5.11827ZM17.2455 5.57719L16.6746 5.76164L17.2455 5.57719ZM15 16.9C14.8711 16.9 14.7667 16.7955 14.7667 16.6667H13.5667C13.5667 17.4583 14.2084 18.1 15 18.1V16.9ZM15.2333 16.6667C15.2333 16.7955 15.1289 16.9 15 16.9V18.1C15.7916 18.1 16.4333 17.4583 16.4333 16.6667H15.2333ZM15 16.4333C15.1289 16.4333 15.2333 16.5378 15.2333 16.6667H16.4333C16.4333 15.8751 15.7916 15.2333 15 15.2333V16.4333ZM15 15.2333C14.2084 15.2333 13.5667 15.8751 13.5667 16.6667H14.7667C14.7667 16.5378 14.8711 16.4333 15 16.4333V15.2333ZM6.66667 16.9C6.5378 16.9 6.43333 16.7955 6.43333 16.6667H5.23333C5.23333 17.4583 5.87506 18.1 6.66667 18.1V16.9ZM6.9 16.6667C6.9 16.7955 6.79553 16.9 6.66667 16.9V18.1C7.45827 18.1 8.1 17.4583 8.1 16.6667H6.9ZM6.66667 16.4333C6.79553 16.4333 6.9 16.5378 6.9 16.6667H8.1C8.1 15.8751 7.45827 15.2333 6.66667 15.2333V16.4333ZM6.66667 15.2333C5.87506 15.2333 5.23333 15.8751 5.23333 16.6667H6.43333C6.43333 16.5378 6.5378 16.4333 6.66667 16.4333V15.2333ZM2.5 3.1H2.72362V1.9H2.5V3.1ZM3.4448 3.70024L5.24334 13.4423L6.42339 13.2244L4.62486 3.48238L3.4448 3.70024ZM2.72362 3.1C2.92995 3.1 3.05189 3.10039 3.14319 3.10723C3.22699 3.1135 3.24103 3.12291 3.23433 3.11994L3.71977 2.02252C3.55204 1.94832 3.38677 1.92211 3.23282 1.91058C3.08637 1.89961 2.91211 1.9 2.72362 1.9V3.1ZM4.62486 3.48238C4.59066 3.29711 4.55943 3.12569 4.5221 2.98374C4.48285 2.83446 4.42711 2.67669 4.32365 2.52516L3.3326 3.20177C3.32843 3.19566 3.3402 3.20768 3.36156 3.28891C3.38484 3.37746 3.40733 3.49726 3.4448 3.70024L4.62486 3.48238ZM3.23433 3.11994C3.27401 3.1375 3.30804 3.1658 3.3326 3.20177L4.32365 2.52516C4.17314 2.3047 3.96405 2.13057 3.71977 2.02252L3.23433 3.11994ZM4.58333 5.6H15.8239V4.4H4.58333V5.6ZM16.5385 6.49818L15.2308 12.1648L16.4001 12.4347L17.7078 6.76801L16.5385 6.49818ZM14.5162 12.7333L5.83336 12.7334L5.83337 13.9334L14.5162 13.9333L14.5162 12.7333ZM15.2308 12.1648C15.1862 12.358 15.1597 12.4714 15.1339 12.5552C15.1103 12.6317 15.0987 12.643 15.1027 12.6375L16.0724 13.3444C16.1768 13.2013 16.2366 13.0514 16.2805 12.909C16.3222 12.7739 16.3595 12.6106 16.4001 12.4347L15.2308 12.1648ZM14.5162 13.9333C14.6969 13.9333 14.8645 13.9337 15.0058 13.9234C15.1545 13.9125 15.3139 13.8878 15.4767 13.8184L15.0059 12.7146C15.0121 12.712 14.9983 12.7207 14.9183 12.7266C14.8309 12.733 14.7142 12.7333 14.5162 12.7333V13.9333ZM15.1027 12.6375C15.0778 12.6717 15.0444 12.6982 15.0059 12.7146L15.4767 13.8184C15.7147 13.7169 15.9203 13.553 16.0724 13.3444L15.1027 12.6375ZM15.8239 5.6C16.1212 5.6 16.3047 5.60055 16.4399 5.61247C16.5703 5.62396 16.5864 5.64176 16.5719 5.63311L17.1881 4.60342C16.9761 4.47651 16.7503 4.43517 16.5453 4.4171C16.345 4.39945 16.0993 4.4 15.8239 4.4V5.6ZM17.7078 6.76801C17.7697 6.49978 17.8255 6.26041 17.8534 6.0613C17.8819 5.85745 17.8925 5.62804 17.8165 5.39274L16.6746 5.76164C16.6694 5.7455 16.6831 5.76509 16.6649 5.89493C16.6461 6.02951 16.6053 6.20852 16.5385 6.49818L17.7078 6.76801ZM16.5719 5.63311C16.621 5.66251 16.6574 5.70852 16.6746 5.76164L17.8165 5.39274C17.7095 5.06159 17.4855 4.78139 17.1881 4.60342L16.5719 5.63311Z" fill="#111729"/>
</svg>
