<svg width="10" height="8" viewBox="0 0 10 8" fill="none" xmlns="http://www.w3.org/2000/svg">
<path d="M1.35355 3.64645C1.15829 3.45118 0.841709 3.45118 0.646447 3.64645C0.451184 3.84171 0.451184 4.15829 0.646447 4.35355L1.35355 3.64645ZM4 7L3.64645 7.35355C3.74578 7.45289 3.88232 7.50585 4.02266 7.49949C4.16299 7.49312 4.29418 7.42801 4.38411 7.32009L4 7ZM9.38411 1.32009C9.56089 1.10795 9.53223 0.792671 9.32009 0.615889C9.10795 0.439107 8.79267 0.467769 8.61589 0.679908L9.38411 1.32009ZM0.646447 4.35355L3.64645 7.35355L4.35355 6.64645L1.35355 3.64645L0.646447 4.35355ZM4.38411 7.32009L9.38411 1.32009L8.61589 0.679908L3.61589 6.67991L4.38411 7.32009Z" fill="#1644CD"/>
</svg>
