<svg width="32" height="33" viewBox="0 0 32 33" fill="none" xmlns="http://www.w3.org/2000/svg">
<path opacity="0.4" d="M16.0003 29.8334C23.3641 29.8334 29.3337 23.8638 29.3337 16.5C29.3337 9.13622 23.3641 3.16669 16.0003 3.16669C8.63653 3.16669 2.66699 9.13622 2.66699 16.5C2.66699 23.8638 8.63653 29.8334 16.0003 29.8334Z" fill="#E54040"/>
<path d="M17.4128 16.5L20.4795 13.4333C20.8662 13.0466 20.8662 12.4066 20.4795 12.02C20.0928 11.6333 19.4528 11.6333 19.0662 12.02L15.9995 15.0866L12.9328 12.02C12.5462 11.6333 11.9062 11.6333 11.5195 12.02C11.1328 12.4066 11.1328 13.0466 11.5195 13.4333L14.5862 16.5L11.5195 19.5666C11.1328 19.9533 11.1328 20.5933 11.5195 20.98C11.7195 21.18 11.9728 21.2733 12.2262 21.2733C12.4795 21.2733 12.7328 21.18 12.9328 20.98L15.9995 17.9133L19.0662 20.98C19.2662 21.18 19.5195 21.2733 19.7728 21.2733C20.0262 21.2733 20.2795 21.18 20.4795 20.98C20.8662 20.5933 20.8662 19.9533 20.4795 19.5666L17.4128 16.5Z" fill="#E54040"/>
</svg>
