<svg xmlns="http://www.w3.org/2000/svg" width="266.667" height="266.667" viewBox="0 0 200 200">
    <path d="M13.4 6.4c-3.9 1.7-7.2 5.9-8 10.1C4 24.3 4 24.3 42.8 63.2L79.5 100l-36.7 36.8C11.2 168.4 6.1 174 5.5 177.2c-2 10.8 6.4 19.3 17.2 17.4 3.3-.7 8.1-5.1 40.6-37.4l36.7-36.7 36.3 36.2c19.9 19.9 37.5 36.7 39 37.3 6.4 2.3 12.4.6 17.1-5 2.1-2.6 2.6-4.2 2.6-8.8v-5.6l-37.2-37.3-37.3-37.3 36.7-36.7c31.6-31.7 36.7-37.3 37.3-40.5 2-10.8-6.4-19.3-17.2-17.4-3.3.7-8.1 5.1-40.6 37.4L100 79.5 63.7 43.3C43.8 23.4 26.2 6.6 24.7 6c-3.8-1.3-7.5-1.2-11.3.4z"/>
</svg>
