<svg width="45" height="44" viewBox="0 0 45 44" fill="none" xmlns="http://www.w3.org/2000/svg">
<path d="M17 40.3307H28C37.1666 40.3307 40.8333 36.6641 40.8333 27.4974V16.4974C40.8333 7.33073 37.1666 3.66406 28 3.66406H17C7.83329 3.66406 4.16663 7.33073 4.16663 16.4974V27.4974C4.16663 36.6641 7.83329 40.3307 17 40.3307Z" stroke="#5A5C81" stroke-width="2.5" stroke-linecap="round" stroke-linejoin="round"/>
<path d="M4.16663 23.8308H11.06C12.4533 23.8308 13.7183 24.6192 14.3416 25.8658L15.9733 29.1475C17 31.1642 18.8333 31.1642 19.2733 31.1642H25.745C27.1383 31.1642 28.4033 30.3758 29.0266 29.1292L30.6583 25.8475C31.2816 24.6008 32.5466 23.8125 33.94 23.8125H40.7966" stroke="#5A5C81" stroke-width="2.5" stroke-linecap="round" stroke-linejoin="round"/>
</svg>
