<svg xmlns="http://www.w3.org/2000/svg" width="20" height="20" fill="none"><path fill="#1B459B" d="M3.333 16.667h-.6a.6.6 0 0 0 .6.6v-.6Zm13.334.6a.6.6 0 1 0 0-1.2v1.2ZM3.333 13.334l-.424-.425a.6.6 0 0 0-.176.425h.6Zm9.058-9.058-.425-.424.425.424Zm1.885 0-.424.425.424-.425Zm1.448 1.448.424-.424-.424.424Zm0 1.886-.424-.425.424.425Zm-9.057 9.057v.6a.6.6 0 0 0 .424-.176l-.424-.424ZM16.28 6.409l.57-.185-.57.185Zm0 .515-.57-.185.57.185ZM13.076 3.72l-.186-.57.186.57Zm.515 0 .185-.57-.185.57Zm-3.167 2.524a.6.6 0 0 0-.848.848l.848-.848Zm2.485 4.181a.6.6 0 1 0 .849-.848l-.849.848Zm-9.576 6.843h13.334v-1.2H3.333v1.2Zm.6-.6v-3.333h-1.2v3.333h1.2Zm-.175-2.91 9.057-9.056-.849-.849L2.91 12.91l.849.849Zm10.094-9.056L15.3 6.148l.848-.848L14.7 3.852l-.848.849ZM15.3 7.185l-9.058 9.058.849.848 9.057-9.057-.848-.849Zm-8.633 8.882H3.333v1.2h3.334v-1.2ZM15.3 6.148c.172.172.275.276.345.36.067.077.068.097.065.087l1.141-.371a1.453 1.453 0 0 0-.29-.493c-.11-.13-.255-.273-.413-.431l-.848.848Zm.848 1.886c.158-.158.303-.302.412-.431.115-.135.226-.293.291-.493l-1.14-.371c.002-.01 0 .01-.066.087-.07.084-.173.187-.345.36l.848.848Zm-.438-1.44a.232.232 0 0 1 0 .145l1.141.37a1.434 1.434 0 0 0 0-.885l-1.14.37Zm-2.895-1.893c.172-.172.276-.276.359-.346.078-.066.098-.068.087-.065l-.37-1.141c-.201.065-.359.177-.494.29-.129.11-.273.255-.43.413l.848.849Zm1.885-.849c-.158-.158-.301-.302-.43-.412a1.453 1.453 0 0 0-.494-.291l-.37 1.141c-.01-.003.009-.001.087.065.083.07.187.174.359.346l.848-.849Zm-1.439.438a.233.233 0 0 1 .145 0l.37-1.141a1.434 1.434 0 0 0-.886 0l.371 1.141ZM9.576 7.091l3.333 3.333.849-.848-3.334-3.333-.848.848Z"/></svg>