<svg xmlns="http://www.w3.org/2000/svg" width="162" height="157" fill="none"><g clip-path="url(#a)"><g clip-path="url(#b)"><path d="M74.837 2.575.175 61.967l161.262-.135L86.32 2.54a9.225 9.225 0 0 0-11.483.034Z" fill="#90A3BF"/><path d="M74.837 2.575.175 61.967l161.262-.135L86.32 2.54a9.225 9.225 0 0 0-11.483.034Z" fill="#CAD3E2"/><path d="M-.756 62.291 74.633 2.33a9.506 9.506 0 0 1 11.88-.01l75.861 59.871-163.13.102ZM82.734 1.1a8.858 8.858 0 0 0-7.69 1.71L1.097 61.649l159.409-.135-74.38-58.73a8.926 8.926 0 0 0-3.4-1.656l.008-.03Z" fill="#7B818C"/><path d="M.17 61.97 162 61.833l.073 87.707a6.55 6.55 0 0 1-6.542 6.552l-148.734.124a6.548 6.548 0 0 1-6.553-6.541L.171 61.969Z" fill="#CAD3E2"/><path d="m151.494 64.036-66.176 40.876-75.372-37.74 1.355-44.6a8.802 8.802 0 0 1 8.791-8.668l122.583-.1a8.788 8.788 0 0 1 8.805 8.795l.014 41.437Z" fill="#fff"/><path d="M79.117 98.872.169 148.871a7.205 7.205 0 0 0 4.453 6.651 7.188 7.188 0 0 0 2.758.545l147.592-.126a7.201 7.201 0 0 0 7.195-7.206l-.001-.554-74.841-49.24a7.556 7.556 0 0 0-8.208-.069Z" fill="#A1AFC5"/><path d="m73.95 33.878-47.958.049.005 4.896 47.958-.048-.005-4.897ZM132.409 46.234l-106.406.107.006 5.533 106.406-.108-.006-5.532ZM132.426 59.751l-106.406.107.005 5.533 106.407-.108-.006-5.532ZM130.354 77.146l-3.916 2.361-89.591 1.155-10.36-5.293-.12-1.296 106.065-.103.006 1.834-2.084 1.342ZM103.401 93.74l-40.24.034-10.933-5.517 60.141-.061-8.968 5.544Z" fill="#E0E0E0"/><path d="M76.236 100.69s-.058.055-.187.143l-.573.381-2.207 1.437-8.157 5.241A4963.405 4963.405 0 0 1 38.1 125.033c-10.558 6.648-20.212 12.57-27.228 16.79-3.508 2.11-6.36 3.81-8.334 4.965l-2.275 1.326-.6.336a.91.91 0 0 1-.208.106c.06-.051.123-.097.19-.136l.583-.366 2.231-1.38 8.285-5.046a2696.058 2696.058 0 0 0 27.18-16.872c10.577-6.651 20.136-12.647 27.055-17.061l8.205-5.154 2.232-1.386.591-.351c.159-.081.23-.114.23-.114ZM162.169 148.169c-.051.076-16.034-10.326-35.699-23.233-19.664-12.907-35.566-23.434-35.516-23.509.05-.076 16.035 10.32 35.7 23.227 19.664 12.907 35.566 23.434 35.515 23.515ZM154.648 62.059a1.008 1.008 0 0 1-.15.12l-.433.327-1.793 1.213-6.649 4.392a1261.57 1261.57 0 0 1-22.139 14.166 1230.193 1230.193 0 0 1-22.462 13.695l-6.865 4.044-1.88 1.077-.49.276c-.115.059-.173.089-.177.082.05-.042.103-.079.16-.112l.472-.305 1.848-1.13 6.805-4.133a2084.766 2084.766 0 0 0 44.564-27.839l6.703-4.304 1.83-1.159.483-.296a.826.826 0 0 1 .173-.114Z" fill="#5A6576"/><path d="M76.235 100.691a1.018 1.018 0 0 1-.199-.087l-.558-.29-2.226-1.181a581.838 581.838 0 0 0-8.112-4.22c-6.865-3.533-16.431-8.264-27.011-13.455-10.58-5.19-20.131-9.955-26.97-13.545-3.422-1.792-6.18-3.27-8.069-4.316L.916 62.384l-.551-.319a.843.843 0 0 1-.184-.121l.197.093.56.283 2.226 1.182a694.446 694.446 0 0 0 8.118 4.221c6.865 3.533 16.425 8.263 27.01 13.455 10.587 5.191 20.132 9.955 26.97 13.545 3.423 1.793 6.183 3.263 8.07 4.316l2.168 1.211.551.319.184.122Z" fill="#5A6576"/><path d="M151.494 64.036s-.011-.21-.013-.633l-.017-1.787c-.011-1.583-.024-3.898-.04-6.88l-.079-25.288a1779.88 1779.88 0 0 1-.01-4.102c.001-.693.001-1.404-.005-2.117.001-.36.002-.718-.024-1.07a6.877 6.877 0 0 0-.115-1.062 8.632 8.632 0 0 0-5.455-6.585 8.497 8.497 0 0 0-2.26-.56c-.78-.054-1.591-.035-2.402-.04l-4.952.032-10.333-.008-45.94.083-45.98.022H23.547l-2.52.006c-.81-.031-1.622.01-2.425.123a8.687 8.687 0 0 0-4.216 1.973 8.937 8.937 0 0 0-1.531 1.705 9.423 9.423 0 0 0-1.009 2.011c-.532 1.411-.475 2.912-.533 4.365l-.268 8.38c-.346 10.677-.627 19.31-.823 25.29-.11 2.983-.184 5.294-.234 6.87-.036.778-.058 1.377-.072 1.789-.014.412-.04.62-.04.62s-.005-.21.004-.629c.01-.42.024-1.008.04-1.785.04-1.584.102-3.898.18-6.883.165-5.98.41-14.623.71-25.293.082-2.669.158-5.465.245-8.385.053-1.435-.003-2.986.546-4.443a9.17 9.17 0 0 1 1.032-2.081 9.393 9.393 0 0 1 1.577-1.764 8.59 8.59 0 0 1 2.018-1.307 8.316 8.316 0 0 1 2.33-.733c.817-.12 1.643-.163 2.47-.132l2.52-.005 10.34.004 45.986-.046 45.981-.023h10.322l4.944.003c.812 0 1.61-.017 2.427.04a8.96 8.96 0 0 1 6.116 3.28 8.892 8.892 0 0 1 1.848 4.078c.069.361.109.727.12 1.094.023.365.022.724.021 1.083.001.711-.005 1.422-.002 2.121 0 1.398-.005 2.764-.002 4.1l-.033 25.303c-.014 2.982-.021 5.298-.028 6.877-.005.786-.009 1.383-.015 1.791-.007.408-.079.598-.079.598Z" fill="#E0E0E0"/></g><path d="M27.426 24.569a12.765 12.765 0 1 1-5.23-17.28 12.77 12.77 0 0 1 5.23 17.28Z" fill="#49A97C"/><path d="M22.41 12.96c.197.143-2.237 3.943-5.441 8.49-.472.657-.948 1.283-1.362 1.91l-.24.338-.34-.235c-3.633-2.544-6.254-4.547-6.137-4.714.117-.166 2.928 1.55 6.612 4.019l-.58.108c.431-.624.879-1.262 1.338-1.923 3.2-4.555 5.952-8.111 6.15-7.993Z" fill="#fff"/></g><defs><clipPath id="a"><path fill="#fff" d="M0 0h162v156.498H0z"/></clipPath><clipPath id="b"><path fill="#fff" transform="rotate(13.912 80.179 69.026)" d="M0 0h180.608v172.882H0z"/></clipPath></defs></svg>