<svg width="20" height="20" viewBox="0 0 20 20" fill="none" xmlns="http://www.w3.org/2000/svg">
<path d="M3.75775 2.90907C3.52344 2.67476 3.14354 2.67476 2.90922 2.90907C2.67491 3.14338 2.67491 3.52328 2.90922 3.7576L3.75775 2.90907ZM16.2426 17.0909C16.4769 17.3252 16.8568 17.3252 17.0911 17.0909C17.3254 16.8566 17.3254 16.4767 17.0911 16.2424L16.2426 17.0909ZM14.0347 14.4915C14.3264 14.3344 14.4355 13.9705 14.2784 13.6788C14.1212 13.387 13.7573 13.2779 13.4656 13.4351L14.0347 14.4915ZM2.98925 11.4824L2.56623 11.9079L2.98925 11.4824ZM2.99047 8.51634L2.56749 8.09079L2.56749 8.09079L2.99047 8.51634ZM6.27634 6.70895C6.56355 6.54367 6.66239 6.17686 6.49711 5.88965C6.33183 5.60244 5.96502 5.5036 5.67781 5.66888L6.27634 6.70895ZM2.27758 10.5168L1.70716 10.7029L2.27758 10.5168ZM2.27758 9.48296L1.70718 9.29685L2.27758 9.48296ZM15.8539 11.7442C15.6051 11.963 15.5808 12.3421 15.7996 12.591C16.0185 12.8398 16.3976 12.8641 16.6464 12.6452L15.8539 11.7442ZM17.01 11.4837L16.587 11.0582L17.01 11.4837ZM17.0113 8.51759L16.5883 8.9431L17.0113 8.51759ZM9.09069 4.45858C8.76199 4.50063 8.52962 4.80117 8.57167 5.12987C8.61372 5.45856 8.91426 5.69093 9.24295 5.64888L9.09069 4.45858ZM17.7228 10.517L18.2932 10.7031L17.7228 10.517ZM17.7232 9.48321L18.2936 9.29715L17.7232 9.48321ZM11.4996 11.6998C11.7481 11.4805 11.7717 11.1014 11.5524 10.8529C11.3331 10.6045 10.954 10.5808 10.7055 10.8001L11.4996 11.6998ZM9.23258 9.25928C9.46272 9.02086 9.45601 8.64102 9.21759 8.41088C8.97918 8.18074 8.59934 8.18745 8.3692 8.42586L9.23258 9.25928ZM2.90922 3.7576L16.2426 17.0909L17.0911 16.2424L3.75775 2.90907L2.90922 3.7576ZM13.4656 13.4351C12.3971 14.0107 11.2215 14.4 10.0002 14.4V15.6C11.4765 15.6 12.8488 15.1304 14.0347 14.4915L13.4656 13.4351ZM10.0002 14.4C7.31324 14.4 4.878 12.514 3.41227 11.0569L2.56623 11.9079C4.06622 13.3991 6.80264 15.6 10.0002 15.6V14.4ZM3.41344 8.94189C4.1382 8.22152 5.12434 7.37189 6.27634 6.70895L5.67781 5.66888C4.40616 6.40067 3.33755 7.32539 2.56749 8.09079L3.41344 8.94189ZM3.41227 11.0569C3.00792 10.6549 2.92122 10.5552 2.848 10.3308L1.70716 10.7029C1.88308 11.2422 2.18774 11.5316 2.56623 11.9079L3.41227 11.0569ZM2.56749 8.09079C2.18837 8.46762 1.88318 8.75745 1.70718 9.29685L2.84798 9.66909C2.9212 9.44469 3.00817 9.34471 3.41344 8.94189L2.56749 8.09079ZM2.848 10.3308C2.83054 10.2772 2.81094 10.1563 2.81094 9.99988C2.81093 9.84349 2.83053 9.72256 2.84798 9.66909L1.70718 9.29685C1.63576 9.51572 1.61093 9.77554 1.61094 9.9999C1.61094 10.2243 1.63578 10.484 1.70716 10.7029L2.848 10.3308ZM16.6464 12.6452C16.934 12.3923 17.1971 12.1437 17.433 11.9093L16.587 11.0582C16.3667 11.2772 16.1214 11.5089 15.8539 11.7442L16.6464 12.6452ZM17.4343 8.09208C15.9343 6.60085 13.1977 4.4 10.0002 4.4V5.6C12.6871 5.6 15.1226 7.48596 16.5883 8.9431L17.4343 8.09208ZM10.0002 4.4C9.6923 4.4 9.38886 4.42044 9.09069 4.45858L9.24295 5.64888C9.49295 5.6169 9.7455 5.6 10.0002 5.6V4.4ZM17.433 11.9093C17.8122 11.5323 18.1172 11.2425 18.2932 10.7031L17.1524 10.3309C17.0792 10.5553 16.9922 10.6554 16.587 11.0582L17.433 11.9093ZM16.5883 8.9431C16.9928 9.34522 17.0795 9.44487 17.1527 9.66927L18.2936 9.29715C18.1176 8.75774 17.8127 8.46823 17.4343 8.09208L16.5883 8.9431ZM18.2932 10.7031C18.3646 10.4844 18.3895 10.2248 18.3896 10.0004C18.3897 9.77606 18.365 9.51616 18.2936 9.29715L17.1527 9.66927C17.1701 9.72263 17.1897 9.84345 17.1896 9.99985C17.1896 10.1562 17.1699 10.2772 17.1524 10.3309L18.2932 10.7031ZM10.7055 10.8001C10.5171 10.9664 10.2711 11.0666 10.0002 11.0666V12.2666C10.5746 12.2666 11.1004 12.0521 11.4996 11.6998L10.7055 10.8001ZM10.0002 11.0666C9.41105 11.0666 8.93349 10.5891 8.93349 9.99995H7.73349C7.73349 11.2518 8.74831 12.2666 10.0002 12.2666V11.0666ZM8.93349 9.99995C8.93349 9.71198 9.04681 9.45173 9.23258 9.25928L8.3692 8.42586C7.97619 8.833 7.73349 9.38875 7.73349 9.99995H8.93349Z" fill="#A3A4BD"/>
</svg>
