<svg width="20" height="20" viewBox="0 0 20 20" fill="none" xmlns="http://www.w3.org/2000/svg">
<path d="M15.8336 7.5H13.5002C12.5668 7.5 12.0998 7.49997 11.7432 7.31832C11.4296 7.15853 11.1749 6.90358 11.0151 6.58997C10.8334 6.23345 10.8334 5.76675 10.8334 4.83333V2.5M15.8334 14.8333V7.77125C15.8334 7.3636 15.8331 7.15974 15.787 6.96793C15.7462 6.79787 15.679 6.63531 15.5876 6.48619C15.4845 6.318 15.3408 6.17387 15.0526 5.88562L12.448 3.28105C12.1597 2.9928 12.0156 2.84869 11.8474 2.74562C11.6983 2.65423 11.5358 2.58688 11.3657 2.54605C11.1739 2.5 10.97 2.5 10.5623 2.5H6.83358C5.90016 2.5 5.4331 2.5 5.07658 2.68166C4.76298 2.84144 4.50819 3.09643 4.3484 3.41003C4.16675 3.76655 4.16675 4.23326 4.16675 5.16668V14.8333C4.16675 15.7668 4.16675 16.2335 4.3484 16.59C4.50819 16.9036 4.76298 17.1585 5.07658 17.3183C5.4331 17.5 5.90016 17.5 6.83358 17.5H13.1669C14.1003 17.5 14.5667 17.5 14.9232 17.3183C15.2368 17.1585 15.4921 16.9036 15.6519 16.59C15.8336 16.2335 15.8334 15.7668 15.8334 14.8333Z" stroke="#111729" stroke-width="1.2" stroke-linecap="round" stroke-linejoin="round"/>
<path d="M6.11583 14.9908C6.03763 14.9908 5.9735 14.9709 5.92345 14.931C5.8734 14.8881 5.84368 14.836 5.83429 14.7747C5.82804 14.7103 5.84994 14.646 5.89999 14.5816L6.97452 13.1793V13.4322L5.9516 12.0896C5.90155 12.0222 5.87965 11.9578 5.88591 11.8965C5.89217 11.8322 5.92032 11.7801 5.97037 11.7402C6.02042 11.6973 6.08298 11.6759 6.15806 11.6759C6.22062 11.6759 6.27537 11.6912 6.32229 11.7218C6.37234 11.7494 6.42239 11.7969 6.47244 11.8644L7.31705 13.0046H7.12467L7.96458 11.8644C8.01463 11.7969 8.06312 11.7494 8.11004 11.7218C8.16009 11.6912 8.21797 11.6759 8.28366 11.6759C8.36186 11.6759 8.42599 11.6958 8.47604 11.7356C8.52609 11.7755 8.55424 11.8276 8.5605 11.8919C8.56676 11.9532 8.5433 12.0191 8.49012 12.0896L7.4672 13.4322V13.1793L8.53704 14.5816C8.58709 14.646 8.60899 14.7103 8.60273 14.7747C8.59648 14.836 8.56832 14.8881 8.51827 14.931C8.46822 14.9709 8.40253 14.9908 8.3212 14.9908C8.26176 14.9908 8.20702 14.9755 8.15697 14.9448C8.11004 14.9142 8.05999 14.8651 8.00681 14.7977L7.11528 13.6023H7.32174L6.4349 14.7977C6.38485 14.8651 6.3348 14.9142 6.28475 14.9448C6.2347 14.9755 6.17839 14.9908 6.11583 14.9908Z" fill="#111729"/>
<path d="M9.46083 14.954C9.36386 14.954 9.28878 14.928 9.2356 14.8759C9.18242 14.8207 9.15583 14.7456 9.15583 14.6506V11.9977C9.15583 11.8996 9.18086 11.826 9.23091 11.777C9.28409 11.7249 9.35916 11.6988 9.45614 11.6988C9.55311 11.6988 9.62662 11.7249 9.67667 11.777C9.72985 11.826 9.75644 11.8996 9.75644 11.9977V14.4529H11.1172C11.2017 14.4529 11.2658 14.4743 11.3096 14.5172C11.3565 14.5601 11.38 14.6214 11.38 14.7011C11.38 14.7808 11.3565 14.8437 11.3096 14.8896C11.2658 14.9326 11.2017 14.954 11.1172 14.954H9.46083Z" fill="#111729"/>
<path d="M12.8621 15C12.7245 15 12.5869 14.9893 12.4492 14.9678C12.3116 14.9494 12.1818 14.9203 12.0598 14.8804C11.9378 14.8375 11.8283 14.7854 11.7313 14.7241C11.675 14.6873 11.6359 14.6429 11.614 14.5908C11.5921 14.5387 11.5843 14.4881 11.5905 14.4391C11.5999 14.387 11.6202 14.3425 11.6515 14.3057C11.6859 14.2659 11.7282 14.2414 11.7782 14.2322C11.8283 14.223 11.883 14.2368 11.9425 14.2736C12.0801 14.3532 12.2256 14.4115 12.3788 14.4483C12.5321 14.485 12.6932 14.5034 12.8621 14.5034C13.1093 14.5034 13.2891 14.4636 13.4017 14.3839C13.5144 14.3011 13.5707 14.1954 13.5707 14.0667C13.5707 13.9594 13.53 13.8751 13.4487 13.8138C13.3705 13.7525 13.2344 13.7019 13.0404 13.6621L12.5243 13.5563C12.2271 13.495 12.005 13.3923 11.858 13.2483C11.7141 13.1011 11.6421 12.908 11.6421 12.669C11.6421 12.5188 11.6734 12.3824 11.736 12.2598C11.7986 12.1372 11.8861 12.0314 11.9988 11.9425C12.1145 11.8536 12.2506 11.7862 12.407 11.7402C12.5665 11.6912 12.7417 11.6667 12.9325 11.6667C13.1202 11.6667 13.2985 11.6896 13.4674 11.7356C13.6364 11.7816 13.7881 11.849 13.9226 11.9379C13.9726 11.9716 14.0055 12.013 14.0211 12.0621C14.0399 12.1111 14.0446 12.1601 14.0352 12.2092C14.0258 12.2552 14.0039 12.295 13.9695 12.3287C13.9351 12.3624 13.8913 12.3824 13.8381 12.3885C13.7881 12.3946 13.7302 12.3793 13.6645 12.3425C13.5488 12.2782 13.4315 12.2322 13.3126 12.2046C13.1937 12.177 13.0655 12.1632 12.9278 12.1632C12.7839 12.1632 12.6604 12.1831 12.5571 12.223C12.4539 12.2628 12.3741 12.3195 12.3178 12.3931C12.2647 12.4636 12.2381 12.5479 12.2381 12.646C12.2381 12.7563 12.2756 12.8452 12.3507 12.9126C12.4258 12.977 12.554 13.0276 12.7354 13.0644L13.2469 13.1701C13.5566 13.2345 13.7865 13.3356 13.9367 13.4736C14.0899 13.6115 14.1666 13.7954 14.1666 14.0253C14.1666 14.1724 14.1353 14.3057 14.0727 14.4253C14.0133 14.5448 13.9257 14.6475 13.81 14.7333C13.6974 14.8191 13.5613 14.885 13.4017 14.931C13.2422 14.977 13.0623 15 12.8621 15Z" fill="#111729"/>
</svg>
