<svg width="85" height="38" viewBox="0 0 85 38" fill="none" xmlns="http://www.w3.org/2000/svg">
<path d="M21.6378 9.70562H11.8367V12.6078H18.7883C18.4438 16.67 15.0518 18.4136 11.8484 18.4136C10.8336 18.4181 9.82809 18.2208 8.89054 17.8332C7.95299 17.4455 7.10221 16.8754 6.38787 16.1561C5.67353 15.4368 5.10994 14.5827 4.73002 13.6436C4.35009 12.7046 4.16144 11.6994 4.17507 10.6868C4.17507 6.29334 7.58354 2.91075 11.8578 2.91075C15.1551 2.91075 17.0982 5.00827 17.0982 5.00827L19.1335 2.90372C19.1335 2.90372 16.5189 0 11.7514 0C5.68046 0 0.984222 5.11295 0.984222 10.6352C0.984222 16.0466 5.40177 21.3236 11.9048 21.3236C17.625 21.3236 21.8124 17.4129 21.8124 11.6305C21.8124 10.4103 21.6347 9.70562 21.6347 9.70562H21.6378Z" fill="#4885ED"/>
<path d="M29.6674 7.60332C25.6452 7.60332 22.7628 10.7414 22.7628 14.3998C22.7628 18.1136 25.5575 21.3095 29.7144 21.3095C33.4767 21.3095 36.5587 18.4401 36.5587 14.4794C36.5587 9.94848 32.9733 7.60254 29.6674 7.60254V7.60332ZM29.7065 10.2953C31.684 10.2953 33.5581 11.8913 33.5581 14.4622C33.5581 16.9777 31.6918 18.6198 29.6971 18.6198C27.5052 18.6198 25.7829 16.8683 25.7829 14.4419C25.7829 12.0671 27.4895 10.2953 29.7128 10.2953H29.7065Z" fill="#DB3236"/>
<path d="M44.683 7.60332C40.6608 7.60332 37.7784 10.7414 37.7784 14.3998C37.7784 18.1136 40.5731 21.3095 44.73 21.3095C48.4923 21.3095 51.5743 18.4401 51.5743 14.4794C51.5743 9.94848 47.9889 7.60254 44.683 7.60254V7.60332ZM44.7221 10.2953C46.6996 10.2953 48.5737 11.8913 48.5737 14.4622C48.5737 16.9777 46.7074 18.6198 44.7128 18.6198C42.5208 18.6198 40.7986 16.8683 40.7986 14.4419C40.7986 12.0671 42.5052 10.2953 44.7284 10.2953H44.7221Z" fill="#F4C20D"/>
<path d="M59.4105 7.61133C55.7186 7.61133 52.8174 10.8377 52.8174 14.4593C52.8174 18.584 56.1813 21.3198 59.3463 21.3198C61.3034 21.3198 62.3446 20.5441 63.1039 19.6543V21.0058C63.1039 23.3705 61.6651 24.7868 59.4935 24.7868C57.3955 24.7868 56.3433 23.2298 55.9707 22.3471L53.331 23.4408C54.2673 25.4172 56.1523 27.4772 59.5154 27.4772C63.1947 27.4772 65.9832 25.1703 65.9832 20.3316V8.02302H63.1149V9.18388C62.2303 8.23082 61.0184 7.61133 59.4121 7.61133H59.4105ZM59.6767 10.2987C61.4866 10.2987 63.345 11.8407 63.345 14.4742C63.345 17.1513 61.4897 18.6262 59.6367 18.6262C57.6687 18.6262 55.8376 17.0326 55.8376 14.4992C55.8376 11.8681 57.7399 10.2987 59.6767 10.2987Z" fill="#4885ED"/>
<path d="M78.8029 7.59473C75.3209 7.59473 72.397 10.3602 72.397 14.438C72.397 18.7549 75.6559 21.3149 79.1294 21.3149C82.0353 21.3149 83.8264 19.7291 84.8832 18.3073L82.5089 16.7308C81.8928 17.6839 80.8626 18.6174 79.1442 18.6174C77.2138 18.6174 76.326 17.5628 75.7757 16.5395L84.9842 12.7272L84.5145 11.6101C83.6252 9.42273 81.5491 7.59473 78.8029 7.59473ZM78.9227 10.2305C80.1776 10.2305 81.0802 10.8961 81.4638 11.6945L75.3138 14.2591C75.0477 12.2733 76.9343 10.2305 78.9149 10.2305H78.9227Z" fill="#DB3236"/>
<path d="M67.9998 20.9089H71.0246V0.709473H67.9998V20.9089Z" fill="#3CBA54"/>
<path d="M43.6607 33.1411L46.5943 33.1364C46.6051 33.1366 46.6156 33.1403 46.6243 33.1469C46.633 33.1535 46.6395 33.1627 46.6428 33.1732C46.6462 33.1837 46.6463 33.1951 46.6431 33.2057C46.6399 33.2163 46.6336 33.2256 46.625 33.2323L44.249 34.9977C44.2399 35.0041 44.2331 35.0134 44.2295 35.0242C44.2259 35.0349 44.2258 35.0465 44.2291 35.0574L45.1421 37.9184C45.1458 37.9293 45.1459 37.9411 45.1425 37.9521C45.1391 37.9631 45.1324 37.9727 45.1232 37.9794C45.1141 37.9861 45.1031 37.9896 45.0919 37.9894C45.0806 37.9892 45.0698 37.9852 45.0609 37.9781L42.691 36.2049C42.6821 36.1983 42.6714 36.1947 42.6604 36.1947C42.6494 36.1947 42.6386 36.1983 42.6297 36.2049L40.2599 37.9781C40.251 37.9852 40.2401 37.9892 40.2289 37.9894C40.2177 37.9896 40.2067 37.9861 40.1975 37.9794C40.1884 37.9727 40.1816 37.9631 40.1782 37.9521C40.1748 37.9411 40.175 37.9293 40.1787 37.9184L41.0917 35.0574C41.095 35.0465 41.0948 35.0349 41.0913 35.0242C41.0877 35.0134 41.0809 35.0041 41.0718 34.9977L38.6958 33.2323C38.6872 33.2256 38.6809 33.2163 38.6777 33.2057C38.6745 33.1951 38.6746 33.1837 38.6779 33.1732C38.6813 33.1627 38.6878 33.1535 38.6965 33.1469C38.7052 33.1403 38.7156 33.1366 38.7264 33.1364L41.66 33.1411C41.6709 33.1411 41.6814 33.1376 41.6902 33.1311C41.699 33.1246 41.7056 33.1155 41.7091 33.105L42.6114 30.2393C42.615 30.2289 42.6216 30.22 42.6304 30.2136C42.6392 30.2073 42.6497 30.2039 42.6604 30.2039C42.6711 30.2039 42.6816 30.2073 42.6904 30.2136C42.6991 30.22 42.7058 30.2289 42.7094 30.2393L43.6117 33.105C43.6152 33.1155 43.6218 33.1246 43.6306 33.1311C43.6394 33.1376 43.6499 33.1411 43.6607 33.1411ZM52.218 33.1443L55.1654 33.1396C55.1758 33.1392 55.186 33.1423 55.1945 33.1484C55.203 33.1546 55.2093 33.1634 55.2124 33.1736C55.2156 33.1838 55.2154 33.1947 55.2118 33.2048C55.2083 33.2148 55.2017 33.2234 55.193 33.2292L52.8062 35.0024C52.7981 35.0085 52.7921 35.0171 52.789 35.027C52.786 35.0369 52.7861 35.0476 52.7894 35.0574L53.7039 37.9325C53.7068 37.9423 53.7067 37.9528 53.7034 37.9625C53.7002 37.9721 53.6941 37.9805 53.6859 37.9865C53.6778 37.9924 53.6681 37.9955 53.6581 37.9954C53.6481 37.9953 53.6384 37.992 53.6304 37.986L51.2483 36.2049C51.2402 36.199 51.2306 36.1959 51.2207 36.1959C51.2108 36.1959 51.2012 36.199 51.1931 36.2049L48.811 37.986C48.803 37.992 48.7933 37.9953 48.7833 37.9954C48.7733 37.9955 48.7636 37.9924 48.7555 37.9865C48.7473 37.9805 48.7412 37.9721 48.738 37.9625C48.7348 37.9528 48.7346 37.9423 48.7375 37.9325L49.652 35.0574C49.6553 35.0476 49.6554 35.0369 49.6524 35.027C49.6494 35.0171 49.6433 35.0085 49.6352 35.0024L47.2485 33.2292C47.2397 33.2234 47.2331 33.2148 47.2296 33.2048C47.2261 33.1947 47.2259 33.1838 47.229 33.1736C47.2321 33.1634 47.2384 33.1546 47.2469 33.1484C47.2554 33.1423 47.2656 33.1392 47.276 33.1396L50.2234 33.1443C50.2335 33.1445 50.2434 33.1414 50.2517 33.1355C50.2599 33.1296 50.2661 33.1211 50.2694 33.1113L51.1763 30.233C51.1797 30.2237 51.1858 30.2157 51.1937 30.2101C51.2016 30.2045 51.2111 30.2015 51.2207 30.2015C51.2304 30.2015 51.2398 30.2045 51.2477 30.2101C51.2556 30.2157 51.2617 30.2237 51.2651 30.233L52.172 33.1113C52.1753 33.1211 52.1815 33.1296 52.1897 33.1355C52.198 33.1414 52.2079 33.1445 52.218 33.1443ZM60.7798 33.1411L63.7318 33.1364C63.7419 33.1362 63.7518 33.1393 63.7601 33.1452C63.7684 33.1512 63.7746 33.1597 63.7778 33.1695C63.7811 33.1793 63.7812 33.1899 63.7782 33.1998C63.7751 33.2097 63.7691 33.2183 63.7609 33.2245L61.3681 35.0008C61.3599 35.0069 61.3539 35.0156 61.3509 35.0255C61.3479 35.0354 61.348 35.046 61.3512 35.0558L62.2689 37.9372C62.2718 37.947 62.2716 37.9575 62.2683 37.9672C62.2651 37.9769 62.259 37.9853 62.2509 37.9912C62.2427 37.9971 62.233 38.0002 62.223 38.0001C62.2131 38 62.2034 37.9967 62.1953 37.9907L59.8086 36.2049C59.8006 36.199 59.7909 36.1959 59.781 36.1959C59.7711 36.1959 59.7615 36.199 59.7535 36.2049L57.3667 37.9907C57.3587 37.9967 57.349 38 57.339 38.0001C57.3291 38.0002 57.3193 37.9971 57.3112 37.9912C57.3031 37.9853 57.2969 37.9769 57.2937 37.9672C57.2905 37.9575 57.2903 37.947 57.2932 37.9372L58.2108 35.0558C58.2141 35.046 58.2142 35.0354 58.2112 35.0255C58.2081 35.0156 58.2021 35.0069 58.194 35.0008L55.8011 33.2245C55.793 33.2183 55.7869 33.2097 55.7839 33.1998C55.7809 33.1899 55.781 33.1793 55.7842 33.1695C55.7875 33.1597 55.7937 33.1512 55.802 33.1452C55.8102 33.1393 55.8201 33.1362 55.8302 33.1364L58.7822 33.1411C58.7923 33.1414 58.8022 33.1383 58.8105 33.1323C58.8187 33.1264 58.8249 33.1179 58.8282 33.1081L59.7366 30.2236C59.74 30.2143 59.7461 30.2063 59.754 30.2007C59.762 30.1951 59.7714 30.192 59.781 30.192C59.7907 30.192 59.8001 30.1951 59.808 30.2007C59.816 30.2063 59.822 30.2143 59.8255 30.2236L60.7339 33.1081C60.7371 33.1179 60.7433 33.1264 60.7516 33.1323C60.7599 33.1383 60.7698 33.1414 60.7798 33.1411ZM69.3386 33.1427H72.2784C72.2885 33.1425 72.2984 33.1456 72.3066 33.1515C72.3149 33.1575 72.3211 33.166 72.3244 33.1758C72.3276 33.1856 72.3277 33.1962 72.3247 33.2061C72.3217 33.216 72.3156 33.2246 72.3075 33.2307L69.9284 35.0039C69.9206 35.01 69.9147 35.0184 69.9117 35.0279C69.9087 35.0375 69.9087 35.0478 69.9116 35.0574L70.82 37.9278C70.8229 37.9376 70.8227 37.9481 70.8195 37.9578C70.8162 37.9674 70.8101 37.9758 70.802 37.9817C70.7939 37.9876 70.7841 37.9908 70.7742 37.9907C70.7642 37.9906 70.7545 37.9873 70.7465 37.9813L68.3674 36.2081C68.3593 36.2022 68.3497 36.199 68.3398 36.199C68.3299 36.199 68.3203 36.2022 68.3123 36.2081L65.9332 37.9813C65.9252 37.9873 65.9155 37.9906 65.9055 37.9907C65.8955 37.9908 65.8858 37.9876 65.8776 37.9817C65.8695 37.9758 65.8634 37.9674 65.8602 37.9578C65.8569 37.9481 65.8568 37.9376 65.8597 37.9278L66.7681 35.0574C66.771 35.0478 66.7709 35.0375 66.7679 35.0279C66.7649 35.0184 66.7591 35.01 66.7512 35.0039L64.3722 33.2307C64.364 33.2246 64.358 33.216 64.355 33.2061C64.3519 33.1962 64.352 33.1856 64.3553 33.1758C64.3585 33.166 64.3647 33.1575 64.373 33.1515C64.3813 33.1456 64.3912 33.1425 64.4013 33.1427H67.341C67.351 33.1425 67.3607 33.139 67.3687 33.1328C67.3767 33.1266 67.3825 33.118 67.3854 33.1081L68.2954 30.2393C68.2988 30.23 68.3049 30.222 68.3128 30.2164C68.3208 30.2108 68.3302 30.2078 68.3398 30.2078C68.3495 30.2078 68.3589 30.2108 68.3668 30.2164C68.3748 30.222 68.3808 30.23 68.3843 30.2393L69.2942 33.1081C69.2971 33.118 69.303 33.1266 69.3109 33.1328C69.3189 33.139 69.3286 33.1425 69.3386 33.1427ZM77.876 33.127L80.8203 33.1066C80.8311 33.1068 80.8416 33.1104 80.8503 33.117C80.859 33.1236 80.8654 33.1328 80.8688 33.1433C80.8722 33.1539 80.8723 33.1652 80.8691 33.1758C80.8659 33.1864 80.8595 33.1957 80.8509 33.2025L78.4642 34.9709C78.4552 34.9774 78.4483 34.9867 78.4448 34.9975C78.4412 35.0082 78.441 35.0198 78.4443 35.0307L79.3742 37.8979C79.3779 37.9088 79.378 37.9207 79.3746 37.9317C79.3712 37.9427 79.3645 37.9522 79.3553 37.9589C79.3462 37.9657 79.3352 37.9692 79.324 37.9689C79.3127 37.9687 79.3019 37.9648 79.293 37.9577L76.917 36.1751C76.9081 36.1684 76.8974 36.1648 76.8864 36.1648C76.8754 36.1648 76.8646 36.1684 76.8557 36.1751L74.4843 37.9671C74.4754 37.9735 74.4648 37.9769 74.4539 37.9768C74.443 37.9767 74.4324 37.9731 74.4236 37.9666C74.4148 37.96 74.4083 37.9507 74.4049 37.9401C74.4015 37.9295 74.4014 37.918 74.4047 37.9074L75.3238 35.037C75.3271 35.0261 75.3269 35.0145 75.3234 35.0037C75.3198 34.993 75.313 34.9837 75.3039 34.9772L72.911 33.2166C72.9025 33.2099 72.8961 33.2006 72.8929 33.19C72.8897 33.1794 72.8898 33.168 72.8932 33.1575C72.8966 33.147 72.903 33.1378 72.9117 33.1312C72.9204 33.1246 72.9309 33.1209 72.9417 33.1207L75.886 33.1301C75.897 33.13 75.9077 33.1262 75.9165 33.1195C75.9253 33.1127 75.9318 33.1032 75.935 33.0924L76.8266 30.2126C76.8299 30.2016 76.8365 30.1921 76.8455 30.1853C76.8544 30.1785 76.8653 30.1748 76.8764 30.1748C76.8875 30.1748 76.8984 30.1785 76.9074 30.1853C76.9163 30.1921 76.9229 30.2016 76.9262 30.2126L77.827 33.0893C77.8302 33.1001 77.8367 33.1095 77.8455 33.1163C77.8543 33.1231 77.865 33.1268 77.876 33.127Z" fill="#FFD201"/>
<path d="M34.8956 36.0021C34.8956 35.8881 34.8699 35.7827 34.8185 35.6858C34.77 35.5861 34.6686 35.4963 34.5144 35.4165C34.3631 35.3339 34.1346 35.2626 33.8291 35.2028C33.5721 35.1487 33.3394 35.0846 33.1309 35.0105C32.9253 34.9364 32.7497 34.8466 32.6041 34.7412C32.4613 34.6358 32.3513 34.5118 32.2743 34.3693C32.1972 34.2268 32.1586 34.0601 32.1586 33.8692C32.1586 33.6869 32.1986 33.5145 32.2785 33.352C32.3613 33.1896 32.477 33.0457 32.6255 32.9203C32.7768 32.795 32.9581 32.6967 33.1695 32.6254C33.3808 32.5542 33.6163 32.5186 33.8762 32.5186C34.2474 32.5186 34.5644 32.5841 34.8271 32.7152C35.0898 32.8463 35.2911 33.0215 35.431 33.2409C35.5709 33.4575 35.6409 33.6983 35.6409 33.9633H34.8485C34.8485 33.835 34.8099 33.7111 34.7328 33.5914C34.6586 33.4689 34.5487 33.3677 34.403 33.2879C34.2603 33.2081 34.0846 33.1682 33.8762 33.1682C33.6563 33.1682 33.4778 33.2024 33.3408 33.2708C33.2066 33.3364 33.1081 33.4204 33.0452 33.523C32.9853 33.6256 32.9553 33.7339 32.9553 33.8479C32.9553 33.9333 32.9696 34.0103 32.9981 34.0787C33.0295 34.1442 33.0838 34.2055 33.1609 34.2625C33.238 34.3166 33.3465 34.3679 33.4864 34.4163C33.6263 34.4648 33.8048 34.5132 34.0218 34.5617C34.4016 34.6472 34.7143 34.7497 34.9599 34.8694C35.2054 34.9891 35.3882 35.1358 35.5081 35.3097C35.628 35.4835 35.688 35.6944 35.688 35.9423C35.688 36.1446 35.6452 36.3298 35.5595 36.4979C35.4767 36.666 35.3553 36.8114 35.1954 36.9339C35.0384 37.0536 34.8499 37.1476 34.63 37.216C34.413 37.2815 34.1689 37.3143 33.8976 37.3143C33.4893 37.3143 33.1438 37.2416 32.8611 37.0963C32.5784 36.951 32.3642 36.7629 32.2186 36.5321C32.0729 36.3013 32.0001 36.0577 32.0001 35.8012H32.7968C32.8082 36.0178 32.8711 36.1902 32.9853 36.3184C33.0995 36.4438 33.2394 36.5335 33.405 36.5877C33.5706 36.639 33.7348 36.6646 33.8976 36.6646C34.1146 36.6646 34.2959 36.6361 34.4416 36.5791C34.5901 36.5221 34.7029 36.4438 34.78 36.344C34.8571 36.2443 34.8956 36.1303 34.8956 36.0021Z" fill="#F1F3F4"/>
<path d="M26.7746 36.4081L27.9653 32.604H28.4879L28.3851 33.3606L27.1729 37.2288H26.6632L26.7746 36.4081ZM25.9736 32.604L26.9887 36.4509L27.0616 37.2288H26.5262L25.1812 32.604H25.9736ZM29.6272 36.4209L30.5952 32.604H31.3834L30.0384 37.2288H29.5073L29.6272 36.4209ZM28.6035 32.604L29.7686 36.344L29.9014 37.2288H29.3959L28.1495 33.352L28.0467 32.604H28.6035Z" fill="#F1F3F4"/>
<path d="M22.8725 37.3143C22.5498 37.3143 22.2571 37.2602 21.9944 37.1519C21.7346 37.0408 21.5104 36.8855 21.322 36.686C21.1363 36.4865 20.9936 36.25 20.8936 35.9765C20.7937 35.7029 20.7437 35.4037 20.7437 35.0789V34.8993C20.7437 34.5232 20.7994 34.1884 20.9108 33.8949C21.0221 33.5985 21.1735 33.3478 21.3648 33.1426C21.5561 32.9374 21.7731 32.7821 22.0158 32.6767C22.2586 32.5713 22.5098 32.5186 22.7697 32.5186C23.1009 32.5186 23.3865 32.5755 23.6263 32.6895C23.8691 32.8035 24.0675 32.9631 24.2217 33.1682C24.3759 33.3706 24.4901 33.6099 24.5644 33.8863C24.6386 34.1599 24.6757 34.4591 24.6757 34.7839V35.1387H21.2149V34.4933H23.8833V34.4334C23.8719 34.2283 23.8291 34.0288 23.7548 33.835C23.6835 33.6413 23.5692 33.4817 23.4122 33.3563C23.2551 33.2309 23.041 33.1682 22.7697 33.1682C22.5898 33.1682 22.4242 33.2067 22.2728 33.2837C22.1215 33.3577 21.9916 33.4689 21.8831 33.617C21.7746 33.7652 21.6903 33.9462 21.6303 34.1599C21.5704 34.3736 21.5404 34.6201 21.5404 34.8993V35.0789C21.5404 35.2983 21.5704 35.5049 21.6303 35.6986C21.6932 35.8895 21.7831 36.0577 21.9002 36.203C22.0201 36.3483 22.1643 36.4623 22.3328 36.5449C22.5041 36.6276 22.6983 36.6689 22.9153 36.6689C23.1952 36.6689 23.4322 36.6119 23.6263 36.4979C23.8205 36.3839 23.9904 36.2315 24.1361 36.0406L24.6158 36.421C24.5158 36.572 24.3888 36.7159 24.2346 36.8527C24.0804 36.9895 23.8905 37.1006 23.6649 37.1861C23.4422 37.2716 23.178 37.3143 22.8725 37.3143Z" fill="#F1F3F4"/>
<path d="M19.6772 32.604V37.2288H18.8805V32.604H19.6772ZM18.8206 31.3773C18.8206 31.249 18.8591 31.1408 18.9362 31.0524C19.0162 30.9641 19.1332 30.9199 19.2874 30.9199C19.4388 30.9199 19.5544 30.9641 19.6344 31.0524C19.7172 31.1408 19.7586 31.249 19.7586 31.3773C19.7586 31.4998 19.7172 31.6052 19.6344 31.6936C19.5544 31.7791 19.4388 31.8218 19.2874 31.8218C19.1332 31.8218 19.0162 31.7791 18.9362 31.6936C18.8591 31.6052 18.8206 31.4998 18.8206 31.3773Z" fill="#F1F3F4"/>
<path d="M15.9765 36.515L17.2443 32.604H18.0539L16.3877 37.2288H15.8566L15.9765 36.515ZM14.9185 32.604L16.2249 36.5364L16.3149 37.2288H15.7837L14.1047 32.604H14.9185Z" fill="#F1F3F4"/>
<path d="M11.8988 37.3143C11.5761 37.3143 11.2834 37.2602 11.0207 37.1519C10.7609 37.0408 10.5367 36.8855 10.3483 36.686C10.1627 36.4865 10.0199 36.25 9.91993 35.9765C9.81999 35.7029 9.77002 35.4037 9.77002 35.0789V34.8993C9.77002 34.5232 9.8257 34.1884 9.93707 33.8949C10.0484 33.5985 10.1998 33.3478 10.3911 33.1426C10.5824 32.9374 10.7994 32.7821 11.0421 32.6767C11.2849 32.5713 11.5361 32.5186 11.796 32.5186C12.1272 32.5186 12.4128 32.5755 12.6527 32.6895C12.8954 32.8035 13.0938 32.9631 13.248 33.1682C13.4022 33.3706 13.5164 33.6099 13.5907 33.8863C13.6649 34.1599 13.702 34.4591 13.702 34.7839V35.1387H10.2412V34.4933H12.9096V34.4334C12.8982 34.2283 12.8554 34.0288 12.7811 33.835C12.7098 33.6413 12.5955 33.4817 12.4385 33.3563C12.2814 33.2309 12.0673 33.1682 11.796 33.1682C11.6161 33.1682 11.4505 33.2067 11.2991 33.2837C11.1478 33.3577 11.0179 33.4689 10.9094 33.617C10.8009 33.7652 10.7166 33.9462 10.6567 34.1599C10.5967 34.3736 10.5667 34.6201 10.5667 34.8993V35.0789C10.5667 35.2983 10.5967 35.5049 10.6567 35.6986C10.7195 35.8895 10.8094 36.0577 10.9265 36.203C11.0464 36.3483 11.1906 36.4623 11.3591 36.5449C11.5304 36.6276 11.7246 36.6689 11.9416 36.6689C12.2215 36.6689 12.4585 36.6119 12.6527 36.4979C12.8468 36.3839 13.0167 36.2315 13.1624 36.0406L13.6421 36.421C13.5421 36.572 13.4151 36.7159 13.2609 36.8527C13.1067 36.9895 12.9168 37.1006 12.6912 37.1861C12.4685 37.2716 12.2043 37.3143 11.8988 37.3143Z" fill="#F1F3F4"/>
<path d="M4.69009 31.0054H6.75462C7.22293 31.0054 7.61841 31.0766 7.94109 31.2191C8.26661 31.3616 8.51361 31.5724 8.68209 31.8517C8.85342 32.1281 8.93908 32.4686 8.93908 32.8732C8.93908 33.1582 8.88055 33.4189 8.76347 33.6554C8.64925 33.8891 8.48363 34.0886 8.26661 34.2538C8.05245 34.4163 7.79545 34.5374 7.49563 34.6171L7.26433 34.7069H5.32402L5.31545 34.0358H6.78032C7.0773 34.0358 7.3243 33.9846 7.52133 33.882C7.71836 33.7765 7.86684 33.6355 7.96678 33.4588C8.06673 33.2821 8.1167 33.087 8.1167 32.8732C8.1167 32.6339 8.06958 32.4244 7.97535 32.2449C7.88112 32.0654 7.73263 31.9272 7.52989 31.8303C7.33001 31.7306 7.07158 31.6807 6.75462 31.6807H5.51676V37.2287H4.69009V31.0054ZM8.33514 37.2287L6.81887 34.4077L7.67981 34.4034L9.2175 37.1774V37.2287H8.33514Z" fill="#F1F3F4"/>
</svg>
