<svg width="16" height="17" viewBox="0 0 16 17" fill="none" xmlns="http://www.w3.org/2000/svg">
<path d="M0.543341 3.57469C1.10262 2.1885 2.08652 1.00875 2.97278 0.661735C3.40061 0.494148 3.56831 0.489207 8.17879 0.506928L12.9427 0.525161L13.3184 0.727509C13.8659 1.02247 14.6407 1.80639 15.0129 2.44214C16.8775 5.62671 15.9784 10.8601 13.3413 12.1728L12.7784 12.453L10.6894 12.4785L8.60038 12.504V14.502V16.5H4.30019H0V11.1436C0 5.18368 0.0229344 4.86444 0.543341 3.57469Z" fill="#E6F7ED"/>
<path fill-rule="evenodd" clip-rule="evenodd" d="M2.97278 0.661735C2.08652 1.00875 1.10262 2.1885 0.543341 3.57469C0.0229344 4.86444 0 5.18368 0 11.1436V16.5H4.30019H8.60038V14.502V12.504L10.6894 12.4785L12.7784 12.453L13.3413 12.1728C15.9784 10.8601 16.8775 5.62671 15.0129 2.44214C14.6407 1.80639 13.8659 1.02247 13.3184 0.727509L12.9427 0.525161L8.17879 0.506928C3.56831 0.489207 3.40061 0.494148 2.97278 0.661735ZM10.0545 1.28931C9.26572 2.00592 8.66572 3.14555 8.32887 4.56692C8.16656 5.25209 8.15375 5.62271 8.11783 10.6852L8.07955 16.074H4.25052H0.421587L0.422683 10.8982C0.423695 6.17616 0.437607 5.65458 0.581537 4.95006C0.765265 4.05045 1.18871 3.07423 1.72378 2.31656C2.17665 1.67535 2.51241 1.37587 3.07759 1.1092C3.49791 0.910857 3.5098 0.910261 6.98637 0.909409L10.4736 0.908557L10.0545 1.28931ZM13.1356 1.1685C15.2448 2.23357 16.207 6.09097 15.1381 9.19681C14.7351 10.3677 13.9235 11.4176 13.1114 11.8188C12.5017 12.12 11.5931 12.1105 11.0034 11.7968C9.87542 11.1966 8.98275 9.68722 8.67761 7.86387C8.5481 7.09001 8.62516 5.03501 8.80906 4.35912C8.88554 4.07797 9.11657 3.49495 9.32238 3.06358C10.219 1.1846 11.7049 0.446181 13.1356 1.1685ZM11.5093 3.85381C11.096 4.07064 10.8226 4.38698 10.5685 4.94265C10.3491 5.42249 10.3289 5.54944 10.3289 6.44829C10.3289 7.38915 10.3406 7.4539 10.6108 8.00837C11.5695 9.9763 13.6047 9.23499 13.8727 6.82019C13.9775 5.87678 13.6469 4.75598 13.0992 4.19741C12.6438 3.73308 12.0035 3.59463 11.5093 3.85381ZM12.7845 4.49715C13.5713 5.26769 13.6792 7.08899 12.9985 8.10788C12.6841 8.57835 12.2395 8.79272 11.8484 8.66228C11.1248 8.42099 10.6631 7.42127 10.725 6.22993C10.8125 4.54358 11.8988 3.62965 12.7845 4.49715ZM9.54498 11.1118C9.73284 11.3581 10.0409 11.6743 10.2297 11.8146L10.5729 12.0696H9.58664H8.60038V10.7301V9.39064L8.90198 10.0273C9.06783 10.3774 9.35721 10.8654 9.54498 11.1118Z" fill="#149A52"/>
<path d="M8 6.1665L0.666666 6.1665" stroke="#149A52" stroke-width="0.75" stroke-dasharray="2 2"/>
</svg>
