<svg xmlns="http://www.w3.org/2000/svg" width="132" height="175" fill="none"><path d="M113.482 126.591H99.13V48.439a33.377 33.377 0 0 0-66.753 0v78.152H17.912V48.439a47.729 47.729 0 1 1 95.458 0l.112 78.152Z" fill="#A1AFC5"/><path d="M113.482 126.591H99.13V48.439a33.377 33.377 0 0 0-66.753 0v78.152H17.912V48.439a47.729 47.729 0 1 1 95.458 0l.112 78.152Z" fill="#7788A3"/><path d="M121.666 92H9.837a8.41 8.41 0 0 0-8.41 8.41v65.706a8.41 8.41 0 0 0 8.41 8.41h111.829a8.41 8.41 0 0 0 8.409-8.41V100.41a8.41 8.41 0 0 0-8.409-8.41Z" fill="#CAD3E2"/><path d="M76.516 122.368a10.763 10.763 0 0 0-17.23-8.689 10.764 10.764 0 0 0 3.55 18.967v16.072h5.832v-16.072a10.686 10.686 0 0 0 7.848-10.278Z" fill="#A1AFC5"/><path d="M8.305 166.546c-.3 0-.56-13.754-.56-30.723 0-16.968.26-30.76.56-30.76.299 0 .523 13.754.523 30.76s-.262 30.723-.523 30.723Z" fill="#FAFAFA"/><path d="M130.517 169c-.276 0-.517-15.883-.517-35.478 0-19.596.241-35.522.517-35.522s.483 15.883.483 35.522c0 19.638-.241 35.478-.483 35.478ZM9 174.517c0-.276 25.503-.517 56.965-.517 31.463 0 57.035.241 57.035.517S97.497 175 65.965 175C34.433 175 9 174.759 9 174.517ZM9 92.517C9 92.241 34.503 92 65.965 92c31.463 0 57.035.241 57.035.517S97.497 93 65.965 93C34.433 93 9 92.759 9 92.517Z" fill="#7B818C"/><path d="M57.342 136.122s-.523 0-1.271-.71a13 13 0 0 1-2.766-2.803 14.948 14.948 0 0 1 5.345-22.612 12.761 12.761 0 0 1 3.738-1.308 3.926 3.926 0 0 1 1.457 0 37.718 37.718 0 0 0-4.821 2.018 14.942 14.942 0 0 0-7.324 9.631 14.953 14.953 0 0 0 2.203 11.897 32.233 32.233 0 0 0 3.439 3.887Z" fill="#FAFAFA"/></svg>