<svg width="24" height="24" viewBox="0 0 24 24" fill="none" xmlns="http://www.w3.org/2000/svg">
<path d="M7.2 12.6C6.86863 12.6 6.6 12.3314 6.6 12C6.6 11.6686 6.86863 11.4 7.2 11.4C7.53137 11.4 7.8 11.6686 7.8 12C7.8 12.3314 7.53137 12.6 7.2 12.6Z" fill="#1B459B"/>
<path d="M12 12.6C11.6686 12.6 11.4 12.3314 11.4 12C11.4 11.6686 11.6686 11.4 12 11.4C12.3314 11.4 12.6 11.6686 12.6 12C12.6 12.3314 12.3314 12.6 12 12.6Z" fill="#1B459B"/>
<path d="M16.8 12.6C16.4686 12.6 16.2 12.3314 16.2 12C16.2 11.6686 16.4686 11.4 16.8 11.4C17.1314 11.4 17.4 11.6686 17.4 12C17.4 12.3314 17.1314 12.6 16.8 12.6Z" fill="#1B459B"/>
<path d="M12 20.25C7.44365 20.25 3.75 16.5563 3.75 12H2.25C2.25 17.3848 6.61522 21.75 12 21.75V20.25ZM3.75 12C3.75 7.44365 7.44365 3.75 12 3.75V2.25C6.61522 2.25 2.25 6.61522 2.25 12H3.75ZM12 3.75C16.5563 3.75 20.25 7.44365 20.25 12H21.75C21.75 6.61522 17.3848 2.25 12 2.25V3.75ZM20.25 12C20.25 16.5563 16.5563 20.25 12 20.25V21.75C17.3848 21.75 21.75 17.3848 21.75 12H20.25ZM7.2 11.85C7.28284 11.85 7.35 11.9172 7.35 12H5.85C5.85 12.7456 6.45442 13.35 7.2 13.35V11.85ZM7.05 12C7.05 11.9172 7.11716 11.85 7.2 11.85V13.35C7.94558 13.35 8.55 12.7456 8.55 12H7.05ZM7.2 12.15C7.11716 12.15 7.05 12.0828 7.05 12H8.55C8.55 11.2544 7.94558 10.65 7.2 10.65V12.15ZM7.2 10.65C6.45442 10.65 5.85 11.2544 5.85 12H7.35C7.35 12.0828 7.28284 12.15 7.2 12.15V10.65ZM16.8 11.85C16.8828 11.85 16.95 11.9172 16.95 12H15.45C15.45 12.7456 16.0544 13.35 16.8 13.35V11.85ZM16.65 12C16.65 11.9172 16.7172 11.85 16.8 11.85V13.35C17.5456 13.35 18.15 12.7456 18.15 12H16.65ZM16.8 12.15C16.7172 12.15 16.65 12.0828 16.65 12H18.15C18.15 11.2544 17.5456 10.65 16.8 10.65V12.15ZM16.8 10.65C16.0544 10.65 15.45 11.2544 15.45 12H16.95C16.95 12.0828 16.8828 12.15 16.8 12.15V10.65ZM12 11.85C12.0828 11.85 12.15 11.9172 12.15 12H10.65C10.65 12.7456 11.2544 13.35 12 13.35V11.85ZM11.85 12C11.85 11.9172 11.9172 11.85 12 11.85V13.35C12.7456 13.35 13.35 12.7456 13.35 12H11.85ZM12 12.15C11.9172 12.15 11.85 12.0828 11.85 12H13.35C13.35 11.2544 12.7456 10.65 12 10.65V12.15ZM12 10.65C11.2544 10.65 10.65 11.2544 10.65 12H12.15C12.15 12.0828 12.0828 12.15 12 12.15V10.65Z" fill="#1B459B"/>
</svg>
