<svg width="40" height="40" viewBox="0 0 40 40" fill="none" xmlns="http://www.w3.org/2000/svg">
<rect width="40" height="40" rx="20" fill="#F4F8FF"/>
<path d="M12.0978 22.6935L12.5036 22.2878C12.6345 22.1569 12.7082 21.9793 12.7082 21.7942V17.9167C12.7082 13.8896 15.9728 10.625 19.9998 10.625C24.0269 10.625 27.2915 13.8896 27.2915 17.9167V21.7942C27.2915 21.9793 27.3651 22.1569 27.496 22.2878L27.9017 22.6936C28.026 22.8178 28.0883 22.88 28.1378 22.9489C28.2314 23.0793 28.2935 23.2295 28.3194 23.3878C28.3332 23.4716 28.3334 23.5595 28.3334 23.7352C28.3334 24.1368 28.3334 24.3377 28.2787 24.4996C28.1748 24.8078 27.9328 25.0497 27.6246 25.1537C27.4626 25.2083 27.2615 25.2083 26.8599 25.2083H13.1395C12.7379 25.2083 12.537 25.2083 12.375 25.1537C12.0668 25.0497 11.8251 24.8078 11.7211 24.4996C11.6665 24.3376 11.6665 24.1369 11.6665 23.7352C11.6665 23.5595 11.6665 23.4716 11.6803 23.3878C11.7062 23.2295 11.7682 23.0793 11.8618 22.9489C11.9113 22.88 11.9735 22.8178 12.0978 22.6935ZM23.1248 25.2083V26.25C23.1248 27.9759 21.7257 29.375 19.9998 29.375C18.2739 29.375 16.8748 27.9759 16.8748 26.25V25.2083H23.1248Z" stroke="#1B459B" stroke-width="1.5" stroke-linecap="round" stroke-linejoin="round"/>
</svg>
