<svg width="30" height="40" viewBox="0 0 30 40" fill="none" xmlns="http://www.w3.org/2000/svg">
<path fill-rule="evenodd" clip-rule="evenodd" d="M0 33.325C0 38.7676 0.00321436 38.8888 0.154515 39.1336C0.483138 39.6653 -0.615995 39.6287 15 39.6287C30.616 39.6287 29.5169 39.6653 29.8455 39.1336C29.9968 38.8888 30 38.7676 30 33.325V27.7664H15H0V33.325Z" fill="#EAEFFF"/>
<path d="M15 27.7664H30V8.97981H21.5434V0.446648L0 0.370117V27.7664H15Z" fill="#EAEFFF"/>
<path d="M30 8.97981L21.5434 0.446648V8.97981H30Z" fill="#90A3BF"/>
<path d="M30 8.97981L21.5434 0.446648V8.97981H30Z" fill="#B2BDD0"/>
<path fill-rule="evenodd" clip-rule="evenodd" d="M14.2612 5.49067C13.6586 5.76426 13.3427 6.66618 13.4764 7.73102C13.5719 8.49097 13.7424 9.10084 14.1275 10.0586L14.4695 10.9094L14.246 11.704C13.6744 13.7365 12.9533 15.7817 12.1498 17.6488L11.8107 18.4367L10.9792 18.8574C9.36666 19.673 8.15878 20.6518 7.80635 21.4284C7.4723 22.1645 7.72531 23.0311 8.40612 23.482C9.48589 24.1973 10.6922 23.1575 12.1812 20.2282C12.438 19.7231 12.6546 19.3015 12.6625 19.2914C12.6706 19.2813 13.2083 19.0682 13.8576 18.8179C15.1929 18.303 17.2626 17.6615 18.232 17.4619L18.8817 17.3282L19.2941 17.6785C20.9176 19.0576 22.2499 19.266 23.139 18.2799C23.4594 17.9246 23.7201 17.4196 23.7228 17.1493C23.7264 16.7819 23.4839 16.3634 23.1559 16.1711C22.5495 15.8158 21.6112 15.7775 19.6242 16.0267L19.2356 16.0755L18.7439 15.5115C17.8342 14.4682 16.7622 12.8763 16.0352 11.4893L15.6667 10.7861L15.8659 9.80562C16.2874 7.7311 16.3171 6.63931 15.9667 6.10965C15.865 5.95613 15.6722 5.72079 15.5382 5.58671C15.3328 5.38146 15.2379 5.34319 14.9367 5.34465C14.74 5.34556 14.436 5.4113 14.2612 5.49067ZM15.0508 6.85352C15.1916 7.19064 15.1603 8.23704 14.9992 8.57577C14.9161 8.75064 14.8802 8.76977 14.7846 8.69056C14.432 8.39891 14.2893 7.5635 14.5042 7.04921C14.7386 6.48794 14.8773 6.43834 15.0508 6.85352ZM16.0996 13.8296C16.5617 14.5518 17.1438 15.3578 17.5835 15.8841C17.9002 16.2632 17.9452 16.4399 17.725 16.4399C17.5085 16.4399 15.2842 17.0874 14.3989 17.408C13.879 17.5964 13.4371 17.7341 13.417 17.7141C13.397 17.6941 13.6032 17.0978 13.8754 16.3892C14.1475 15.6805 14.5472 14.5496 14.7635 13.8761C14.9798 13.2027 15.1756 12.6 15.1987 12.5368C15.2269 12.4593 15.3195 12.556 15.4838 12.8347C15.6176 13.0616 15.8947 13.5093 16.0996 13.8296ZM22.4574 17.0777C22.5897 17.1745 22.5851 17.1932 22.3701 17.4339C22.1777 17.6492 22.0798 17.6932 21.7284 17.722C21.336 17.7542 21.2897 17.7382 20.8662 17.4239C20.45 17.1151 20.4312 17.0883 20.5984 17.0414C20.9477 16.9432 22.3098 16.9699 22.4574 17.0777ZM10.7413 20.5534C10.3828 21.177 9.98319 21.7429 9.6039 22.1645C9.19431 22.6198 8.98247 22.6606 8.81778 22.3158C8.68974 22.048 8.82719 21.7616 9.30788 21.2944C9.63168 20.9798 10.7615 20.1911 10.8897 20.1903C10.9231 20.1901 10.8562 20.3534 10.7413 20.5534ZM0 33.325C0 38.7676 0.00321436 38.8888 0.154515 39.1336C0.483138 39.6653 -0.615995 39.6287 15 39.6287C30.616 39.6287 29.5169 39.6653 29.8455 39.1336C29.9968 38.8888 30 38.7676 30 33.325V27.7664H15H0V33.325ZM9.29916 30.6039C9.71847 30.7334 9.89548 30.8429 10.2575 31.197C10.6203 31.5518 10.7254 31.714 10.8318 32.0838C11.1344 33.1353 10.6701 34.2457 9.72658 34.727C9.38395 34.9018 8.6452 35.0355 8.01658 35.0362L7.57653 35.0368V36.2996V37.5624H7.00255H6.42857V34.0037V30.445H7.60676C8.58298 30.445 8.87304 30.4722 9.29916 30.6039ZM15.1148 30.5239C16.1827 30.6751 17.2146 31.4117 17.6304 32.3198C18.2687 33.7142 17.9722 35.7201 16.9812 36.7111C16.2731 37.4192 15.7383 37.5603 13.7564 37.5614L12.2449 37.5624V34.0037V30.445L13.412 30.4465C14.0539 30.4474 14.8202 30.4822 15.1148 30.5239ZM24.0306 30.9042V31.3634H22.4235H20.8163V32.4348V33.5062H22.2704H23.7245V33.9271V34.3481H22.2704H20.8163V35.9552V37.5624H20.2041H19.5918V34.0037V30.445H21.8112H24.0306V30.9042ZM7.57653 32.7395V34.1368L8.30265 34.105C9.105 34.0699 9.32862 33.9679 9.59281 33.5169C9.79324 33.1746 9.79355 32.3081 9.59334 31.9654C9.35992 31.5656 9.04056 31.4256 8.26041 31.3811L7.57653 31.3422V32.7395ZM13.4694 34.0117V36.6601L14.3686 36.6298C15.5709 36.5893 15.968 36.3867 16.3691 35.609C16.6878 34.9914 16.7906 33.5864 16.5711 32.8505C16.2818 31.8809 15.3423 31.3712 13.8329 31.3649L13.4694 31.3634V34.0117Z" fill="#1644CD"/>
</svg>
