<svg width="18" height="24" viewBox="0 0 18 24" fill="none" xmlns="http://www.w3.org/2000/svg">
<path d="M17.8971 5.67656L12.3189 0.09375H0.998633C0.501758 0.09375 0.0986328 0.496875 0.0986328 0.99375V16.9641H17.8971V5.67656Z" fill="#EFF3F5"/>
<path d="M12.3193 4.77656C12.3193 5.27344 12.7225 5.67656 13.2193 5.67656H17.9021L12.3193 0.09375V4.77656Z" fill="#DBDFE0"/>
<path d="M0.103516 16.9594V23.0063C0.103516 23.5031 0.506641 23.9063 1.00352 23.9063H17.002C17.4988 23.9063 17.902 23.5031 17.902 23.0063V16.9594H0.103516Z" fill="#D05548"/>
<path d="M4.43505 15.9375C4.14912 15.9375 3.87255 15.8297 3.61943 15.6187C3.19287 15.2625 3.16005 14.8687 3.20224 14.6016C3.40849 13.3969 5.64912 12.2953 6.95224 11.7516C7.66005 9.97968 8.27412 7.89374 8.6538 6.32812C7.89443 4.70156 7.62724 3.55312 7.86162 2.90156C7.9788 2.57812 8.21787 2.36718 8.55537 2.29218L8.60224 2.28281L8.64912 2.28749C8.68662 2.29218 9.01943 2.34374 9.2913 2.70937C9.64287 3.18749 9.72255 3.96093 9.52568 5.01093C9.46943 5.31093 9.37568 5.74218 9.2538 6.25781C9.94755 7.70156 10.9226 9.29531 11.7194 10.4016C12.3851 10.3078 13.0179 10.275 13.5522 10.3312C14.5507 10.4344 14.7616 10.8703 14.7991 11.1234C14.8554 11.4937 14.5835 11.8781 14.1194 12.075C13.4772 12.3469 12.4272 12.2766 11.5741 11.1703C11.5366 11.1234 11.4991 11.0719 11.4616 11.0203C10.3647 11.2031 9.08974 11.55 7.79599 12.0328C7.66005 12.0844 7.5288 12.1359 7.39755 12.1875C6.52099 14.3344 5.66318 15.5672 4.84287 15.8625C4.71162 15.9141 4.57099 15.9375 4.43505 15.9375ZM6.63818 12.5109C4.77724 13.35 3.8538 14.1797 3.76943 14.7C3.75068 14.8125 3.75068 14.9859 3.98974 15.1828C4.21005 15.3656 4.42099 15.4125 4.65537 15.3281C5.30693 15.0937 6.00068 13.9687 6.63818 12.5109ZM12.1226 10.9312C12.7554 11.6766 13.4679 11.7375 13.8991 11.55C14.1241 11.4562 14.2507 11.2969 14.2366 11.2078C14.2226 11.1141 14.0116 10.9547 13.496 10.9031C13.1116 10.8656 12.6476 10.875 12.1226 10.9312ZM9.04755 7.11562C8.76162 8.21718 8.37255 9.54374 7.91787 10.8281C7.83818 11.0484 7.76318 11.2594 7.68349 11.4656C8.70068 11.0906 9.9288 10.725 11.096 10.5047C10.4679 9.60937 9.69443 8.36718 9.04755 7.11562ZM8.62568 2.87343C8.51787 2.91093 8.44755 2.98124 8.40537 3.10312C8.2413 3.55312 8.45693 4.40156 8.87412 5.40468C8.91162 5.22656 8.94443 5.06249 8.97255 4.91249C9.18818 3.74531 8.98193 3.24374 8.83662 3.05156C8.75693 2.94374 8.67255 2.89218 8.62568 2.87343Z" fill="#D05548"/>
<path d="M13.2385 20.0719H12.165V18.9797H13.2385C13.44 18.9797 13.6041 18.8156 13.6041 18.6141C13.6041 18.4125 13.44 18.2484 13.2385 18.2484H11.8041C11.6025 18.2484 11.4385 18.4125 11.4385 18.6141V22.2516C11.4385 22.4531 11.6025 22.6172 11.8041 22.6172C12.0057 22.6172 12.1697 22.4531 12.1697 22.2516V20.7984H13.2432C13.4447 20.7984 13.6088 20.6344 13.6088 20.4328C13.6041 20.2313 13.44 20.0719 13.2385 20.0719Z" fill="#EFF3F5"/>
<path d="M5.50371 18.2531H4.76309C4.56152 18.2531 4.39746 18.4172 4.39746 18.6188V22.2563C4.39746 22.4578 4.56152 22.6219 4.76309 22.6219C4.96465 22.6219 5.12871 22.4578 5.12871 22.2563V20.8031H5.50371C6.20684 20.8031 6.77871 20.2313 6.77871 19.5281C6.77871 18.825 6.20684 18.2531 5.50371 18.2531ZM5.50371 20.0719H5.12871V18.9797H5.50371C5.80371 18.9797 6.04746 19.2235 6.04746 19.5235C6.04746 19.8235 5.80371 20.0719 5.50371 20.0719Z" fill="#EFF3F5"/>
<path d="M8.64414 18.2531H7.68789C7.48633 18.2531 7.32227 18.4172 7.32227 18.6188V22.2563C7.32227 22.4578 7.48633 22.6219 7.68789 22.6219H8.64414C9.84883 22.6219 10.8285 21.6422 10.8285 20.4375C10.8285 19.2281 9.84883 18.2531 8.64414 18.2531ZM8.64414 21.886H8.05352V18.975H8.64414C9.4457 18.975 10.0973 19.6266 10.0973 20.4281C10.102 21.2344 9.4457 21.886 8.64414 21.886Z" fill="#EFF3F5"/>
</svg>
