<svg width="17" height="17" viewBox="0 0 17 17" fill="none" xmlns="http://www.w3.org/2000/svg">
<path d="M2.50684 7.98047V10.9738C2.50684 13.9671 3.70684 15.1671 6.70017 15.1671H10.2935C13.2868 15.1671 14.4868 13.9671 14.4868 10.9738V7.98047" stroke="#5A5C81" stroke-linecap="round" stroke-linejoin="round"/>
<path d="M8.49999 8.50065C9.71999 8.50065 10.62 7.50732 10.5 6.28732L10.06 1.83398H6.94666L6.49999 6.28732C6.37999 7.50732 7.27999 8.50065 8.49999 8.50065Z" stroke="#5A5C81" stroke-linecap="round" stroke-linejoin="round"/>
<path d="M12.7065 8.50065C14.0532 8.50065 15.0399 7.40732 14.9065 6.06732L14.7199 4.23398C14.4799 2.50065 13.8132 1.83398 12.0665 1.83398H10.0332L10.4999 6.50732C10.6132 7.60732 11.6065 8.50065 12.7065 8.50065Z" stroke="#5A5C81" stroke-linecap="round" stroke-linejoin="round"/>
<path d="M4.25992 8.50065C5.35992 8.50065 6.35325 7.60732 6.45992 6.50732L6.60659 5.03398L6.92659 1.83398H4.89326C3.14659 1.83398 2.47992 2.50065 2.23992 4.23398L2.05992 6.06732C1.92659 7.40732 2.91326 8.50065 4.25992 8.50065Z" stroke="#5A5C81" stroke-linecap="round" stroke-linejoin="round"/>
<path d="M8.49967 11.834C7.38634 11.834 6.83301 12.3873 6.83301 13.5007V15.1673H10.1663V13.5007C10.1663 12.3873 9.61301 11.834 8.49967 11.834Z" stroke="#5A5C81" stroke-linecap="round" stroke-linejoin="round"/>
</svg>
