<svg width="20" height="21" viewBox="0 0 20 21" fill="none" xmlns="http://www.w3.org/2000/svg">
<path d="M18 8.90001H18.6H18ZM18 12.2778H17.4H17.4H18ZM17.8646 13.847L17.3103 13.6174L17.8646 13.847ZM15.3333 14.3445C15.002 14.3445 14.7333 14.6131 14.7333 14.9445C14.7333 15.2758 15.002 15.5445 15.3333 15.5445L15.3333 14.3445ZM16.9026 14.8091L16.6729 14.2548L16.9026 14.8091ZM17.0291 6.24932L17.3015 5.71472H17.3015L17.0291 6.24932ZM17.8064 7.02626L18.341 6.75386L17.8064 7.02626ZM2.19377 7.02626L1.65916 6.75386L1.65916 6.75386L2.19377 7.02626ZM2.97049 6.24932L3.24288 6.78393H3.24288L2.97049 6.24932ZM4.66687 15.5445C4.99824 15.5445 5.26687 15.2758 5.26687 14.9445C5.26687 14.6131 4.99824 14.3445 4.66687 14.3445L4.66687 15.5445ZM3.09766 14.8091L2.86805 15.3635L3.09766 14.8091ZM2.13533 13.847L2.68965 13.6174H2.68965L2.13533 13.847ZM12.6667 18.5V19.1V18.5ZM7.33333 18.5V17.9V17.9V18.5ZM15.3332 15.8333H15.9332H15.3332ZM15.1979 17.4025L15.7522 17.6322L15.1979 17.4025ZM14.2359 18.3647L14.0063 17.8104V17.8104L14.2359 18.3647ZM14.2359 13.302L14.4655 12.7477L14.2359 13.302ZM15.1979 14.2641L14.6436 14.4937L15.1979 14.2641ZM4.80199 14.2641L4.24766 14.0345L4.80199 14.2641ZM5.76432 13.302L5.99393 13.8563L5.76432 13.302ZM4.80199 17.4025L5.35632 17.1729V17.1729L4.80199 17.4025ZM5.76432 18.3647L5.99393 17.8104L5.76432 18.3647ZM8.22222 9.01111C7.89085 9.01111 7.62222 9.27974 7.62222 9.61111C7.62222 9.94248 7.89085 10.2111 8.22222 10.2111V9.01111ZM11.7778 10.2111C12.1091 10.2111 12.3778 9.94248 12.3778 9.61111C12.3778 9.27974 12.1091 9.01111 11.7778 9.01111V10.2111ZM4.66667 6.05557H4.06667C4.06667 6.2147 4.12988 6.36731 4.2424 6.47983C4.35492 6.59235 4.50754 6.65557 4.66667 6.65557V6.05557ZM15.3333 5.34446H15.9333H15.3333ZM15.3333 6.05557V6.65557C15.6647 6.65557 15.9333 6.38694 15.9333 6.05557H15.3333ZM14.3625 2.69377L14.6349 2.15916V2.15916L14.3625 2.69377ZM15.1398 3.4707L15.6744 3.19831L15.1398 3.4707ZM4.86043 3.4707L4.32583 3.19831V3.19831L4.86043 3.4707ZM5.63715 2.69377L5.90955 3.22837L5.90955 3.22837L5.63715 2.69377ZM2.6 12.2778V8.90001H1.4V12.2778H2.6ZM4.84462 6.65556H15.1557V5.45556H4.84462V6.65556ZM17.4 8.90001V12.2778H18.6V8.90001H17.4ZM17.4 12.2778C17.4 12.7001 17.3997 12.9869 17.3844 13.2096C17.3696 13.427 17.3426 13.5393 17.3103 13.6174L18.4189 14.0766C18.5219 13.828 18.5626 13.5699 18.5816 13.2914C18.6003 13.0183 18.6 12.6838 18.6 12.2778H17.4ZM15.3333 15.5445C15.7393 15.5445 16.0738 15.5448 16.3469 15.5262C16.6254 15.5072 16.8835 15.4665 17.1322 15.3635L16.6729 14.2548C16.5949 14.2871 16.4826 14.3141 16.2652 14.3289C16.0424 14.3441 15.7557 14.3445 15.3333 14.3445L15.3333 15.5445ZM17.3103 13.6174C17.1907 13.906 16.9615 14.1353 16.6729 14.2548L17.1322 15.3635C17.7148 15.1221 18.1776 14.6592 18.4189 14.0766L17.3103 13.6174ZM15.1557 6.65556C15.6635 6.65556 16.0081 6.65602 16.2743 6.67778C16.5335 6.69897 16.6653 6.73731 16.7567 6.78393L17.3015 5.71472C17.0127 5.56757 16.7056 5.50903 16.3721 5.48177C16.0456 5.45509 15.6436 5.45556 15.1557 5.45556V6.65556ZM18.6 8.90001C18.6 8.41215 18.6005 8.01012 18.5739 7.68361C18.5467 7.35009 18.4882 7.04276 18.341 6.75386L17.2718 7.29865C17.3184 7.39005 17.3567 7.52177 17.3779 7.78114C17.3996 8.04752 17.4 8.39223 17.4 8.90001H18.6ZM16.7567 6.78393C16.9786 6.89697 17.159 7.07729 17.2718 7.29865L18.341 6.75386C18.1129 6.30621 17.7487 5.94256 17.3015 5.71472L16.7567 6.78393ZM2.6 8.90001C2.6 8.39229 2.60047 8.04758 2.62223 7.78123C2.64342 7.52189 2.68177 7.39012 2.72837 7.29865L1.65916 6.75386C1.512 7.04269 1.45347 7.34996 1.42621 7.68352C1.39953 8.01006 1.4 8.41209 1.4 8.90001H2.6ZM4.84462 5.45556C4.35669 5.45556 3.95458 5.45509 3.62795 5.48177C3.29435 5.50902 2.98695 5.56754 2.69809 5.71472L3.24288 6.78393C3.33431 6.73734 3.46615 6.69898 3.72564 6.67778C3.99209 6.65602 4.3369 6.65556 4.84462 6.65556V5.45556ZM2.72837 7.29865C2.84137 7.07689 3.02142 6.89676 3.24288 6.78393L2.69809 5.71472C2.25053 5.94276 1.88705 6.30661 1.65916 6.75386L2.72837 7.29865ZM4.66687 14.3445C4.24449 14.3445 3.95775 14.3441 3.73499 14.3289C3.51762 14.3141 3.40532 14.2871 3.32727 14.2548L2.86805 15.3635C3.11669 15.4665 3.37484 15.5072 3.65331 15.5262C3.92639 15.5448 4.26091 15.5445 4.66687 15.5445L4.66687 14.3445ZM1.4 12.2778C1.4 12.6838 1.39968 13.0183 1.41831 13.2913C1.43731 13.5698 1.47801 13.828 1.581 14.0766L2.68965 13.6174C2.65732 13.5393 2.63036 13.427 2.61552 13.2097C2.60032 12.9869 2.6 12.7002 2.6 12.2778H1.4ZM3.32727 14.2548C3.03856 14.1352 2.80914 13.9059 2.68965 13.6174L1.581 14.0766C1.82237 14.6593 2.28554 15.1222 2.86805 15.3635L3.32727 14.2548ZM7.33333 13.7667H12.6667V12.5667H7.33333V13.7667ZM12.6667 17.9H7.33333V19.1H12.6667V17.9ZM14.7332 15.8333C14.7332 16.2557 14.7329 16.5424 14.7177 16.7652C14.7029 16.9826 14.6759 17.0949 14.6436 17.1729L15.7522 17.6322C15.8552 17.3835 15.8959 17.1254 15.9149 16.8469C15.9336 16.5738 15.9332 16.2393 15.9332 15.8333H14.7332ZM12.6667 19.1C13.0726 19.1 13.4071 19.1003 13.6802 19.0817C13.9587 19.0627 14.2168 19.022 14.4655 18.919L14.0063 17.8104C13.9282 17.8427 13.8159 17.8697 13.5986 17.8845C13.3758 17.8997 13.0891 17.9 12.6667 17.9V19.1ZM14.6436 17.1729C14.524 17.4616 14.2948 17.6909 14.0063 17.8104L14.4655 18.919C15.0482 18.6777 15.5109 18.2147 15.7522 17.6322L14.6436 17.1729ZM12.6667 13.7667C13.089 13.7667 13.3758 13.767 13.5985 13.7822C13.8159 13.797 13.9282 13.824 14.0063 13.8563L14.4655 12.7477C14.2168 12.6447 13.9587 12.604 13.6802 12.585C13.4071 12.5663 13.0726 12.5667 12.6667 12.5667V13.7667ZM15.9332 15.8333C15.9332 15.4274 15.9336 15.0929 15.9149 14.8198C15.8959 14.5413 15.8552 14.2831 15.7522 14.0345L14.6436 14.4937C14.6759 14.5718 14.7029 14.6841 14.7177 14.9014C14.7329 15.1242 14.7332 15.411 14.7332 15.8333H15.9332ZM14.0063 13.8563C14.2948 13.9758 14.524 14.2051 14.6436 14.4937L15.7522 14.0345C15.5109 13.4519 15.0482 12.989 14.4655 12.7477L14.0063 13.8563ZM5.26667 15.8333C5.26667 15.4109 5.26699 15.1242 5.28219 14.9014C5.29702 14.6841 5.32399 14.5718 5.35632 14.4937L4.24766 14.0345C4.14467 14.2831 4.10397 14.5413 4.08497 14.8198C4.06634 15.0928 4.06667 15.4274 4.06667 15.8333H5.26667ZM7.33333 12.5667C6.92738 12.5667 6.5929 12.5663 6.31986 12.585C6.04142 12.604 5.78334 12.6447 5.53471 12.7477L5.99393 13.8563C6.07201 13.824 6.18427 13.797 6.40157 13.7822C6.62427 13.767 6.91095 13.7667 7.33333 13.7667V12.5667ZM5.35632 14.4937C5.4758 14.2053 5.70521 13.9759 5.99393 13.8563L5.53471 12.7477C4.95222 12.9889 4.48905 13.4517 4.24766 14.0345L5.35632 14.4937ZM4.06667 15.8333C4.06667 16.2393 4.06634 16.5738 4.08497 16.8469C4.10397 17.1254 4.14467 17.3835 4.24766 17.6322L5.35632 17.1729C5.32399 17.0949 5.29702 16.9826 5.28219 16.7652C5.26699 16.5424 5.26667 16.2557 5.26667 15.8333H4.06667ZM7.33333 17.9C6.91094 17.9 6.62427 17.8997 6.40156 17.8845C6.18426 17.8697 6.072 17.8427 5.99393 17.8104L5.53471 18.919C5.78335 19.022 6.04143 19.0627 6.31987 19.0817C6.59291 19.1003 6.92738 19.1 7.33333 19.1V17.9ZM4.24766 17.6322C4.48904 18.2149 4.95221 18.6777 5.53471 18.919L5.99393 17.8104C5.70523 17.6908 5.47581 17.4614 5.35632 17.1729L4.24766 17.6322ZM8.22222 10.2111H11.7778V9.01111H8.22222V10.2111ZM5.26667 6.05557V5.34446H4.06667V6.05557H5.26667ZM7.51128 3.1H12.4891V1.9H7.51128V3.1ZM14.7333 5.34446V6.05557H15.9333V5.34446H14.7333ZM15.3333 5.45557L4.66667 5.45557V6.65557L15.3333 6.65557V5.45557ZM12.4891 3.1C12.9968 3.1 13.3414 3.10047 13.6077 3.12223C13.8669 3.14341 13.9986 3.18175 14.0901 3.22837L14.6349 2.15916C14.3461 2.01202 14.0389 1.95347 13.7054 1.92621C13.3789 1.89953 12.977 1.9 12.4891 1.9V3.1ZM15.9333 5.34446C15.9333 4.85659 15.9338 4.45456 15.9072 4.12805C15.88 3.79453 15.8216 3.4872 15.6744 3.19831L14.6052 3.7431C14.6517 3.83449 14.69 3.96621 14.7112 4.22558C14.7329 4.49197 14.7333 4.83667 14.7333 5.34446L15.9333 5.34446ZM14.0901 3.22837C14.3119 3.34141 14.4924 3.52173 14.6052 3.7431L15.6744 3.19831C15.4463 2.75066 15.082 2.387 14.6349 2.15916L14.0901 3.22837ZM5.26667 5.34446C5.26667 4.83673 5.26713 4.49202 5.28889 4.22568C5.31008 3.96634 5.34843 3.83456 5.39504 3.7431L4.32583 3.19831C4.17867 3.48713 4.12013 3.79441 4.09288 4.12796C4.0662 4.45451 4.06667 4.85653 4.06667 5.34446H5.26667ZM7.51128 1.9C7.02336 1.9 6.62125 1.89953 6.29461 1.92621C5.96102 1.95346 5.65362 2.01198 5.36476 2.15916L5.90955 3.22837C6.00098 3.18179 6.13282 3.14342 6.3923 3.12223C6.65875 3.10047 7.00357 3.1 7.51128 3.1V1.9ZM5.39504 3.7431C5.50803 3.52133 5.68809 3.34121 5.90955 3.22837L5.36476 2.15916C4.9172 2.38721 4.55372 2.75106 4.32583 3.19831L5.39504 3.7431Z" fill="#1B459B"/>
</svg>
