<svg width="18" height="18" viewBox="0 0 18 18" fill="none" xmlns="http://www.w3.org/2000/svg">
<g clip-path="url(#clip0_5711_10476)">
<path d="M11.1429 15.4284H4.71428C4.14596 15.4284 3.60092 15.2027 3.19905 14.8008C2.79719 14.3989 2.57143 13.8539 2.57143 13.2856V12.5713H9.71428V13.9999C9.71428 14.3787 9.86479 14.7421 10.1327 15.01C10.4006 15.2779 10.764 15.4284 11.1429 15.4284ZM11.1429 15.4284C11.5217 15.4284 11.8851 15.2779 12.153 15.01C12.4209 14.7421 12.5714 14.3787 12.5714 13.9999V3.99986C12.5714 3.71732 12.6552 3.44112 12.8122 3.20619C12.9692 2.97126 13.1923 2.78816 13.4533 2.68003C13.7143 2.57191 14.0016 2.54362 14.2787 2.59874C14.5558 2.65386 14.8104 2.78992 15.0101 2.98971C15.2099 3.1895 15.346 3.44404 15.4011 3.72116C15.4562 3.99828 15.428 4.28551 15.3198 4.54655C15.2117 4.80759 15.0286 5.0307 14.7937 5.18767C14.5587 5.34465 14.2825 5.42843 14 5.42843H12.5714M14 2.57129H6.14285C5.57453 2.57129 5.02949 2.79705 4.62763 3.19892C4.22576 3.60078 4 4.14583 4 4.71415V12.5713" stroke="#FBAD39" stroke-linecap="round" stroke-linejoin="round"/>
<path d="M6.85715 5.42871H9.71429" stroke="#FBAD39" stroke-linecap="round" stroke-linejoin="round"/>
<path d="M6.85715 8.28613H9.71429" stroke="#FBAD39" stroke-linecap="round" stroke-linejoin="round"/>
</g>
<defs>
<clipPath id="clip0_5711_10476">
<rect width="17.1429" height="17.1429" fill="white" transform="translate(0.428574 0.428711)"/>
</clipPath>
</defs>
</svg>
