<svg width="21" height="20" viewBox="0 0 21 20" fill="none" xmlns="http://www.w3.org/2000/svg">
<g id="Rotation">
<g id="90&#194;&#176;">
<path d="M7.79395 11.3043C7.82506 11.4754 7.89506 11.6076 8.00395 11.7009C8.11672 11.7904 8.26645 11.8351 8.45311 11.8351C8.69422 11.8351 8.86922 11.7359 8.97811 11.5376C9.087 11.3354 9.14145 10.997 9.14145 10.5226C9.052 10.647 8.92561 10.7443 8.76228 10.8143C8.60283 10.8843 8.42978 10.9193 8.24311 10.9193C7.99422 10.9193 7.76867 10.8687 7.56645 10.7676C7.36811 10.6626 7.21061 10.509 7.09395 10.3068C6.97728 10.1007 6.91895 9.85177 6.91895 9.5601C6.91895 9.12844 7.04728 8.78622 7.30395 8.53344C7.56061 8.27677 7.91061 8.14844 8.35395 8.14844C8.90617 8.14844 9.29506 8.32538 9.52061 8.67927C9.75006 9.03316 9.86478 9.56594 9.86478 10.2776C9.86478 10.7832 9.82006 11.1973 9.73061 11.5201C9.64506 11.8429 9.49533 12.0879 9.28145 12.2551C9.07145 12.4223 8.78367 12.5059 8.41811 12.5059C8.13033 12.5059 7.88533 12.4515 7.68311 12.3426C7.48089 12.2298 7.32533 12.084 7.21645 11.9051C7.11145 11.7223 7.05117 11.522 7.03561 11.3043H7.79395ZM8.41228 10.2543C8.6145 10.2543 8.77395 10.192 8.89061 10.0676C9.00728 9.94316 9.06561 9.77594 9.06561 9.56594C9.06561 9.33649 9.00339 9.15955 8.87895 9.0351C8.75839 8.90677 8.59311 8.8426 8.38311 8.8426C8.17311 8.8426 8.00589 8.90872 7.88145 9.04094C7.76089 9.16927 7.70061 9.34038 7.70061 9.55427C7.70061 9.76038 7.75895 9.92955 7.87561 10.0618C7.99617 10.1901 8.17506 10.2543 8.41228 10.2543Z" fill="#1B459B"/>
<path d="M10.588 10.3184C10.588 9.64566 10.7085 9.11872 10.9496 8.7376C11.1946 8.35649 11.5991 8.16594 12.163 8.16594C12.7269 8.16594 13.1294 8.35649 13.3705 8.7376C13.6155 9.11872 13.738 9.64566 13.738 10.3184C13.738 10.9951 13.6155 11.5259 13.3705 11.9109C13.1294 12.2959 12.7269 12.4884 12.163 12.4884C11.5991 12.4884 11.1946 12.2959 10.9496 11.9109C10.7085 11.5259 10.588 10.9951 10.588 10.3184ZM12.933 10.3184C12.933 10.0307 12.9135 9.78955 12.8746 9.5951C12.8396 9.39677 12.7658 9.23538 12.653 9.11094C12.5441 8.98649 12.3808 8.92427 12.163 8.92427C11.9452 8.92427 11.7799 8.98649 11.6671 9.11094C11.5583 9.23538 11.4844 9.39677 11.4455 9.5951C11.4105 9.78955 11.393 10.0307 11.393 10.3184C11.393 10.614 11.4105 10.8629 11.4455 11.0651C11.4805 11.2634 11.5544 11.4248 11.6671 11.5493C11.7799 11.6698 11.9452 11.7301 12.163 11.7301C12.3808 11.7301 12.546 11.6698 12.6588 11.5493C12.7716 11.4248 12.8455 11.2634 12.8805 11.0651C12.9155 10.8629 12.933 10.614 12.933 10.3184Z" fill="#1B459B"/>
<path d="M14.232 8.98894C14.232 8.7976 14.295 8.64594 14.421 8.53394C14.5493 8.42194 14.715 8.36594 14.918 8.36594C15.1186 8.36594 15.282 8.4231 15.408 8.53744C15.534 8.64944 15.597 8.79994 15.597 8.98894C15.597 9.18027 15.5328 9.3331 15.4045 9.44744C15.2785 9.56177 15.114 9.61894 14.911 9.61894C14.7103 9.61894 14.547 9.56177 14.421 9.44744C14.295 9.3331 14.232 9.18027 14.232 8.98894ZM15.212 8.99244C15.212 8.8781 15.1828 8.7906 15.1245 8.72994C15.0661 8.66694 14.995 8.63544 14.911 8.63544C14.8293 8.63544 14.7593 8.66694 14.701 8.72994C14.6426 8.7906 14.6135 8.8781 14.6135 8.99244C14.6135 9.10444 14.6415 9.19077 14.6975 9.25144C14.7558 9.3121 14.827 9.34244 14.911 9.34244C14.9926 9.34244 15.0626 9.3121 15.121 9.25144C15.1816 9.19077 15.212 9.10444 15.212 8.99244Z" fill="#1B459B"/>
</g>
<path id="Vector" d="M12.3654 6.66667H16.5321V2.5M16.2898 13.6309C15.5133 14.8267 14.3738 15.742 13.0388 16.2424C11.7038 16.7429 10.2434 16.8022 8.87215 16.4116C7.50094 16.021 6.29131 15.2011 5.42041 14.0723C4.5495 12.9434 4.06355 11.5651 4.03369 10.1396C4.00383 8.71417 4.43158 7.31668 5.25445 6.15234C6.07732 4.98801 7.25174 4.11818 8.60539 3.6705C9.95904 3.22282 11.4208 3.22091 12.7756 3.66504C14.1304 4.10917 15.3071 4.97597 16.133 6.13815" stroke="#1B459B" stroke-width="1.2" stroke-linecap="round" stroke-linejoin="round"/>
</g>
</svg>
