<svg width="89" height="16" viewBox="0 0 89 16" fill="none" xmlns="http://www.w3.org/2000/svg">
<path d="M11.3812 6.0651L17.4993 6.05546C17.5218 6.0559 17.5436 6.06337 17.5618 6.07685C17.5799 6.09033 17.5934 6.10914 17.6004 6.13068C17.6074 6.15222 17.6076 6.17542 17.6009 6.19707C17.5943 6.21872 17.5811 6.23775 17.5632 6.25152L12.608 9.861C12.5891 9.87428 12.5749 9.89328 12.5674 9.91524C12.56 9.9372 12.5596 9.96098 12.5665 9.98313L14.4706 15.8329C14.4783 15.8551 14.4786 15.8793 14.4716 15.9018C14.4645 15.9243 14.4504 15.9438 14.4313 15.9576C14.4123 15.9713 14.3893 15.9785 14.3659 15.978C14.3424 15.9776 14.3198 15.9695 14.3013 15.955L9.35891 12.3294C9.34035 12.3159 9.31798 12.3085 9.29502 12.3085C9.27206 12.3085 9.24969 12.3159 9.23112 12.3294L4.28875 15.955C4.27026 15.9695 4.2476 15.9776 4.22417 15.978C4.20073 15.9785 4.17778 15.9713 4.15873 15.9576C4.13968 15.9438 4.12556 15.9243 4.11847 15.9018C4.11139 15.8793 4.11173 15.8551 4.11943 15.8329L6.02353 9.98313C6.0304 9.96098 6.03008 9.9372 6.02261 9.91524C6.01514 9.89328 6.00092 9.87428 5.982 9.861L1.02685 6.25152C1.00896 6.23775 0.995761 6.21872 0.989091 6.19707C0.982422 6.17542 0.982608 6.15222 0.989628 6.13068C0.996647 6.10914 1.01015 6.09033 1.02827 6.07685C1.04639 6.06337 1.06822 6.0559 1.09075 6.05546L7.20881 6.0651C7.23137 6.06499 7.25333 6.05781 7.27166 6.04457C7.28998 6.03132 7.30374 6.01266 7.31104 5.99118L9.19278 0.13182C9.20034 0.110636 9.21422 0.0923177 9.23252 0.0793675C9.25082 0.0664173 9.27264 0.0594656 9.29502 0.0594656C9.31739 0.0594656 9.33922 0.0664173 9.35751 0.0793675C9.37581 0.0923177 9.38969 0.110636 9.39725 0.13182L11.279 5.99118C11.2863 6.01266 11.3001 6.03132 11.3184 6.04457C11.3367 6.05781 11.3587 6.06499 11.3812 6.0651ZM29.2274 6.07153L35.3742 6.06189C35.3959 6.06108 35.4172 6.06745 35.435 6.08001C35.4527 6.09258 35.4658 6.11065 35.4724 6.13146C35.4789 6.15226 35.4784 6.17464 35.4711 6.19517C35.4638 6.2157 35.4499 6.23324 35.4317 6.2451L30.4542 9.87064C30.4372 9.88319 30.4247 9.90086 30.4183 9.92109C30.412 9.94132 30.4123 9.96306 30.4191 9.98313L32.3264 15.8618C32.3324 15.8818 32.3321 15.9032 32.3253 15.923C32.3186 15.9428 32.3058 15.9599 32.2889 15.972C32.2719 15.9841 32.2516 15.9905 32.2308 15.9904C32.21 15.9902 32.1898 15.9834 32.173 15.9711L27.2051 12.3294C27.1883 12.3174 27.1682 12.3109 27.1476 12.3109C27.127 12.3109 27.1069 12.3174 27.0901 12.3294L22.1222 15.9711C22.1054 15.9834 22.0852 15.9902 22.0644 15.9904C22.0436 15.9905 22.0233 15.9841 22.0063 15.972C21.9894 15.9599 21.9766 15.9428 21.9699 15.923C21.9632 15.9032 21.9628 15.8818 21.9688 15.8618L23.8761 9.98313C23.8829 9.96306 23.8832 9.94132 23.8769 9.92109C23.8706 9.90086 23.858 9.88319 23.841 9.87064L18.8635 6.2451C18.8453 6.23324 18.8314 6.2157 18.8241 6.19517C18.8168 6.17464 18.8163 6.15226 18.8229 6.13146C18.8294 6.11065 18.8425 6.09258 18.8602 6.08001C18.878 6.06745 18.8993 6.06108 18.921 6.06189L25.0678 6.07153C25.0888 6.07198 25.1094 6.06568 25.1267 6.05354C25.1439 6.04141 25.1569 6.02407 25.1636 6.00404L27.055 0.118961C27.0621 0.100025 27.0747 0.0837169 27.0913 0.0722071C27.1078 0.0606974 27.1275 0.0545318 27.1476 0.0545318C27.1677 0.0545318 27.1874 0.0606974 27.2039 0.0722071C27.2205 0.0837169 27.2331 0.100025 27.2403 0.118961L29.1316 6.00404C29.1384 6.02407 29.1513 6.04141 29.1685 6.05354C29.1858 6.06568 29.2064 6.07198 29.2274 6.07153ZM47.0832 6.0651L53.2396 6.05546C53.2607 6.055 53.2813 6.06131 53.2986 6.07346C53.3158 6.08562 53.3288 6.10299 53.3356 6.12306C53.3423 6.14314 53.3426 6.16485 53.3362 6.18507C53.3299 6.20528 53.3173 6.22293 53.3003 6.23545L48.31 9.86742C48.293 9.87997 48.2804 9.89765 48.2741 9.91788C48.2678 9.93811 48.2681 9.95985 48.2749 9.97992L50.1886 15.8714C50.1946 15.8914 50.1942 15.9129 50.1875 15.9326C50.1808 15.9524 50.168 15.9696 50.151 15.9817C50.1341 15.9938 50.1138 16.0002 50.093 16C50.0722 15.9998 50.052 15.9931 50.0352 15.9807L45.0577 12.3294C45.0409 12.3174 45.0208 12.3109 45.0002 12.3109C44.9796 12.3109 44.9595 12.3174 44.9427 12.3294L39.9652 15.9807C39.9484 15.9931 39.9282 15.9998 39.9074 16C39.8866 16.0002 39.8663 15.9938 39.8493 15.9817C39.8324 15.9696 39.8196 15.9524 39.8129 15.9326C39.8062 15.9129 39.8058 15.8914 39.8118 15.8714L41.7255 9.97992C41.7323 9.95985 41.7326 9.93811 41.7263 9.91788C41.7199 9.89765 41.7074 9.87997 41.6904 9.86742L36.7001 6.23545C36.6831 6.22293 36.6705 6.20528 36.6642 6.18507C36.6578 6.16485 36.6581 6.14314 36.6648 6.12306C36.6716 6.10299 36.6846 6.08562 36.7018 6.07346C36.7191 6.06131 36.7397 6.055 36.7608 6.05546L42.9172 6.0651C42.9382 6.06555 42.9588 6.05925 42.9761 6.04712C42.9933 6.03498 43.0062 6.01764 43.013 5.99761L44.9075 0.0996765C44.9147 0.0807405 44.9273 0.0644329 44.9439 0.0529231C44.9604 0.0414134 44.9801 0.0352478 45.0002 0.0352478C45.0203 0.0352478 45.04 0.0414134 45.0565 0.0529231C45.0731 0.0644329 45.0857 0.0807405 45.0928 0.0996765L46.9874 5.99761C46.9942 6.01764 47.0071 6.03498 47.0243 6.04712C47.0416 6.05925 47.0622 6.06555 47.0832 6.0651ZM64.9326 6.06832H71.0634C71.0845 6.06786 71.1052 6.07416 71.1224 6.08632C71.1397 6.09847 71.1526 6.11585 71.1594 6.13592C71.1662 6.15599 71.1664 6.17771 71.1601 6.19793C71.1537 6.21814 71.1411 6.23579 71.1241 6.24831L66.1626 9.87385C66.1463 9.88619 66.1341 9.90332 66.1278 9.92289C66.1215 9.94245 66.1214 9.9635 66.1275 9.98313L68.022 15.8521C68.028 15.8722 68.0276 15.8936 68.0209 15.9134C68.0142 15.9331 68.0014 15.9503 67.9845 15.9624C67.9675 15.9745 67.9472 15.9809 67.9264 15.9807C67.9056 15.9805 67.8854 15.9738 67.8686 15.9614L62.9071 12.3359C62.8903 12.3238 62.8702 12.3174 62.8496 12.3174C62.829 12.3174 62.8089 12.3238 62.7921 12.3359L57.8305 15.9614C57.8138 15.9738 57.7936 15.9805 57.7728 15.9807C57.752 15.9809 57.7317 15.9745 57.7147 15.9624C57.6978 15.9503 57.685 15.9331 57.6783 15.9134C57.6715 15.8936 57.6712 15.8722 57.6772 15.8521L59.5717 9.98313C59.5778 9.9635 59.5777 9.94245 59.5714 9.92289C59.5651 9.90332 59.5529 9.88619 59.5366 9.87385L54.575 6.24831C54.558 6.23579 54.5455 6.21814 54.5391 6.19793C54.5328 6.17771 54.533 6.15599 54.5398 6.13592C54.5465 6.11585 54.5595 6.09847 54.5768 6.08632C54.594 6.07416 54.6147 6.06786 54.6357 6.06832H60.7666C60.7875 6.06787 60.8077 6.06079 60.8243 6.04809C60.8409 6.03539 60.8532 6.01772 60.8592 5.99761L62.7569 0.13182C62.7641 0.112884 62.7767 0.0965762 62.7933 0.0850664C62.8098 0.0735567 62.8295 0.067391 62.8496 0.067391C62.8697 0.067391 62.8894 0.0735567 62.9059 0.0850664C62.9225 0.0965762 62.9351 0.112884 62.9422 0.13182L64.84 5.99761C64.846 6.01772 64.8582 6.03539 64.8749 6.04809C64.8915 6.06079 64.9117 6.06787 64.9326 6.06832ZM82.7373 6.03618L88.8777 5.99439C88.9002 5.99483 88.9221 6.00231 88.9402 6.01578C88.9583 6.02926 88.9718 6.04807 88.9788 6.06961C88.9858 6.09115 88.986 6.11435 88.9794 6.136C88.9727 6.15765 88.9595 6.17668 88.9416 6.19046L83.9641 9.80635C83.9452 9.81964 83.9309 9.83864 83.9235 9.8606C83.916 9.88256 83.9157 9.90634 83.9225 9.92849L85.8618 15.7911C85.8695 15.8133 85.8698 15.8375 85.8627 15.86C85.8557 15.8825 85.8415 15.9021 85.8225 15.9158C85.8034 15.9295 85.7805 15.9367 85.757 15.9362C85.7336 15.9358 85.711 15.9277 85.6925 15.9132L80.7373 12.2684C80.7188 12.2548 80.6964 12.2475 80.6734 12.2475C80.6505 12.2475 80.6281 12.2548 80.6095 12.2684L75.664 15.9325C75.6454 15.9456 75.6232 15.9526 75.6005 15.9524C75.5778 15.9522 75.5557 15.9448 75.5374 15.9313C75.519 15.9179 75.5054 15.8989 75.4983 15.8772C75.4912 15.8555 75.491 15.8322 75.4978 15.8104L77.4147 9.94135C77.4216 9.9192 77.4213 9.89541 77.4138 9.87345C77.4063 9.85149 77.3921 9.8325 77.3732 9.81921L72.3829 6.21939C72.365 6.20562 72.3518 6.18659 72.3451 6.16493C72.3385 6.14328 72.3387 6.12008 72.3457 6.09854C72.3527 6.077 72.3662 6.05819 72.3843 6.04471C72.4024 6.03124 72.4243 6.02376 72.4468 6.02332L78.5872 6.04261C78.6102 6.04227 78.6324 6.03462 78.6508 6.02076C78.6692 6.00691 78.6827 5.98755 78.6895 5.96547L80.5488 0.0771802C80.5556 0.0548347 80.5694 0.0352795 80.5881 0.021388C80.6068 0.00749647 80.6294 0 80.6527 0C80.6759 0 80.6985 0.00749647 80.7172 0.021388C80.7359 0.0352795 80.7497 0.0548347 80.7565 0.0771802L82.635 5.95904C82.6418 5.98112 82.6553 6.00048 82.6737 6.01433C82.6921 6.02819 82.7143 6.03584 82.7373 6.03618Z" fill="#FFD201"/>
</svg>
