<svg width="20" height="20" viewBox="0 0 20 20" fill="none" xmlns="http://www.w3.org/2000/svg">
<path d="M16.0777 8.29281L14.1332 5.95947C13.8393 5.60678 13.6916 5.43043 13.5115 5.30365C13.3519 5.19132 13.1739 5.10794 12.9854 5.05723C12.7727 5 12.5435 5 12.0844 5H6.00008C5.06666 5 4.5996 5 4.24308 5.18166C3.92948 5.34144 3.6747 5.59643 3.51491 5.91003C3.33325 6.26655 3.33325 6.73321 3.33325 7.66663V12.3333C3.33325 13.2667 3.33325 13.7335 3.51491 14.09C3.6747 14.4036 3.92948 14.6585 4.24308 14.8183C4.5996 15 5.06666 15 6.00008 15H12.0844C12.5435 15 12.7727 15 12.9854 14.9427C13.1739 14.892 13.3519 14.8087 13.5115 14.6963C13.6916 14.5696 13.8393 14.3932 14.1332 14.0405L16.0777 11.7072C16.5838 11.0998 16.8365 10.7962 16.9332 10.4573C17.0185 10.1584 17.0185 9.84164 16.9332 9.54278C16.8365 9.20382 16.5838 8.90012 16.0777 8.29281Z" stroke="#111729" stroke-width="1.2" stroke-linecap="round" stroke-linejoin="round"/>
</svg>
