<svg width="20" height="20" viewBox="0 0 20 20" fill="none" xmlns="http://www.w3.org/2000/svg">
<path d="M12.2667 8.33333C12.2667 8.00196 11.9981 7.73333 11.6667 7.73333C11.3353 7.73333 11.0667 8.00196 11.0667 8.33333H12.2667ZM11.0667 14.1667C11.0667 14.498 11.3353 14.7667 11.6667 14.7667C11.9981 14.7667 12.2667 14.498 12.2667 14.1667H11.0667ZM8.93337 8.33333C8.93337 8.00196 8.66474 7.73333 8.33337 7.73333C8.002 7.73333 7.73337 8.00196 7.73337 8.33333H8.93337ZM7.73337 14.1667C7.73337 14.498 8.002 14.7667 8.33337 14.7667C8.66475 14.7667 8.93337 14.498 8.93337 14.1667H7.73337ZM15 5H15.6C15.6 4.66863 15.3314 4.4 15 4.4V5ZM5.00004 5V4.4C4.66867 4.4 4.40004 4.66863 4.40004 5H5.00004ZM5.90987 17.3183L6.18227 16.7837L5.90987 17.3183ZM5.1817 16.59L4.64709 16.8624L5.1817 16.59ZM14.8186 16.59L14.284 16.3176L14.8186 16.59ZM14.0899 17.3183L13.8175 16.7837L14.0899 17.3183ZM3.33337 4.4C3.002 4.4 2.73337 4.66863 2.73337 5C2.73337 5.33137 3.002 5.6 3.33337 5.6V4.4ZM16.6667 5.6C16.9981 5.6 17.2667 5.33137 17.2667 5C17.2667 4.66863 16.9981 4.4 16.6667 4.4V5.6ZM13.3334 5V5.6C13.6647 5.6 13.9334 5.33137 13.9334 5H13.3334ZM6.66671 5H6.06671C6.06671 5.33137 6.33534 5.6 6.66671 5.6V5ZM13.2064 3.52885L13.7607 3.29924L13.2064 3.52885ZM12.3045 2.62687L12.5341 2.07254L12.3045 2.62687ZM11.0667 8.33333V14.1667H12.2667V8.33333H11.0667ZM7.73337 8.33333V14.1667H8.93337L8.93337 8.33333H7.73337ZM14.4 5V14.8333H15.6V5H14.4ZM12.3335 16.9H7.66687V18.1H12.3335V16.9ZM5.60004 14.8333V5H4.40004V14.8333H5.60004ZM5.00004 5.6H15V4.4H5.00004V5.6ZM7.66687 16.9C7.19027 16.9 6.8688 16.8995 6.62089 16.8793C6.37994 16.8596 6.26182 16.8242 6.18227 16.7837L5.63748 17.8529C5.91444 17.994 6.20811 18.0495 6.52318 18.0753C6.83128 18.1005 7.21005 18.1 7.66687 18.1V16.9ZM4.40004 14.8333C4.40004 15.2901 4.39957 15.6688 4.42474 15.9769C4.45048 16.2919 4.50598 16.5855 4.64709 16.8624L5.7163 16.3176C5.67576 16.2381 5.64043 16.12 5.62076 15.8792C5.60051 15.6313 5.60004 15.3099 5.60004 14.8333H4.40004ZM6.18227 16.7837C5.98165 16.6815 5.81861 16.5184 5.7163 16.3176L4.64709 16.8624C4.86436 17.2888 5.21089 17.6356 5.63748 17.8529L6.18227 16.7837ZM14.4 14.8333C14.4 15.31 14.3996 15.6314 14.3794 15.8793C14.3598 16.1201 14.3245 16.2381 14.284 16.3176L15.3532 16.8624C15.4943 16.5854 15.5498 16.2918 15.5754 15.9768C15.6006 15.6688 15.6 15.2901 15.6 14.8333H14.4ZM12.3335 18.1C12.7903 18.1 13.169 18.1005 13.4769 18.0753C13.7919 18.0495 14.0854 17.994 14.3623 17.8529L13.8175 16.7837C13.7378 16.8243 13.6198 16.8596 13.3792 16.8793C13.1314 16.8995 12.8101 16.9 12.3335 16.9V18.1ZM14.284 16.3176C14.1819 16.518 14.0185 16.6813 13.8175 16.7837L14.3623 17.8529C14.7884 17.6358 15.1357 17.2892 15.3532 16.8624L14.284 16.3176ZM3.33337 5.6H16.6667V4.4H3.33337V5.6ZM13.3334 4.4H6.66671V5.6H13.3334V4.4ZM9.16671 3.1H10.8334V1.9H9.16671V3.1ZM7.26671 5C7.26671 4.60351 7.26703 4.33618 7.28117 4.12891C7.29495 3.92703 7.3198 3.82631 7.3479 3.75846L6.23925 3.29924C6.14048 3.53768 6.1019 3.78425 6.08396 4.04723C6.06638 4.30482 6.06671 4.61992 6.06671 5H7.26671ZM9.16671 1.9C8.78663 1.9 8.47148 1.89968 8.21384 1.91725C7.95084 1.93519 7.7042 1.97377 7.46574 2.07254L7.92496 3.1812C7.99279 3.1531 8.09354 3.12824 8.29551 3.11447C8.50283 3.10032 8.77022 3.1 9.16671 3.1V1.9ZM7.3479 3.75846C7.45622 3.49696 7.66373 3.2894 7.92496 3.1812L7.46574 2.07254C6.91021 2.30265 6.46924 2.74397 6.23925 3.29924L7.3479 3.75846ZM13.9334 5C13.9334 4.61989 13.9337 4.30479 13.9161 4.04717C13.8981 3.78417 13.8595 3.53764 13.7607 3.29924L12.6521 3.75846C12.6802 3.82635 12.7051 3.9271 12.7189 4.12897C12.733 4.33621 12.7334 4.60354 12.7334 5H13.9334ZM10.8334 3.1C11.2299 3.1 11.4972 3.10032 11.7045 3.11447C11.9063 3.12824 12.0071 3.15309 12.0749 3.1812L12.5341 2.07254C12.2957 1.97378 12.0491 1.93519 11.7861 1.91725C11.5286 1.89968 11.2134 1.9 10.8334 1.9V3.1ZM13.7607 3.29924C13.5307 2.74389 13.0896 2.30261 12.5341 2.07254L12.0749 3.1812C12.3362 3.28944 12.5438 3.49705 12.6521 3.75846L13.7607 3.29924Z" fill="#111729"/>
</svg>
