<svg width="24" height="24" viewBox="0 0 24 24" fill="none" xmlns="http://www.w3.org/2000/svg">
<path d="M14.6 10C14.6 9.66863 14.3314 9.4 14 9.4C13.6686 9.4 13.4 9.66863 13.4 10H14.6ZM13.4 17C13.4 17.3314 13.6686 17.6 14 17.6C14.3314 17.6 14.6 17.3314 14.6 17H13.4ZM10.6 10C10.6 9.66863 10.3314 9.4 10 9.4C9.66863 9.4 9.4 9.66863 9.4 10H10.6ZM9.4 17C9.4 17.3314 9.66863 17.6 10 17.6C10.3314 17.6 10.6 17.3314 10.6 17H9.4ZM18 6H18.6C18.6 5.66863 18.3314 5.4 18 5.4V6ZM6 6V5.4C5.66863 5.4 5.4 5.66863 5.4 6H6ZM7.0918 20.782L7.36419 20.2474H7.36419L7.0918 20.782ZM6.21799 19.908L5.68338 20.1804L6.21799 19.908ZM17.7822 19.908L17.2476 19.6356L17.7822 19.908ZM16.9078 20.782L16.6354 20.2474L16.9078 20.782ZM4 5.4C3.66863 5.4 3.4 5.66863 3.4 6C3.4 6.33137 3.66863 6.6 4 6.6V5.4ZM20 6.6C20.3314 6.6 20.6 6.33137 20.6 6C20.6 5.66863 20.3314 5.4 20 5.4V6.6ZM16 6V6.6C16.3314 6.6 16.6 6.33137 16.6 6H16ZM8 6H7.4C7.4 6.33137 7.66863 6.6 8 6.6V6ZM15.8477 4.23462L16.402 4.00501L15.8477 4.23462ZM14.7654 3.15224L14.995 2.59791V2.59791L14.7654 3.15224ZM13.4 10V17H14.6V10H13.4ZM9.4 10L9.4 17H10.6L10.6 10H9.4ZM17.4 6V17.8H18.6V6H17.4ZM14.8002 20.4H9.2002V21.6H14.8002V20.4ZM6.6 17.8V6H5.4V17.8H6.6ZM6 6.6H18V5.4H6V6.6ZM9.2002 20.4C8.63026 20.4 8.23876 20.3995 7.93525 20.3747C7.6387 20.3505 7.4794 20.3061 7.36419 20.2474L6.8194 21.3166C7.13202 21.4759 7.46686 21.5405 7.83753 21.5707C8.20124 21.6005 8.65003 21.6 9.2002 21.6V20.4ZM5.4 17.8C5.4 18.3502 5.39953 18.7989 5.42924 19.1625C5.45952 19.5331 5.52411 19.8678 5.68338 20.1804L6.75259 19.6356C6.69388 19.5204 6.64947 19.3612 6.62526 19.0648C6.60047 18.7613 6.6 18.37 6.6 17.8H5.4ZM7.36419 20.2474C7.10086 20.1132 6.88686 19.8992 6.75259 19.6356L5.68338 20.1804C5.93261 20.6696 6.33009 21.0673 6.8194 21.3166L7.36419 20.2474ZM17.4 17.8C17.4 18.37 17.3996 18.7614 17.3748 19.0649C17.3507 19.3613 17.3063 19.5205 17.2476 19.6356L18.3168 20.1804C18.4761 19.8678 18.5407 19.533 18.5709 19.1624C18.6005 18.7988 18.6 18.3501 18.6 17.8H17.4ZM14.8002 21.6C15.3504 21.6 15.799 21.6005 16.1625 21.5707C16.533 21.5404 16.8676 21.4758 17.1802 21.3166L16.6354 20.2474C16.5201 20.3061 16.361 20.3505 16.0647 20.3747C15.7614 20.3995 15.3701 20.4 14.8002 20.4V21.6ZM17.2476 19.6356C17.1136 19.8988 16.8991 20.113 16.6354 20.2474L17.1802 21.3166C17.6691 21.0675 18.0674 20.67 18.3168 20.1804L17.2476 19.6356ZM4 6.6H20V5.4H4V6.6ZM16 5.4H8V6.6H16V5.4ZM11 3.6H13V2.4H11V3.6ZM8.6 6C8.6 5.52585 8.60033 5.20028 8.61764 4.94652C8.63458 4.69815 8.66578 4.5627 8.70657 4.46423L7.59791 4.00501C7.48646 4.27408 7.44154 4.55537 7.42042 4.86484C7.39967 5.16892 7.4 5.54227 7.4 6H8.6ZM11 2.4C10.5423 2.4 10.1689 2.39968 9.86473 2.42042C9.55523 2.44153 9.27385 2.48645 9.00477 2.59791L9.46398 3.70657C9.56244 3.66579 9.69793 3.63459 9.94639 3.61764C10.2002 3.60032 10.5259 3.6 11 3.6V2.4ZM8.70657 4.46423C8.84871 4.12106 9.12108 3.84861 9.46398 3.70657L9.00477 2.59791C8.36756 2.86185 7.86174 3.36807 7.59791 4.00501L8.70657 4.46423ZM16.6 6C16.6 5.54223 16.6003 5.16888 16.5795 4.86479C16.5584 4.5553 16.5134 4.27404 16.402 4.00501L15.2933 4.46423C15.3341 4.56274 15.3653 4.69823 15.3823 4.94658C15.3996 5.20031 15.4 5.52589 15.4 6H16.6ZM13 3.6C13.4742 3.6 13.7997 3.60032 14.0535 3.61764C14.3018 3.63458 14.4373 3.66578 14.5358 3.70657L14.995 2.59791C14.7259 2.48646 14.4446 2.44154 14.1352 2.42042C13.8311 2.39968 13.4577 2.4 13 2.4V3.6ZM16.402 4.00501C16.1381 3.36798 15.6321 2.86182 14.995 2.59791L14.5358 3.70657C14.8787 3.84864 15.1512 4.12114 15.2933 4.46423L16.402 4.00501Z" fill="#1B459B"/>
</svg>
