<svg width="32" height="20" viewBox="0 0 32 20" fill="none" xmlns="http://www.w3.org/2000/svg">
<path d="M25.2396 8.66733L24.6457 8.75223C24.6885 9.05172 24.9475 9.27249 25.25 9.26724L25.2396 8.66733ZM7.55863 6.01426L7.59782 6.61298C7.81525 6.59875 8.00787 6.46776 8.10103 6.27078L7.55863 6.01426ZM15.4 15.3332C15.4 15.6645 15.6687 15.9332 16 15.9332C16.3314 15.9332 16.6 15.6645 16.6 15.3332H15.4ZM16 7.33317L16.3329 6.83394C16.1313 6.69958 15.8688 6.69958 15.6672 6.83394L16 7.33317ZM11.6672 9.50061C11.3915 9.68442 11.317 10.0569 11.5008 10.3327C11.6846 10.6084 12.0571 10.6829 12.3329 10.4991L11.6672 9.50061ZM19.6672 10.4991C19.9429 10.6829 20.3155 10.6084 20.4993 10.3327C20.6831 10.0569 20.6086 9.68442 20.3329 9.50061L19.6672 10.4991ZM31.2667 13.9998C31.2667 10.7229 28.6103 8.0665 25.3334 8.0665V9.2665C27.9475 9.2665 30.0667 11.3857 30.0667 13.9998H31.2667ZM25.3334 8.0665C25.2982 8.0665 25.2639 8.06682 25.2292 8.06742L25.25 9.26724C25.2781 9.26675 25.3055 9.2665 25.3334 9.2665V8.0665ZM25.8336 8.58242C25.1453 3.76755 21.005 0.0665039 16 0.0665039V1.2665C20.3995 1.2665 24.0407 4.52018 24.6457 8.75223L25.8336 8.58242ZM16 0.0665039C12.0305 0.0665039 8.60666 2.39492 7.01624 5.75773L8.10103 6.27078C9.50059 3.31153 12.5118 1.2665 16 1.2665V0.0665039ZM7.51945 5.41554C3.73028 5.66355 0.733374 8.81479 0.733374 12.6665H1.93337C1.93337 9.45142 4.43531 6.81997 7.59782 6.61298L7.51945 5.41554ZM0.733374 12.6665C0.733374 16.6798 3.98677 19.9332 8.00004 19.9332V18.7332C4.64951 18.7332 1.93337 16.017 1.93337 12.6665H0.733374ZM8.00004 19.9332H25.3334V18.7332H8.00004V19.9332ZM25.3334 19.9332C28.6103 19.9332 31.2667 17.2767 31.2667 13.9998H30.0667C30.0667 16.614 27.9475 18.7332 25.3334 18.7332V19.9332ZM16.6 15.3332L16.6 7.33317L15.4 7.33317L15.4 15.3332H16.6ZM12.3329 10.4991L16.3329 7.8324L15.6672 6.83394L11.6672 9.50061L12.3329 10.4991ZM15.6672 7.8324L19.6672 10.4991L20.3329 9.50061L16.3329 6.83394L15.6672 7.8324Z" fill="#7D94D8"/>
</svg>
