<svg width="118" height="141" viewBox="0 0 118 141" fill="none" xmlns="http://www.w3.org/2000/svg">
<path d="M60.7053 103.779L0.993212 40.6184C0.691736 40.2982 0.529375 39.8717 0.541666 39.4321C0.553957 38.9925 0.7399 38.5756 1.0588 38.2728L40.2586 1.22185C40.4169 1.0721 40.6031 0.955009 40.8067 0.877258C41.0103 0.799508 41.2272 0.762624 41.445 0.768715C41.6628 0.774805 41.8773 0.823748 42.0762 0.912752C42.2751 1.00176 42.4545 1.12907 42.6042 1.28743L102.312 64.4523C102.614 64.7725 102.776 65.199 102.764 65.6386C102.752 66.0782 102.566 66.4951 102.247 66.7979L63.0547 103.833C62.8974 103.985 62.7115 104.104 62.508 104.183C62.3044 104.263 62.0872 104.301 61.8688 104.296C61.6503 104.291 61.4351 104.243 61.2354 104.154C61.0357 104.065 60.8555 103.938 60.7053 103.779Z" fill="#A1AFC5"/>
<g opacity="0.3">
<path d="M60.7063 103.779L0.994189 40.6184C0.692713 40.2982 0.530351 39.8717 0.542643 39.4321C0.554934 38.9925 0.740877 38.5756 1.05977 38.2728L40.2596 1.22185C40.4179 1.0721 40.6041 0.955009 40.8077 0.877258C41.0112 0.799508 41.2281 0.762624 41.4459 0.768715C41.6638 0.774805 41.8783 0.823748 42.0772 0.912752C42.2761 1.00176 42.4555 1.12907 42.6051 1.28743L102.313 64.4523C102.615 64.7725 102.777 65.199 102.765 65.6386C102.753 66.0782 102.567 66.4951 102.248 66.7979L63.0557 103.833C62.8983 103.985 62.7125 104.104 62.509 104.183C62.3054 104.263 62.0882 104.301 61.8697 104.296C61.6513 104.291 61.4361 104.243 61.2364 104.154C61.0367 104.065 60.8565 103.938 60.7063 103.779Z" fill="#A1AFC5"/>
</g>
<path d="M101.873 63.9894L43.0326 1.75044C42.8259 1.53091 42.5779 1.35433 42.3029 1.23083C42.0278 1.10732 41.731 1.03932 41.4296 1.03072C41.1282 1.02212 40.8281 1.07308 40.5464 1.1807C40.2647 1.28831 40.0071 1.45046 39.7882 1.65784L28.6544 12.186C28.5443 12.2888 28.4613 12.4173 28.4128 12.56C28.3644 12.7027 28.3519 12.8552 28.3766 13.0038C29.4915 19.2304 33.9435 24.7973 39.2519 28.4855C45.6637 32.9413 53.2637 35.2907 60.4702 38.2652C67.6767 41.2396 74.9411 45.1592 79.2735 51.6597C83.3589 57.7975 84.3234 65.4091 86.4028 72.4922C86.9682 74.4165 87.6749 76.2965 88.5169 78.1169C88.5783 78.2491 88.6701 78.3649 88.7848 78.4548C88.8996 78.5446 89.034 78.606 89.177 78.6339C89.3201 78.6617 89.4677 78.6553 89.6078 78.615C89.7479 78.5748 89.8764 78.5019 89.9829 78.4024L101.784 67.2455C102.005 67.0383 102.183 66.7894 102.307 66.5131C102.431 66.2369 102.499 65.9387 102.508 65.6359C102.516 65.3332 102.464 65.0317 102.355 64.7491C102.246 64.4665 102.082 64.2083 101.873 63.9894Z" fill="#CAD3E2"/>
<path d="M52.9284 78.9076C53.7848 78.0974 54.7184 78.1129 55.3241 78.7494C55.9298 79.386 55.8912 80.3234 55.0309 81.1336C54.1706 81.9437 53.2447 81.9322 52.6352 81.2918C52.0256 80.6514 52.0719 79.7177 52.9284 78.9076ZM54.4715 80.5279C55.0618 79.9724 55.1119 79.5326 54.8264 79.2317C54.541 78.9307 54.105 78.9577 53.5147 79.5171C52.9245 80.0765 52.8743 80.5125 53.156 80.8095C53.4376 81.1066 53.8697 81.0873 54.4599 80.5279H54.4715Z" fill="white"/>
<path d="M56.8475 84.0233C56.319 84.5248 55.5744 84.4091 55.0536 83.8574C54.3785 83.1398 54.4055 82.268 55.2426 81.4771C56.1415 80.6284 57.1716 80.7055 57.893 81.4771C58.1407 81.7238 58.3167 82.0332 58.4022 82.3721L57.7503 82.565C57.7019 82.3337 57.5865 82.1217 57.4185 81.9555C57.3308 81.85 57.2213 81.7649 57.0975 81.7058C56.9737 81.6467 56.8386 81.6152 56.7015 81.6134C56.5644 81.6115 56.4285 81.6394 56.3032 81.6952C56.1779 81.7509 56.0661 81.8331 55.9756 81.9362C56.2997 81.9619 56.6005 82.1144 56.8128 82.3606C56.9265 82.4661 57.0178 82.5935 57.0813 82.735C57.1448 82.8766 57.1792 83.0295 57.1825 83.1846C57.1857 83.3397 57.1577 83.4939 57.1002 83.638C57.0426 83.782 56.9567 83.9131 56.8475 84.0233ZM56.2688 83.4678C56.3244 83.4149 56.3681 83.3508 56.397 83.2798C56.4259 83.2088 56.4394 83.1324 56.4365 83.0557C56.4335 82.9791 56.4143 82.9039 56.3801 82.8353C56.3459 82.7666 56.2974 82.7061 56.238 82.6576C56.1915 82.5966 56.1329 82.5458 56.0659 82.5084C55.9989 82.471 55.9249 82.4478 55.8486 82.4402C55.7722 82.4326 55.6951 82.4408 55.6221 82.4643C55.549 82.4877 55.4816 82.526 55.424 82.5766C55.369 82.6315 55.3263 82.6974 55.2986 82.77C55.2709 82.8426 55.2588 82.9202 55.2632 82.9978C55.2675 83.0754 55.2882 83.1512 55.3239 83.2202C55.3596 83.2892 55.4095 83.3499 55.4703 83.3983C55.5158 83.4598 55.574 83.5109 55.6408 83.5482C55.7076 83.5855 55.7815 83.6082 55.8578 83.6147C55.934 83.6213 56.0108 83.6116 56.083 83.5863C56.1552 83.5609 56.2211 83.5205 56.2766 83.4678H56.2688Z" fill="white"/>
<path d="M60.3196 83.0552L60.8095 83.5683L56.1531 85.6515L55.667 85.1346L60.3196 83.0552Z" fill="white"/>
<path d="M59.9724 87.9813L59.4825 88.4442L57.6191 86.4805L58.0049 86.114L59.8991 86.2221C60.0278 86.2471 60.1603 86.2439 60.2875 86.2126C60.4148 86.1813 60.5337 86.1226 60.636 86.0407C60.8405 85.8479 60.825 85.5932 60.5627 85.3193C60.4685 85.2103 60.3487 85.1263 60.214 85.0752C60.0793 85.024 59.934 85.0071 59.7911 85.0261L59.66 84.3201C59.9316 84.2887 60.2067 84.3247 60.4611 84.4249C60.7154 84.5252 60.9412 84.6866 61.1182 84.895C61.666 85.4775 61.7316 86.141 61.261 86.5886C61.0102 86.8277 60.7132 86.9743 60.0303 86.9281L58.9038 86.8625L59.9724 87.9813Z" fill="white"/>
<path d="M62.4765 90.516L62.0907 90.0955L61.5468 90.6086L60.9912 90.0222L61.5391 89.5091L60.2158 88.1087L60.6209 87.7229L63.4256 87.3911L64.0235 88.0199L61.3848 88.3594L62.0444 89.0577L62.5305 88.5986L63.0668 89.1657L62.5807 89.6248L62.9665 90.0492L62.4765 90.516Z" fill="white"/>
<path d="M74.6634 58.3839C76.1294 56.1309 75.5546 53.1372 73.5871 51.3086C72.9886 50.744 72.2951 50.2895 71.5386 49.9661C69.6598 49.1945 67.1715 49.7539 66.1839 51.5362C65.3776 52.9906 65.7016 54.8077 66.2687 56.3701C66.859 58.0097 67.8119 59.684 69.436 60.3206C71.0602 60.9571 72.8773 60.3746 74.0423 59.1632C74.2755 58.9254 74.4836 58.6643 74.6634 58.3839Z" fill="#A1AFC5"/>
<path d="M110.445 59.3135H11.7877C8.07185 59.3135 5.05957 62.3258 5.05957 66.0416V133.952C5.05957 137.667 8.07185 140.68 11.7877 140.68H110.445C114.161 140.68 117.173 137.667 117.173 133.952V66.0416C117.173 62.3258 114.161 59.3135 110.445 59.3135Z" fill="#CAD3E2"/>
<path d="M117.173 66.0416C117.173 66.0416 117.173 65.9606 117.173 65.7986C117.166 65.5568 117.143 65.3158 117.104 65.0772C116.969 64.1379 116.632 63.2391 116.116 62.4422C115.739 61.8561 115.276 61.3295 114.743 60.8798C114.092 60.3463 113.348 59.9382 112.548 59.6762C112.332 59.6029 112.104 59.5604 111.877 59.4948C111.649 59.4293 111.406 59.4215 111.163 59.383L110.418 59.3482H106.259L66.0335 59.3791H38.2569H22.7791H12.629C11.9441 59.3517 11.258 59.3904 10.5805 59.4948C9.21621 59.7453 7.9659 60.4204 7.00813 61.4238C6.52446 61.9235 6.12454 62.498 5.82377 63.1251C5.51365 63.7518 5.31025 64.4259 5.22193 65.1196C5.15535 65.8248 5.13344 66.5335 5.15635 67.2414V78.1168C5.15635 83.9962 5.15635 89.9926 5.15635 96.106V133.913C5.15872 135.527 5.74526 137.085 6.80752 138.3C7.85529 139.507 9.30819 140.291 10.893 140.502C11.6832 140.571 12.4767 140.593 13.2694 140.568H74.2855H106.171H109.882C110.488 140.587 111.094 140.546 111.691 140.448C112.279 140.335 112.849 140.143 113.385 139.877C113.651 139.747 113.909 139.6 114.157 139.438C114.398 139.268 114.63 139.085 114.851 138.89C115.508 138.312 116.043 137.609 116.425 136.822C116.807 136.035 117.029 135.18 117.077 134.307C117.116 129.677 117.077 125.225 117.1 120.982C117.1 104.007 117.127 90.2575 117.135 80.7594C117.135 76.0104 117.135 72.3261 117.154 69.8224C117.154 68.5763 117.154 67.6234 117.154 66.9791C117.154 66.3348 117.154 66.0108 117.154 66.0108C117.154 66.0108 117.154 66.3387 117.154 66.9791C117.154 67.6195 117.154 68.5763 117.154 69.8224C117.154 72.3261 117.154 75.9949 117.173 80.7594C117.173 90.2575 117.173 103.999 117.204 120.982C117.204 125.225 117.231 129.673 117.204 134.314C117.139 135.504 116.761 136.655 116.109 137.651C115.783 138.152 115.394 138.609 114.951 139.009C114.725 139.21 114.486 139.396 114.238 139.569C113.989 139.734 113.732 139.885 113.466 140.02C112.918 140.294 112.335 140.492 111.734 140.607C111.126 140.709 110.51 140.75 109.894 140.73H106.182H74.2971H39.0593H13.254C12.4522 140.755 11.6496 140.732 10.8506 140.661C9.21772 140.446 7.72018 139.64 6.64163 138.396C5.55258 137.148 4.94991 135.55 4.94417 133.894C4.94417 120.935 4.94417 108.289 4.94417 96.0867V78.1168C4.94417 75.1796 4.94417 72.2734 4.94417 69.398V67.2491C4.92111 66.5321 4.9443 65.8144 5.01361 65.1003C5.10483 64.3876 5.31477 63.6952 5.63473 63.0518C5.94305 62.4055 6.35483 61.8139 6.85382 61.3003C7.34784 60.7923 7.91473 60.3606 8.53585 60.0195C9.16019 59.6881 9.83147 59.4539 10.5265 59.3251L11.0473 59.2441L11.5681 59.2171C11.9192 59.1978 12.2625 59.2171 12.6059 59.2171H38.2337H66.0104L106.236 59.2518H110.376L111.128 59.2904C111.371 59.3328 111.614 59.3598 111.846 59.41C112.077 59.4601 112.305 59.518 112.521 59.5951C113.327 59.8606 114.077 60.274 114.731 60.8142C115.267 61.2681 115.731 61.8 116.109 62.3921C116.622 63.1957 116.954 64.1014 117.081 65.0463C117.12 65.2861 117.141 65.5286 117.143 65.7716C117.173 65.9606 117.173 66.0416 117.173 66.0416Z" fill="#263238"/>
<path d="M113.246 64.3288C114.012 64.1951 114.795 64.1951 115.561 64.3288C114.795 64.4625 114.012 64.4625 113.246 64.3288Z" fill="#263238"/>
<path d="M103.802 64.3288C105.373 64.1951 106.953 64.1951 108.524 64.3288C106.953 64.4626 105.373 64.4626 103.802 64.3288Z" fill="#263238"/>
<path d="M94.3613 64.3289C95.9312 64.1951 97.5096 64.1951 99.0795 64.3289C97.5096 64.4627 95.9312 64.4627 94.3613 64.3289Z" fill="#263238"/>
<path d="M84.917 64.3288C86.4882 64.1951 88.0678 64.1951 89.639 64.3288C88.0678 64.4626 86.4882 64.4626 84.917 64.3288Z" fill="#263238"/>
<path d="M75.4775 64.3289C77.0474 64.1951 78.6258 64.1951 80.1957 64.3289C78.6258 64.4627 77.0474 64.4627 75.4775 64.3289Z" fill="#263238"/>
<path d="M66.0332 64.3288C67.6044 64.1951 69.1841 64.1951 70.7552 64.3288C69.1841 64.4626 67.6044 64.4626 66.0332 64.3288Z" fill="#263238"/>
<path d="M56.5928 64.3289C58.1627 64.1951 59.7411 64.1951 61.311 64.3289C59.7411 64.4627 58.1627 64.4627 56.5928 64.3289Z" fill="#263238"/>
<path d="M47.1484 64.3288C48.7196 64.1951 50.2993 64.1951 51.8705 64.3288C50.2993 64.4626 48.7196 64.4626 47.1484 64.3288Z" fill="#263238"/>
<path d="M37.7051 64.3288C39.2762 64.1951 40.8559 64.1951 42.4271 64.3288C40.8559 64.4626 39.2762 64.4626 37.7051 64.3288Z" fill="#263238"/>
<path d="M28.2646 64.3286C29.0437 64.23 29.8295 64.1965 30.6141 64.2283C31.4025 64.1958 32.1923 64.2294 32.9751 64.3286C32.1925 64.4301 31.4025 64.4636 30.6141 64.4289C29.8295 64.463 29.0435 64.4294 28.2646 64.3286Z" fill="#263238"/>
<path d="M18.8203 64.3286C19.6031 64.2294 20.3929 64.1958 21.1813 64.2283C21.9698 64.1958 22.7595 64.2294 23.5424 64.3286C22.7597 64.4301 21.9698 64.4636 21.1813 64.4289C20.3929 64.4636 19.6029 64.4301 18.8203 64.3286Z" fill="#263238"/>
<path d="M11.7875 66.6435C11.6858 65.8764 11.6523 65.1018 11.6872 64.3288L11.7875 64.2285H12.6864L13.4232 64.2517C13.6517 64.2433 13.8802 64.2667 14.1022 64.3211C13.8806 64.3782 13.6519 64.4029 13.4232 64.3944L12.6864 64.4137H12.2543H11.7875L11.8878 64.3134C11.9212 65.0915 11.8876 65.8711 11.7875 66.6435Z" fill="#263238"/>
<path d="M11.7874 75.2968C11.6859 74.5802 11.6523 73.8555 11.6871 73.1326C11.6524 72.4109 11.686 71.6875 11.7874 70.9722C11.8865 71.6878 11.92 72.4109 11.8877 73.1326C11.9201 73.8555 11.8865 74.58 11.7874 75.2968Z" fill="#263238"/>
<path d="M11.7878 83.9497C11.6541 82.5112 11.6541 81.0635 11.7878 79.625C11.9215 81.0635 11.9215 82.5112 11.7878 83.9497Z" fill="#263238"/>
<path d="M11.7878 92.6029C11.6541 91.1632 11.6541 89.7142 11.7878 88.2744C11.9216 89.7142 11.9216 91.1632 11.7878 92.6029Z" fill="#263238"/>
<path d="M11.7878 101.264C11.6541 99.8243 11.6541 98.3753 11.7878 96.9355C11.9216 98.3753 11.9216 99.8243 11.7878 101.264Z" fill="#263238"/>
<path d="M11.7878 109.906C11.6541 108.467 11.6541 107.02 11.7878 105.581C11.9215 107.02 11.9215 108.467 11.7878 109.906Z" fill="#263238"/>
<path d="M11.7878 118.559C11.6541 117.12 11.6541 115.672 11.7878 114.234C11.9215 115.672 11.9215 117.12 11.7878 118.559Z" fill="#263238"/>
<path d="M11.7878 127.212C11.6541 125.773 11.6541 124.326 11.7878 122.887C11.9215 124.326 11.9215 125.773 11.7878 127.212Z" fill="#263238"/>
<path d="M14.1029 133.855C13.3355 133.954 12.5612 133.988 11.7881 133.956C11.5875 133.755 11.7303 133.898 11.6878 133.851V133.392C11.6878 133.242 11.6878 133.099 11.6878 132.956C11.6878 132.702 11.6878 132.459 11.6878 132.22C11.6767 131.992 11.7015 131.764 11.7611 131.544C11.8158 131.765 11.8391 131.992 11.8306 132.22C11.8306 132.459 11.8306 132.702 11.8537 132.956C11.8537 133.099 11.8537 133.242 11.8537 133.392C11.8537 133.466 11.8537 133.543 11.8537 133.62V133.851C11.8074 133.809 11.954 133.956 11.7534 133.755C12.538 133.718 13.3243 133.752 14.1029 133.855Z" fill="#263238"/>
<path d="M23.4078 133.855C22.6404 133.954 21.8661 133.987 21.093 133.956C20.32 133.987 19.5457 133.954 18.7783 133.855C19.5455 133.755 20.32 133.721 21.093 133.755C21.8661 133.721 22.6406 133.755 23.4078 133.855Z" fill="#263238"/>
<path d="M32.7124 133.855C31.9451 133.954 31.1708 133.987 30.3977 133.956C29.6247 133.987 28.8504 133.954 28.083 133.855C28.8502 133.755 29.6247 133.721 30.3977 133.755C31.1708 133.721 31.9453 133.755 32.7124 133.855Z" fill="#263238"/>
<path d="M42.0178 133.855C40.4698 133.989 38.9132 133.989 37.3652 133.855C38.9132 133.721 40.4698 133.721 42.0178 133.855Z" fill="#263238"/>
<path d="M51.3235 133.855C49.7755 133.989 48.2189 133.989 46.6709 133.855C48.2189 133.721 49.7755 133.721 51.3235 133.855Z" fill="#263238"/>
<path d="M60.6282 133.855C59.0802 133.989 57.5236 133.989 55.9756 133.855C57.5236 133.721 59.0802 133.721 60.6282 133.855Z" fill="#263238"/>
<path d="M69.9338 133.855C68.3859 133.989 66.8292 133.989 65.2812 133.855C66.8292 133.721 68.3859 133.721 69.9338 133.855Z" fill="#263238"/>
<path d="M79.2229 133.855C77.6749 133.989 76.1183 133.989 74.5703 133.855C76.1183 133.721 77.6749 133.721 79.2229 133.855Z" fill="#263238"/>
<path d="M88.5442 133.855C86.9962 133.989 85.4396 133.989 83.8916 133.855C85.4396 133.721 86.9962 133.721 88.5442 133.855Z" fill="#263238"/>
<path d="M97.8489 133.855C96.3009 133.989 94.7443 133.989 93.1963 133.855C94.7443 133.721 96.3009 133.721 97.8489 133.855Z" fill="#263238"/>
<path d="M107.158 133.855C105.61 133.989 104.054 133.989 102.506 133.855C104.054 133.721 105.61 133.721 107.158 133.855Z" fill="#263238"/>
<path d="M114.125 133.855C113.359 133.989 112.576 133.989 111.811 133.855C112.576 133.721 113.359 133.721 114.125 133.855Z" fill="#263238"/>
<g opacity="0.3">
<path d="M43.7314 104.443C43.7314 104.443 43.7546 108.301 42.5741 110.615C41.3936 112.93 41.0309 113.848 38.5619 114.743C36.0929 115.638 5.0293 119.053 5.0293 119.053V108.571L43.7314 104.443Z" fill="black"/>
</g>
<g opacity="0.3">
<path d="M43.1869 89.8988C43.1869 89.8988 43.5418 85.9599 33.6618 84.4977C22.3621 82.8273 5.05957 80.7749 5.05957 80.7749V88.2244L43.1869 89.8988Z" fill="black"/>
</g>
<path d="M38.2259 86.3262H6.08604C3.03709 86.3262 0.56543 88.7978 0.56543 91.8468V106.237C0.56543 109.286 3.03709 111.757 6.08604 111.757H38.2259C41.2749 111.757 43.7465 109.286 43.7465 106.237V91.8468C43.7465 88.7978 41.2749 86.3262 38.2259 86.3262Z" fill="#A1AFC5"/>
<path d="M6.0858 111.754C6.0858 111.754 5.97393 111.754 5.75789 111.754C5.43419 111.741 5.11247 111.697 4.79728 111.622C4.28169 111.506 3.7863 111.314 3.32743 111.052C2.69889 110.697 2.14688 110.221 1.70326 109.651C1.14128 108.937 0.763684 108.096 0.603776 107.201C0.523392 106.691 0.492384 106.174 0.511185 105.658C0.511185 105.126 0.511185 104.57 0.511185 103.995C0.511185 101.7 0.511185 99.0883 0.511185 96.1987C0.511185 94.752 0.511185 93.2436 0.511185 91.6619C0.537117 90.828 0.749478 90.0106 1.13267 89.2696C1.51587 88.5286 2.06017 87.8828 2.7256 87.3797C3.42504 86.8419 4.24447 86.4818 5.11362 86.3303C5.55461 86.2571 6.00157 86.2261 6.44844 86.2377H13.3926H38.2527C39.0901 86.2359 39.9173 86.4222 40.6732 86.7827C41.429 87.1433 42.0942 87.669 42.6198 88.321C43.3158 89.1741 43.7428 90.2147 43.8466 91.3108C43.889 91.8548 43.8736 92.3833 43.8775 92.9118C43.8775 93.9689 43.8775 95.0169 43.8775 96.056V102.178C43.8775 103.178 43.8775 104.169 43.8775 105.145C43.8775 105.639 43.8968 106.117 43.8775 106.611C43.8634 106.856 43.8337 107.099 43.7887 107.34C43.7362 107.577 43.6719 107.812 43.5959 108.042C43.2817 108.946 42.7424 109.754 42.0288 110.39C41.3153 111.027 40.4511 111.471 39.5181 111.68C39.2952 111.732 39.0699 111.772 38.843 111.8C38.6153 111.819 38.3877 111.827 38.1601 111.835H34.2444H24.7926L11.1049 111.8L7.38205 111.781H6.41758H6.0858C6.0858 111.781 6.19768 111.781 6.41758 111.781H7.38205L11.1049 111.761L24.7926 111.731H34.2444H36.833C37.7126 111.707 38.6115 111.804 39.4757 111.576C40.3703 111.362 41.1961 110.926 41.8762 110.306C42.5562 109.687 43.0682 108.905 43.3644 108.035C43.6962 107.144 43.6499 106.175 43.6499 105.195V102.229C43.6499 100.23 43.6499 98.1855 43.6499 96.1061V92.962C43.6499 92.4335 43.6499 91.8972 43.6229 91.3803C43.5189 90.3232 43.1071 89.3199 42.4385 88.4946C42.102 88.0862 41.7128 87.7243 41.2811 87.4182C40.8328 87.1229 40.346 86.8906 39.8344 86.7277C39.3165 86.5768 38.7806 86.4963 38.2411 86.4885H13.381H6.43687C5.99911 86.477 5.56125 86.5067 5.12905 86.5772C4.2874 86.723 3.49335 87.0697 2.81433 87.588C2.16712 88.0755 1.63719 88.7017 1.26337 89.4207C0.889556 90.1396 0.681318 90.9331 0.653924 91.7429C0.634635 93.3131 0.653924 94.8292 0.653924 96.2759C0.653924 99.1654 0.653924 101.777 0.653924 104.073C0.653924 104.647 0.653924 105.203 0.653924 105.735C0.634474 106.245 0.66289 106.755 0.738798 107.259C0.923936 108.311 1.41033 109.286 2.13896 110.067C2.86759 110.848 3.80712 111.4 4.84357 111.657C5.15601 111.735 5.475 111.784 5.79646 111.804L6.0858 111.754Z" fill="#263238"/>
<path d="M30.7376 109.242C35.8426 109.242 39.981 105.104 39.981 99.9988C39.981 94.8938 35.8426 90.7554 30.7376 90.7554C25.6326 90.7554 21.4941 94.8938 21.4941 99.9988C21.4941 105.104 25.6326 109.242 30.7376 109.242Z" fill="#263238"/>
<path d="M33.1064 107.549C33.8884 107.259 34.63 106.87 35.3131 106.391C36.0399 105.858 36.6713 105.206 37.1804 104.462C37.8142 103.56 38.2337 102.525 38.4068 101.436C38.58 100.347 38.5022 99.2324 38.1795 98.1779C37.9274 97.3123 37.5281 96.4967 36.999 95.7667C36.5005 95.0995 35.9168 94.5003 35.263 93.9844C35.263 93.9844 35.3209 94.0075 35.4135 94.0692C35.5562 94.1581 35.694 94.2547 35.8262 94.3586C36.312 94.7411 36.7453 95.1861 37.1148 95.6818C37.6693 96.4164 38.0899 97.2431 38.357 98.1239C38.7001 99.2034 38.786 100.348 38.6078 101.467C38.4296 102.586 37.9923 103.647 37.3308 104.567C36.8059 105.318 36.153 105.971 35.4019 106.495C34.8976 106.852 34.3474 107.139 33.7661 107.348C33.6099 107.408 33.4502 107.458 33.2878 107.498C33.2312 107.527 33.1696 107.544 33.1064 107.549Z" fill="#FAFAFA"/>
</svg>
