<svg xmlns="http://www.w3.org/2000/svg" width="24" height="24" fill="none">
  <path fill="#fff" d="M9.354 8.646a.5.5 0 1 0-.708.708l.708-.708Zm5.292 6.707a.5.5 0 1 0 .707-.707l-.707.707Zm-6-.707a.5.5 0 1 0 .708.707l-.708-.707Zm6.707-5.292a.5.5 0 1 0-.707-.707l.707.707ZM12 20.5A8.5 8.5 0 0 1 3.5 12h-1a9.5 9.5 0 0 0 9.5 9.5v-1ZM3.5 12A8.5 8.5 0 0 1 12 3.5v-1A9.5 9.5 0 0 0 2.5 12h1ZM12 3.5a8.5 8.5 0 0 1 8.5 8.5h1A9.5 9.5 0 0 0 12 2.5v1Zm8.5 8.5a8.5 8.5 0 0 1-8.5 8.5v1a9.5 9.5 0 0 0 9.5-9.5h-1ZM8.646 9.354l6 6 .707-.708-6-6-.707.708Zm.708 6 6-6-.708-.707-6 6 .708.707Z"/>
</svg>
