<svg width="16" height="16" viewBox="0 0 16 16" fill="none" xmlns="http://www.w3.org/2000/svg">
<path d="M2.00684 7.48047V10.4738C2.00684 13.4671 3.20684 14.6671 6.20017 14.6671H9.7935C12.7868 14.6671 13.9868 13.4671 13.9868 10.4738V7.48047" stroke="#020203" stroke-linecap="round" stroke-linejoin="round"/>
<path d="M7.99999 7.9987C9.21999 7.9987 10.12 7.00536 9.99999 5.78536L9.55999 1.33203H6.44666L5.99999 5.78536C5.87999 7.00536 6.77999 7.9987 7.99999 7.9987Z" stroke="#020203" stroke-linecap="round" stroke-linejoin="round"/>
<path d="M12.2065 7.9987C13.5532 7.9987 14.5399 6.90536 14.4065 5.56536L14.2199 3.73203C13.9799 1.9987 13.3132 1.33203 11.5665 1.33203H9.5332L9.99987 6.00536C10.1132 7.10536 11.1065 7.9987 12.2065 7.9987Z" stroke="#020203" stroke-linecap="round" stroke-linejoin="round"/>
<path d="M3.75992 7.9987C4.85992 7.9987 5.85325 7.10536 5.95992 6.00536L6.10659 4.53203L6.42659 1.33203H4.39326C2.64659 1.33203 1.97992 1.9987 1.73992 3.73203L1.55992 5.56536C1.42659 6.90536 2.41326 7.9987 3.75992 7.9987Z" stroke="#020203" stroke-linecap="round" stroke-linejoin="round"/>
<path d="M7.99967 11.332C6.88634 11.332 6.33301 11.8854 6.33301 12.9987V14.6654H9.66634V12.9987C9.66634 11.8854 9.11301 11.332 7.99967 11.332Z" stroke="#020203" stroke-linecap="round" stroke-linejoin="round"/>
</svg>
