<svg xmlns="http://www.w3.org/2000/svg" width="20" height="20" fill="none"><path fill="#1B459B" d="M12.267 8.333a.6.6 0 1 0-1.2 0h1.2Zm-1.2 5.834a.6.6 0 0 0 1.2 0h-1.2ZM8.933 8.333a.6.6 0 0 0-1.2 0h1.2Zm-1.2 5.834a.6.6 0 0 0 1.2 0h-1.2ZM15 5h.6a.6.6 0 0 0-.6-.6V5ZM5 5v-.6a.6.6 0 0 0-.6.6H5Zm.91 12.318.272-.534-.272.534Zm-.728-.728-.535.272.535-.272Zm9.637 0-.535-.272.535.272Zm-.73.728-.271-.534.272.534ZM3.334 4.4a.6.6 0 0 0 0 1.2V4.4Zm13.334 1.2a.6.6 0 1 0 0-1.2v1.2ZM13.333 5v.6a.6.6 0 0 0 .6-.6h-.6ZM6.667 5h-.6a.6.6 0 0 0 .6.6V5Zm6.54-1.471.554-.23-.555.23Zm-.902-.902.23-.554-.23.554Zm-1.238 5.706v5.834h1.2V8.333h-1.2Zm-3.334 0v5.834h1.2V8.333h-1.2ZM14.4 5v9.833h1.2V5h-1.2Zm-2.066 11.9H7.667v1.2h4.667v-1.2ZM5.6 14.833V5H4.4v9.833h1.2ZM5 5.6h10V4.4H5v1.2Zm2.667 11.3c-.477 0-.798 0-1.046-.02-.241-.02-.36-.056-.439-.096l-.545 1.069c.277.141.571.196.886.222.308.026.687.025 1.144.025v-1.2ZM4.4 14.833c0 .457 0 .836.025 1.144.025.315.081.608.222.885l1.07-.544c-.041-.08-.077-.198-.096-.439-.02-.248-.021-.57-.021-1.046H4.4Zm1.782 1.95a1.066 1.066 0 0 1-.466-.465l-1.069.544c.217.427.564.774.99.99l.545-1.068Zm8.218-1.95c0 .477 0 .798-.02 1.046-.02.241-.056.36-.096.439l1.07.544c.14-.277.196-.57.221-.885.026-.308.025-.687.025-1.144h-1.2ZM12.334 18.1c.456 0 .835 0 1.143-.025.315-.026.608-.081.885-.222l-.544-1.07c-.08.041-.198.077-.439.096-.248.02-.569.021-1.045.021v1.2Zm1.95-1.782c-.102.2-.266.363-.466.466l.544 1.069c.426-.217.774-.564.991-.99l-1.069-.545ZM3.334 5.6h13.333V4.4H3.333v1.2Zm10-1.2H6.666v1.2h6.666V4.4ZM9.166 3.1h1.666V1.9H9.167v1.2ZM7.267 5c0-.396 0-.664.014-.871.014-.202.039-.303.067-.37l-1.109-.46a2.328 2.328 0 0 0-.155.748c-.018.258-.017.573-.017.953h1.2Zm1.9-3.1c-.38 0-.696 0-.953.017-.263.018-.51.057-.748.156l.459 1.108c.068-.028.169-.053.37-.067.208-.014.475-.014.872-.014V1.9Zm-1.82 1.858c.11-.261.317-.469.578-.577l-.46-1.108c-.555.23-.996.671-1.226 1.226l1.109.46ZM13.934 5c0-.38 0-.695-.017-.953a2.328 2.328 0 0 0-.155-.748l-1.109.46c.028.067.053.168.067.37.014.207.014.475.014.871h1.2Zm-3.1-1.9c.397 0 .664 0 .871.014.202.014.303.04.37.067l.46-1.108a2.328 2.328 0 0 0-.748-.156c-.257-.017-.573-.017-.953-.017v1.2Zm2.928.2a2.266 2.266 0 0 0-1.227-1.227l-.46 1.108c.262.108.47.316.578.577l1.109-.459Z"/></svg>