<svg width="20" height="21" viewBox="0 0 20 21" fill="none" xmlns="http://www.w3.org/2000/svg">
<path d="M12.4996 2.16797V10.5013C12.4996 11.418 11.7496 12.168 10.8329 12.168H1.66626V5.5013C1.66626 3.65964 3.15793 2.16797 4.99959 2.16797H12.4996Z" stroke="#020203" stroke-linecap="round" stroke-linejoin="round"/>
<path d="M18.3329 12.168V14.668C18.3329 16.0513 17.2163 17.168 15.8329 17.168H14.9996C14.9996 16.2513 14.2496 15.5013 13.3329 15.5013C12.4163 15.5013 11.6663 16.2513 11.6663 17.168H8.33293C8.33293 16.2513 7.58293 15.5013 6.66626 15.5013C5.74959 15.5013 4.99959 16.2513 4.99959 17.168H4.16626C2.78293 17.168 1.66626 16.0513 1.66626 14.668V12.168H10.8329C11.7496 12.168 12.4996 11.418 12.4996 10.5013V4.66797H14.0329C14.6329 4.66797 15.1829 4.99298 15.4829 5.50964L16.9079 8.0013H15.8329C15.3746 8.0013 14.9996 8.3763 14.9996 8.83464V11.3346C14.9996 11.793 15.3746 12.168 15.8329 12.168H18.3329Z" stroke="#020203" stroke-linecap="round" stroke-linejoin="round"/>
<path d="M6.66667 18.8333C7.58714 18.8333 8.33333 18.0871 8.33333 17.1667C8.33333 16.2462 7.58714 15.5 6.66667 15.5C5.74619 15.5 5 16.2462 5 17.1667C5 18.0871 5.74619 18.8333 6.66667 18.8333Z" stroke="#020203" stroke-linecap="round" stroke-linejoin="round"/>
<path d="M13.3329 18.8333C14.2534 18.8333 14.9996 18.0871 14.9996 17.1667C14.9996 16.2462 14.2534 15.5 13.3329 15.5C12.4125 15.5 11.6663 16.2462 11.6663 17.1667C11.6663 18.0871 12.4125 18.8333 13.3329 18.8333Z" stroke="#020203" stroke-linecap="round" stroke-linejoin="round"/>
<path d="M18.3333 10.5V12.1667H15.8333C15.375 12.1667 15 11.7917 15 11.3333V8.83333C15 8.375 15.375 8 15.8333 8H16.9083L18.3333 10.5Z" stroke="#020203" stroke-linecap="round" stroke-linejoin="round"/>
</svg>
