<svg width="17" height="17" viewBox="0 0 17 17" fill="none" xmlns="http://www.w3.org/2000/svg">
<path d="M10.4997 1.83398V8.50065C10.4997 9.23398 9.89967 9.83398 9.16634 9.83398H1.83301V4.50065C1.83301 3.02732 3.02634 1.83398 4.49967 1.83398H10.4997Z" stroke="#5A5C81" stroke-linecap="round" stroke-linejoin="round"/>
<path d="M15.1663 9.83398V11.834C15.1663 12.9407 14.273 13.834 13.1663 13.834H12.4997C12.4997 13.1007 11.8997 12.5007 11.1663 12.5007C10.433 12.5007 9.83301 13.1007 9.83301 13.834H7.16634C7.16634 13.1007 6.56634 12.5007 5.83301 12.5007C5.09967 12.5007 4.49967 13.1007 4.49967 13.834H3.83301C2.72634 13.834 1.83301 12.9407 1.83301 11.834V9.83398H9.16634C9.89967 9.83398 10.4997 9.23398 10.4997 8.50065V3.83398H11.7263C12.2063 3.83398 12.6463 4.09399 12.8863 4.50732L14.0263 6.50065H13.1663C12.7997 6.50065 12.4997 6.80065 12.4997 7.16732V9.16732C12.4997 9.53398 12.7997 9.83398 13.1663 9.83398H15.1663Z" stroke="#5A5C81" stroke-linecap="round" stroke-linejoin="round"/>
<path d="M5.83333 15.1667C6.56971 15.1667 7.16667 14.5697 7.16667 13.8333C7.16667 13.097 6.56971 12.5 5.83333 12.5C5.09695 12.5 4.5 13.097 4.5 13.8333C4.5 14.5697 5.09695 15.1667 5.83333 15.1667Z" stroke="#5A5C81" stroke-linecap="round" stroke-linejoin="round"/>
<path d="M11.1663 15.1667C11.9027 15.1667 12.4997 14.5697 12.4997 13.8333C12.4997 13.097 11.9027 12.5 11.1663 12.5C10.43 12.5 9.83301 13.097 9.83301 13.8333C9.83301 14.5697 10.43 15.1667 11.1663 15.1667Z" stroke="#5A5C81" stroke-linecap="round" stroke-linejoin="round"/>
<path d="M15.1667 8.5V9.83333H13.1667C12.8 9.83333 12.5 9.53333 12.5 9.16667V7.16667C12.5 6.8 12.8 6.5 13.1667 6.5H14.0267L15.1667 8.5Z" stroke="#5A5C81" stroke-linecap="round" stroke-linejoin="round"/>
</svg>
