<svg width="20" height="21" viewBox="0 0 20 21" fill="none" xmlns="http://www.w3.org/2000/svg">
<path d="M2.6416 6.69922L9.99992 10.9575L17.3082 6.72419" stroke="#020203" stroke-linecap="round" stroke-linejoin="round"/>
<path d="M10 18.5076V10.9492" stroke="#020203" stroke-linecap="round" stroke-linejoin="round"/>
<path d="M8.2755 2.56797L3.82551 5.043C2.81717 5.60133 1.99219 7.00131 1.99219 8.15131V12.8597C1.99219 14.0097 2.81717 15.4096 3.82551 15.968L8.2755 18.443C9.2255 18.968 10.7838 18.968 11.7338 18.443L16.1839 15.968C17.1922 15.4096 18.0172 14.0097 18.0172 12.8597V8.15131C18.0172 7.00131 17.1922 5.60133 16.1839 5.043L11.7338 2.56797C10.7755 2.03464 9.2255 2.03464 8.2755 2.56797Z" stroke="#020203" stroke-linecap="round" stroke-linejoin="round"/>
<path d="M14.1669 11.5346V8.48467L6.25854 3.91797" stroke="#020203" stroke-linecap="round" stroke-linejoin="round"/>
</svg>
