<svg width="20" height="20" viewBox="0 0 20 20" fill="none" xmlns="http://www.w3.org/2000/svg">
<path d="M2.98924 11.4824L3.41226 11.0569L2.98924 11.4824ZM2.98924 8.51759L2.56623 8.09208L2.56623 8.09208L2.98924 8.51759ZM17.0113 8.51759L16.5883 8.9431V8.9431L17.0113 8.51759ZM17.0113 11.4824L17.4343 11.9079L17.0113 11.4824ZM17.7231 9.48313L18.2935 9.29705L17.7231 9.48313ZM17.7231 10.5169L18.2935 10.7029L17.7231 10.5169ZM2.27757 10.5169L1.70716 10.7029L2.27757 10.5169ZM2.27757 9.48313L2.84799 9.66921L2.27757 9.48313ZM10.0004 14.4C7.31347 14.4 4.87798 12.514 3.41226 11.0569L2.56623 11.9079C4.06623 13.3991 6.8029 15.6 10.0004 15.6V14.4ZM3.41226 8.9431C4.87798 7.48596 7.31348 5.6 10.0004 5.6V4.4C6.8029 4.4 4.06623 6.60085 2.56623 8.09208L3.41226 8.9431ZM10.0004 5.6C12.6873 5.6 15.1226 7.48594 16.5883 8.9431L17.4343 8.09208C15.9343 6.60087 13.1979 4.4 10.0004 4.4V5.6ZM16.5883 11.0569C15.1226 12.514 12.6873 14.4 10.0004 14.4V15.6C13.1979 15.6 15.9343 13.3991 17.4343 11.9079L16.5883 11.0569ZM16.5883 8.9431C16.9927 9.34518 17.0795 9.44483 17.1527 9.66921L18.2935 9.29705C18.1176 8.75768 17.8126 8.46819 17.4343 8.09208L16.5883 8.9431ZM17.4343 11.9079C17.8126 11.5318 18.1176 11.2423 18.2935 10.7029L17.1527 10.3308C17.0795 10.5552 16.9927 10.6548 16.5883 11.0569L17.4343 11.9079ZM17.1527 9.66921C17.1702 9.72273 17.1898 9.84366 17.1898 10C17.1898 10.1563 17.1702 10.2773 17.1527 10.3308L18.2935 10.7029C18.3649 10.4841 18.3898 10.2243 18.3898 10C18.3898 9.77566 18.3649 9.5159 18.2935 9.29705L17.1527 9.66921ZM3.41226 11.0569C3.00793 10.6549 2.92121 10.5552 2.84799 10.3308L1.70716 10.7029C1.88309 11.2423 2.18779 11.5317 2.56623 11.9079L3.41226 11.0569ZM2.56623 8.09208C2.18778 8.46832 1.88309 8.75775 1.70716 9.29705L2.84799 9.66921C2.92121 9.44476 3.00794 9.34505 3.41226 8.9431L2.56623 8.09208ZM2.84799 10.3308C2.83053 10.2773 2.81094 10.1563 2.81094 10C2.81094 9.84366 2.83053 9.72273 2.84799 9.66921L1.70716 9.29705C1.63577 9.51589 1.61094 9.77565 1.61094 10C1.61094 10.2243 1.63577 10.4841 1.70716 10.7029L2.84799 10.3308ZM10.0001 11.0667C9.41105 11.0667 8.93348 10.5891 8.93348 10H7.73348C7.73348 11.2518 8.7483 12.2667 10.0001 12.2667V11.0667ZM8.93348 10C8.93348 9.4109 9.41105 8.93333 10.0001 8.93333V7.73333C8.7483 7.73333 7.73348 8.74815 7.73348 10H8.93348ZM10.0001 8.93333C10.5893 8.93333 11.0668 9.4109 11.0668 10H12.2668C12.2668 8.74815 11.252 7.73333 10.0001 7.73333V8.93333ZM11.0668 10C11.0668 10.5891 10.5893 11.0667 10.0001 11.0667V12.2667C11.252 12.2667 12.2668 11.2518 12.2668 10H11.0668Z" fill="#A3A4BD"/>
</svg>
