<svg width="21" height="21" viewBox="0 0 21 21" fill="none" xmlns="http://www.w3.org/2000/svg">
<path d="M5.00004 2.25H16C16.9167 2.25 17.6667 3 17.6667 3.91667V5.75C17.6667 6.41667 17.25 7.25 16.8334 7.66667L13.25 10.8333C12.75 11.25 12.4167 12.0833 12.4167 12.75V16.3333C12.4167 16.8333 12.0834 17.5 11.6667 17.75L10.5 18.5C9.41671 19.1667 7.91671 18.4167 7.91671 17.0833V12.6667C7.91671 12.0833 7.58337 11.3333 7.25004 10.9167L4.08337 7.58333C3.66671 7.16667 3.33337 6.41667 3.33337 5.91667V4C3.33337 3 4.08337 2.25 5.00004 2.25Z" stroke="#1B459B" stroke-miterlimit="10" stroke-linecap="round" stroke-linejoin="round"/>
</svg>
