<svg width="14" height="18" viewBox="0 0 14 18" fill="none" xmlns="http://www.w3.org/2000/svg">
<path fill-rule="evenodd" clip-rule="evenodd" d="M6.16148 0.049331C4.89208 0.199322 3.71245 0.675354 2.67522 1.45615C2.30926 1.73162 1.67651 2.35617 1.40648 2.70837C0.0860856 4.43069 -0.313866 6.49539 0.245759 8.70045C0.837401 11.0317 2.50325 13.6953 5.00503 16.3102C5.68789 17.024 6.62404 17.8956 6.77155 17.955C6.92546 18.017 7.0817 18.0149 7.24579 17.9489C7.39835 17.8875 8.77029 16.5753 9.37766 15.9099C11.673 13.3952 13.1656 10.956 13.7369 8.78595C14.3242 6.5555 13.9224 4.42281 12.5911 2.70433C12.3366 2.37583 11.7384 1.77621 11.4 1.51038C9.93214 0.357507 8.03391 -0.171945 6.16148 0.049331ZM7.40404 3.02067C7.85485 3.07043 8.23925 3.17417 8.62474 3.35008C9.49375 3.74664 10.1173 4.346 10.524 5.17544C11.2256 6.60652 10.8977 8.32113 9.71107 9.42727C8.5356 10.5229 6.82547 10.8055 5.37212 10.1443C4.9307 9.94346 4.63329 9.74617 4.29113 9.42727C3.10445 8.32113 2.77663 6.60652 3.47823 5.17544C4.11937 3.86765 5.44064 3.03526 6.94634 2.9906C7.02665 2.98821 7.23261 3.00175 7.40404 3.02067Z" fill="#003DA5"/>
</svg>
