<svg width="18" height="14" viewBox="0 0 18 14" fill="none" xmlns="http://www.w3.org/2000/svg">
<path fill-rule="evenodd" clip-rule="evenodd" d="M1.14262 0.052095C0.9019 0.113956 0.690611 0.232794 0.503615 0.411525C0.259068 0.645264 0.200463 0.804675 0.286772 1.00116C0.309131 1.05205 1.09603 1.77051 2.03544 2.59771C4.29543 4.58784 7.0167 7.00419 7.90474 7.80937C8.52332 8.37021 8.6457 8.46564 8.81002 8.51518C8.98147 8.56687 9.01814 8.56698 9.18556 8.51653C9.38957 8.45503 9.38303 8.46028 10.3711 7.56335C11.2001 6.81084 13.643 4.64216 15.9647 2.59771C16.904 1.77051 17.6909 1.05205 17.7133 1.00116C17.7996 0.804602 17.741 0.645264 17.4961 0.411234C17.3045 0.228019 17.0609 0.0965318 16.8118 0.041706C16.5303 -0.0202283 1.38505 -0.0102038 1.14262 0.052095ZM0.167029 2.33666C-0.00685346 2.44169 3.71599e-05 2.22592 3.71599e-05 7.55803C3.71599e-05 10.7459 0.0127637 12.6003 0.0354747 12.7244C0.148748 13.3438 0.633342 13.8474 1.2265 13.9622C1.48715 14.0126 16.5129 14.0126 16.7736 13.9622C17.3667 13.8474 17.8513 13.3438 17.9646 12.7244C17.9873 12.6003 18 10.7459 18 7.55803C18 2.2004 18.0079 2.43563 17.8262 2.33484C17.7281 2.28038 17.5 2.28884 17.4157 2.35004C17.3012 2.43323 12.6066 6.58173 11.4999 7.57775C10.9508 8.07187 10.3576 8.60548 10.1815 8.76354C9.68165 9.21228 9.2551 9.37698 8.79272 9.29977C8.35372 9.22646 8.22899 9.14222 7.27738 8.27608C6.18051 7.27774 0.951541 2.64637 0.619314 2.37895C0.510014 2.29095 0.278545 2.26933 0.167029 2.33666Z" fill="#003DA5"/>
</svg>
