<svg width="16" height="16" viewBox="0 0 16 16" fill="none" xmlns="http://www.w3.org/2000/svg">
<path fill-rule="evenodd" clip-rule="evenodd" d="M7.24109 0.0194261C5.74444 0.175076 4.38259 0.7095 3.16658 1.61844C2.77136 1.9139 1.91997 2.76494 1.62916 3.15527C0.858872 4.18924 0.359457 5.31411 0.139773 6.50995C-0.276724 8.77694 0.242747 10.9876 1.62916 12.8486C1.91997 13.2389 2.77136 14.0899 3.16658 14.3854C4.30687 15.2377 5.57044 15.7541 7.02172 15.9608C7.39191 16.0136 8.62212 16.0129 9.00861 15.9598C10.8196 15.7107 12.4414 14.9075 13.6749 13.6487C14.068 13.2477 14.1616 13.141 14.4129 12.8082C15.2246 11.7336 15.7574 10.4186 15.9607 8.98823C16.0131 8.61982 16.0131 7.38383 15.9607 7.0156C15.7808 5.75059 15.3344 4.55208 14.6778 3.57134C13.3916 1.65 11.4142 0.401583 9.11813 0.0613835C8.7343 0.00449054 7.62339 -0.0203082 7.24109 0.0194261ZM8.29984 2.94107C8.36702 2.97789 8.45347 3.06381 8.4954 3.13539L8.57056 3.26374V5.49177V7.71983L9.94627 8.82121C10.9796 9.64843 11.3354 9.95049 11.376 10.0347C11.4057 10.0963 11.4303 10.2202 11.4307 10.31C11.4319 10.6108 11.1853 10.8513 10.8756 10.8513C10.7918 10.8513 10.679 10.8296 10.6248 10.8032C10.4852 10.7351 7.60177 8.41197 7.52401 8.30492C7.46068 8.21778 7.45965 8.18133 7.45139 5.74264L7.443 3.26875L7.51278 3.1445C7.62298 2.9483 7.87145 2.82478 8.08557 2.85972C8.1372 2.86818 8.23363 2.90478 8.29984 2.94107Z" fill="#003DA5"/>
</svg>
