<svg width="18" height="19" viewBox="0 0 18 19" fill="none" xmlns="http://www.w3.org/2000/svg">
<path fill-rule="evenodd" clip-rule="evenodd" d="M3.57067 0.0658753C3.30446 0.162741 3.12771 0.284853 2.53576 0.780913C1.84755 1.35761 1.62367 1.56701 1.37105 1.87012C0.550956 2.85422 0.101839 3.98928 0.0157323 5.29568C-0.0603667 6.44971 0.137415 7.5632 0.656928 8.90592C0.838131 9.37424 1.46003 10.5631 1.81866 11.1268C3.24664 13.3712 5.53108 15.8059 7.48851 17.1695C10.2689 19.1065 13.0189 19.5183 15.3541 18.3473C15.8631 18.0921 16.2296 17.835 16.8231 17.3168C17.7509 16.5068 17.9173 16.302 17.9839 15.8876C18.092 15.2153 17.675 14.6379 16.1748 13.3825C15.591 12.894 15.1978 12.6193 14.7935 12.4175C14.3906 12.2164 14.0927 12.1355 13.7592 12.1367C13.1055 12.1392 12.727 12.3611 11.6513 13.373C11.3558 13.651 11.0564 13.8983 10.9581 13.9458C10.2951 14.2655 9.45145 14.0165 8.3949 13.1891C7.44542 12.4455 5.98288 10.7844 5.31929 9.69565C4.87565 8.96781 4.68908 8.44409 4.68889 7.92601C4.68871 7.34887 4.86062 7.06555 5.4869 6.61085C5.86943 6.33313 6.58393 5.71274 6.74806 5.51585C6.82141 5.42786 6.9355 5.24226 7.00159 5.10336C7.10122 4.89408 7.1249 4.79242 7.13993 4.51007C7.16391 4.05945 7.06836 3.68818 6.7748 3.09117C6.52124 2.5755 5.8342 1.49253 5.45385 1.00895C4.78894 0.163558 4.16334 -0.149687 3.57067 0.0658753Z" fill="#003DA5"/>
</svg>
