<svg width="18" height="17" viewBox="0 0 18 17" fill="none" xmlns="http://www.w3.org/2000/svg">
<path d="M1 14.2702V2.5C1 1.39543 1.89543 0.5 3 0.5H15C16.1046 0.5 17 1.39543 17 2.5V14.4669C17 15.5843 16.0845 16.485 14.9672 16.4667L2.96722 16.27C1.87558 16.2521 1 15.362 1 14.2702Z" fill="#FFF7EB" stroke="#FBAD39"/>
<line x1="6.04175" y1="3.5415" x2="6.04175" y2="13.4582" stroke="#FBAD39" stroke-width="0.75" stroke-linecap="round"/>
<line x1="10.625" y1="6.2085" x2="7.375" y2="6.2085" stroke="#FBAD39" stroke-width="0.75" stroke-linecap="round"/>
<line x1="15.2917" y1="6.2085" x2="14.0417" y2="6.2085" stroke="#FBAD39" stroke-width="0.75" stroke-linecap="round"/>
<line x1="3.95825" y1="6.2085" x2="2.70825" y2="6.2085" stroke="#FBAD39" stroke-width="0.75" stroke-linecap="round"/>
<line x1="10.625" y1="10.875" x2="7.375" y2="10.875" stroke="#FBAD39" stroke-width="0.75" stroke-linecap="round"/>
<line x1="15.2917" y1="10.875" x2="14.0417" y2="10.875" stroke="#FBAD39" stroke-width="0.75" stroke-linecap="round"/>
<line x1="3.95825" y1="10.875" x2="2.70825" y2="10.875" stroke="#FBAD39" stroke-width="0.75" stroke-linecap="round"/>
<line x1="12.0417" y1="3.5415" x2="12.0417" y2="13.4582" stroke="#FBAD39" stroke-width="0.75" stroke-linecap="round"/>
</svg>
