<svg width="36" height="48" viewBox="0 0 36 48" fill="none" xmlns="http://www.w3.org/2000/svg">
<path fill-rule="evenodd" clip-rule="evenodd" d="M15.7934 0.0993269C11.804 0.613508 8.12551 2.41774 5.27965 5.25596C2.40144 8.12637 0.613665 11.8231 0.127208 15.91C-0.128872 18.0624 -0.00270807 19.9726 0.545564 22.244C2.14845 28.8836 7.37406 37.1437 15.2965 45.5605C17.3397 47.7312 17.6381 48 18.0047 48C18.3605 48 18.9191 47.4823 21.0922 45.1382C29.8224 35.7213 34.9653 26.9735 35.8646 20.0108C36.5489 14.7136 34.61 9.16506 30.7072 5.25174C28.0278 2.56515 24.7331 0.872194 20.8587 0.191091C19.6665 -0.0185219 17.072 -0.0655301 15.7934 0.0993269ZM20.0144 9.97968C23.0671 10.8159 25.2092 12.9823 26.0258 16.0592C26.2828 17.0274 26.2684 18.989 25.997 19.9921C25.4456 22.0302 24.2041 23.7751 22.5387 24.8527C17.1888 28.3146 10.1817 24.8006 9.77042 18.4494C9.61968 16.1229 10.4899 13.8576 12.1857 12.1612C13.4215 10.9251 14.8267 10.1793 16.5438 9.8485C17.4238 9.67886 19.1552 9.74435 20.0144 9.97968Z" fill="#003DA5"/>
</svg>
