<?xml version="1.0" standalone="no"?>
<!DOCTYPE svg PUBLIC "-//W3C//DTD SVG 20010904//EN"
 "http://www.w3.org/TR/2001/REC-SVG-20010904/DTD/svg10.dtd">
<svg version="1.0" xmlns="http://www.w3.org/2000/svg"
 width="512.000000pt" height="512.000000pt" viewBox="0 0 512.000000 512.000000"
 preserveAspectRatio="xMidYMid meet">

<g transform="translate(0.000000,512.000000) scale(0.100000,-0.100000)"
fill="#1B459B" stroke="none">
<path d="M69 4437 c-19 -12 -42 -38 -51 -57 -17 -33 -18 -141 -18 -1820 0
-1679 1 -1787 18 -1820 9 -19 32 -45 51 -57 l34 -23 2457 0 2457 0 34 23 c19
12 42 38 51 57 17 33 18 141 18 1820 0 1679 -1 1787 -18 1820 -9 19 -32 45
-51 57 l-34 23 -2457 0 -2457 0 -34 -23z m4483 -314 c-23 -21 -435 -414 -917
-873 -571 -545 -893 -845 -928 -865 -48 -28 -60 -30 -147 -30 -87 0 -99 2
-147 30 -50 29 -176 147 -1440 1353 l-443 422 2031 0 2032 0 -41 -37z m-3500
-876 l607 -578 -675 -734 c-372 -404 -678 -735 -680 -735 -2 0 -4 622 -4 1381
l0 1381 73 -68 c39 -37 345 -328 679 -647z m3766 -1359 l-3 -691 -677 736
-677 736 677 645 677 645 3 -690 c1 -379 1 -1000 0 -1381z m-2777 417 c145
-137 207 -181 317 -223 60 -24 81 -26 202 -26 121 0 142 2 202 26 111 42 172
86 331 236 144 137 151 142 168 125 10 -10 319 -346 688 -748 l671 -730 -1030
-3 c-567 -1 -1493 -1 -2060 0 l-1030 3 687 747 c587 640 689 746 702 735 9 -6
77 -70 152 -142z"/>
<path d="M1749 3856 c-88 -60 -82 -196 11 -251 34 -20 49 -20 800 -20 751 0
766 0 800 20 95 56 98 197 7 254 -34 21 -40 21 -808 21 l-774 0 -36 -24z"/>
<path d="M2123 3269 c-44 -22 -83 -82 -83 -129 0 -44 38 -105 79 -128 38 -22
46 -22 441 -22 395 0 403 0 441 22 41 23 79 84 79 128 0 48 -39 108 -84 129
-41 20 -59 21 -437 21 -379 0 -396 -1 -436 -21z"/>
</g>
</svg>
