<svg width="181" height="140" viewBox="0 0 181 140" fill="none" xmlns="http://www.w3.org/2000/svg">
<path d="M167.763 125.558H167.153H165.324H158.396L132.886 125.627L48.7366 125.71H12.2251V125.475C12.2251 101.434 12.2251 80.7463 12.3082 66.0585C12.3082 58.7424 12.3082 52.9088 12.3082 48.9044C12.3082 46.909 12.3082 45.371 12.3082 44.3179C12.3082 43.8052 12.3082 43.4172 12.3082 43.1401C12.3082 42.863 12.3082 42.7383 12.3082 42.7383C12.3082 42.7383 12.3082 42.8768 12.3082 43.1401C12.3082 43.4034 12.3082 43.8052 12.3082 44.3179C12.3082 45.371 12.3082 46.909 12.3082 48.9044C12.3082 52.9088 12.3082 58.7424 12.3775 66.0585C12.3775 80.7463 12.3775 101.434 12.4607 125.475L12.2251 125.239H48.5287L132.678 125.308L158.188 125.391H165.116H166.931L167.763 125.558Z" fill="#263238"/>
<path d="M40.7555 105.12H25.0701V120.805H40.7555V105.12Z" fill="#CAD3E2"/>
<path d="M63.7572 93.8958H48.0718V120.805H63.7572V93.8958Z" fill="#CAD3E2"/>
<path d="M86.8556 81.1619H71.1702V120.805H86.8556V81.1619Z" fill="#CAD3E2"/>
<path d="M109.234 66.9729H93.5486V120.805H109.234V66.9729Z" fill="#CAD3E2"/>
<path d="M132.138 48.821H116.453V120.805H132.138V48.821Z" fill="#CAD3E2"/>
<path d="M154.877 34.9646H139.191V120.056H154.877V34.9646Z" fill="#CAD3E2"/>
<g opacity="0.5">
<path d="M63.7572 93.8958H48.0718V120.805H63.7572V93.8958Z" fill="white"/>
</g>
<g opacity="0.5">
<path d="M109.234 66.9729H93.5486V120.805H109.234V66.9729Z" fill="white"/>
</g>
<g opacity="0.5">
<path d="M154.877 34.9646H139.191V120.056H154.877V34.9646Z" fill="white"/>
</g>
<path d="M25.0701 89.0321L25.2779 88.8797L25.8876 88.4501L28.2709 86.8567L37.2637 80.9262L68.3989 60.585L68.7592 60.3495V60.779C68.7592 62.996 68.7592 65.3793 68.7592 67.8042L68.385 67.5964L80.6479 59.3795L123.935 30.4475L137.099 21.7318L140.687 19.3762L141.616 18.7804L141.948 18.5864C141.948 18.5864 141.851 18.6696 141.644 18.822L140.743 19.4594L137.196 21.8842L124.143 30.6969L80.9389 59.7952L68.6622 68.012L68.288 68.2615V60.7929L68.6483 60.9869L37.4299 81.1756L28.3679 86.9814L25.9292 88.5194L25.2918 88.9074L25.0701 89.0321Z" fill="#51545A"/>
<path d="M141.962 25.2238C141.834 24.5902 141.778 23.944 141.796 23.2978C141.796 22.0923 141.727 20.4295 141.727 18.5589L141.962 18.7944H141.367C139.357 18.7944 137.542 18.7944 136.226 18.7944C135.511 18.8125 134.796 18.7568 134.092 18.6282C134.793 18.4812 135.51 18.4207 136.226 18.448C137.542 18.448 139.357 18.448 141.367 18.448H142.212V18.6974C142.212 20.568 142.212 22.2308 142.129 23.4363C142.144 24.0366 142.088 24.6366 141.962 25.2238V25.2238Z" fill="#51545A"/>
</svg>
