<svg width="182" height="138" viewBox="0 0 182 138" fill="none" xmlns="http://www.w3.org/2000/svg">
<path d="M66.4709 30.9288C66.1592 29.5761 65.3981 28.369 64.3118 27.5047C63.2256 26.6403 61.8784 26.1698 60.4902 26.1699H15.8581C14.2305 26.1699 12.6695 26.8165 11.5187 27.9674C10.3678 29.1183 9.72119 30.6792 9.72119 32.3068V131.513C9.72119 133.14 10.3678 134.701 11.5187 135.852C12.6695 137.003 14.2305 137.65 15.8581 137.65H157.565C159.193 137.65 160.754 137.003 161.904 135.852C163.055 134.701 163.702 133.14 163.702 131.513V48.1791C163.702 46.5515 163.055 44.9906 161.904 43.8397C160.754 42.6888 159.193 42.0422 157.565 42.0422H80.4352C77.1936 42.0428 74.0476 40.944 71.5113 38.9254C68.9749 36.9069 67.198 34.0878 66.4709 30.9288Z" fill="#CAD3E2"/>
<path opacity="0.6" d="M66.4709 30.9288C66.1592 29.5761 65.3981 28.369 64.3118 27.5047C63.2256 26.6403 61.8784 26.1698 60.4902 26.1699H15.8581C14.2305 26.1699 12.6695 26.8165 11.5187 27.9674C10.3678 29.1183 9.72119 30.6792 9.72119 32.3068V131.513C9.72119 133.14 10.3678 134.701 11.5187 135.852C12.6695 137.003 14.2305 137.65 15.8581 137.65H157.565C159.193 137.65 160.754 137.003 161.904 135.852C163.055 134.701 163.702 133.14 163.702 131.513V48.1791C163.702 46.5515 163.055 44.9906 161.904 43.8397C160.754 42.6888 159.193 42.0422 157.565 42.0422H80.4352C77.1936 42.0428 74.0476 40.944 71.5113 38.9254C68.9749 36.9069 67.198 34.0878 66.4709 30.9288Z" fill="black"/>
<path opacity="0.22" d="M50.7163 0.0322266L54.6941 12.9142C55.2019 14.5537 56.3397 15.9246 57.8575 16.7259C59.3753 17.5271 61.1491 17.6932 62.7893 17.1877L75.6657 13.2099L50.7163 0.0322266Z" fill="#CAD3E2"/>
<path d="M50.7161 0.0322266L4.68927 14.2531C3.87676 14.5027 3.12143 14.9101 2.4665 15.4519C1.81157 15.9937 1.26989 16.6594 0.872455 17.4107C0.475016 18.1621 0.229612 18.9844 0.150289 19.8307C0.0709656 20.677 0.159277 21.5306 0.410171 22.3427L26.6873 107.411C26.9381 108.224 27.3465 108.979 27.8891 109.633C28.4317 110.287 29.0979 110.828 29.8496 111.225C30.6013 111.622 31.4239 111.867 32.2703 111.946C33.1167 112.025 33.9703 111.936 34.7825 111.685L93.6913 93.4863C94.5033 93.2361 95.258 92.8283 95.9123 92.2863C96.5667 91.7442 97.1077 91.0785 97.5046 90.3272C97.9015 89.5759 98.1464 88.7538 98.2254 87.9077C98.3044 87.0617 98.2158 86.2085 97.9648 85.3967L75.6487 13.2099L50.7161 0.0322266Z" fill="#CAD3E2"/>
<path opacity="0.8" d="M50.7161 0.0322266L4.68927 14.2531C3.87676 14.5027 3.12143 14.9101 2.4665 15.4519C1.81157 15.9937 1.26989 16.6594 0.872455 17.4107C0.475016 18.1621 0.229612 18.9844 0.150289 19.8307C0.0709656 20.677 0.159277 21.5306 0.410171 22.3427L26.6873 107.411C26.9381 108.224 27.3465 108.979 27.8891 109.633C28.4317 110.287 29.0979 110.828 29.8496 111.225C30.6013 111.622 31.4239 111.867 32.2703 111.946C33.1167 112.025 33.9703 111.936 34.7825 111.685L93.6913 93.4863C94.5033 93.2361 95.258 92.8283 95.9123 92.2863C96.5667 91.7442 97.1077 91.0785 97.5046 90.3272C97.9015 89.5759 98.1464 88.7538 98.2254 87.9077C98.3044 87.0617 98.2158 86.2085 97.9648 85.3967L75.6487 13.2099L50.7161 0.0322266Z" fill="white"/>
<g opacity="0.28">
<path d="M75.4817 89.771L37.1873 101.599C36.4712 101.818 35.697 101.746 35.0342 101.397C34.3714 101.048 33.8738 100.45 33.6502 99.7351C33.4322 99.019 33.5064 98.2456 33.8565 97.584C34.2067 96.9223 34.8044 96.4261 35.5192 96.2036L73.8135 84.3705C74.5304 84.1508 75.3052 84.2241 75.9681 84.5744C76.6311 84.9247 77.1282 85.5234 77.3506 86.2395C77.5687 86.9556 77.4945 87.729 77.1443 88.3906C76.7942 89.0523 76.1964 89.5485 75.4817 89.771Z" fill="#CAD3E2"/>
</g>
<g opacity="0.28">
<path d="M34.2684 20.3569L14.0166 26.6109C13.3004 26.8294 12.527 26.7561 11.8646 26.4072C11.2021 26.0582 10.7043 25.4617 10.4795 24.7476C10.2613 24.0307 10.3353 23.2566 10.6854 22.594C11.0355 21.9315 11.6333 21.4342 12.3485 21.2105L32.6003 14.9564C33.3164 14.7349 34.0912 14.8067 34.7544 15.1561C35.4177 15.5055 35.9151 16.1039 36.1374 16.8198C36.3556 17.5367 36.2816 18.3107 35.9315 18.9733C35.5814 19.6359 34.9836 20.1332 34.2684 20.3569Z" fill="#CAD3E2"/>
</g>
<g opacity="0.28">
<path d="M50.7945 26.9902L17.3204 37.3282C16.6057 37.5428 15.8352 37.4669 15.1762 37.117C14.5171 36.7671 14.0226 36.1714 13.8 35.4592C13.5802 34.7438 13.6529 33.9704 14.0022 33.3085C14.3514 32.6466 14.9488 32.15 15.6634 31.9277L49.1375 21.5898C49.8536 21.3698 50.6278 21.4423 51.2906 21.7915C51.9534 22.1407 52.451 22.7381 52.6746 23.4532C52.8908 24.1715 52.8145 24.9462 52.4624 25.6086C52.1103 26.271 51.5109 26.7676 50.7945 26.9902Z" fill="#CAD3E2"/>
</g>
<g opacity="0.28">
<path d="M69.4839 32.9535L20.6341 48.0169C19.9186 48.2367 19.1453 48.164 18.4834 47.8147C17.8214 47.4655 17.3249 46.8681 17.1025 46.1535C16.8841 45.4373 16.9574 44.6639 17.3063 44.0015C17.6553 43.339 18.2518 42.8412 18.9659 42.6164L67.8158 27.553C68.5312 27.3348 69.3039 27.4082 69.9654 27.7572C70.6269 28.1063 71.1236 28.7027 71.3473 29.4164C71.5672 30.1326 71.4947 30.9067 71.1455 31.5695C70.7963 32.2323 70.1989 32.7299 69.4839 32.9535Z" fill="#CAD3E2"/>
</g>
<g opacity="0.28">
<path d="M72.7923 43.6657L44.3951 52.4415C43.679 52.6595 42.9056 52.5854 42.244 52.2352C41.5823 51.885 41.0861 51.2873 40.8636 50.5725C40.6453 49.8571 40.7187 49.0844 41.0678 48.4229C41.4168 47.7614 42.0132 47.2647 42.727 47.041L71.1242 38.2652C71.841 38.0486 72.6145 38.1233 73.2766 38.4732C73.9388 38.823 74.4363 39.4199 74.6613 40.1342C74.8793 40.8504 74.8051 41.6237 74.4549 42.2853C74.1048 42.947 73.5071 43.4432 72.7923 43.6657Z" fill="#CAD3E2"/>
</g>
<g opacity="0.28">
<path d="M31.3743 56.4644L23.9486 58.7574C23.2325 58.9774 22.4584 58.9048 21.7955 58.5557C21.1327 58.2065 20.6351 57.6091 20.4115 56.894C20.1918 56.1772 20.2651 55.4024 20.6154 54.7394C20.9657 54.0765 21.5644 53.5794 22.2805 53.357L29.7062 51.064C30.4223 50.8455 31.1958 50.9188 31.8582 51.2677C32.5206 51.6167 33.0184 52.2132 33.2433 52.9274C33.4599 53.6442 33.3852 54.4177 33.0354 55.0798C32.6855 55.742 32.0886 56.2395 31.3743 56.4644Z" fill="#CAD3E2"/>
</g>
<g opacity="0.28">
<path d="M76.1067 54.3832L27.2568 69.4744C26.5407 69.6925 25.7674 69.6183 25.1057 69.2681C24.444 68.918 23.9478 68.3202 23.7253 67.6055C23.5055 66.8901 23.5782 66.1167 23.9275 65.4548C24.2767 64.7929 24.8741 64.2963 25.5887 64.074L74.4386 48.9827C75.154 48.7645 75.9267 48.8379 76.5882 49.1869C77.2497 49.536 77.7464 50.1324 77.9701 50.8461C78.19 51.5623 78.1175 52.3364 77.7683 52.9992C77.4191 53.662 76.8217 54.1596 76.1067 54.3832Z" fill="#CAD3E2"/>
</g>
<g opacity="0.28">
<path d="M60.5631 70.919L30.5647 80.1858C29.8493 80.404 29.0766 80.3306 28.4151 79.9816C27.7536 79.6325 27.2568 79.0361 27.0332 78.3224C26.8148 77.6062 26.888 76.8328 27.237 76.1704C27.586 75.5079 28.1824 75.0102 28.8966 74.7853L58.8949 65.5186C59.6118 65.3004 60.3859 65.3744 61.0485 65.7245C61.711 66.0746 62.2083 66.6723 62.432 67.3875C62.6516 68.1037 62.5781 68.8777 62.2278 69.5397C61.8774 70.2018 61.2787 70.6978 60.5631 70.919Z" fill="#CAD3E2"/>
</g>
<g opacity="0.28">
<path d="M79.4149 65.1004L71.409 67.5719C70.6921 67.7901 69.918 67.7161 69.2555 67.366C68.5929 67.0159 68.0956 66.4181 67.8719 65.7029C67.6539 64.9868 67.728 64.2135 68.0782 63.5518C68.4284 62.8902 69.0261 62.3939 69.7409 62.1714L77.7467 59.6999C78.4622 59.4801 79.2355 59.5528 79.8974 59.9021C80.5594 60.2513 81.0559 60.8487 81.2783 61.5633C81.4982 62.2795 81.4257 63.0536 81.0765 63.7164C80.7273 64.3792 80.1299 64.8768 79.4149 65.1004Z" fill="#CAD3E2"/>
</g>
<g opacity="0.28">
<path d="M82.7237 75.8235L33.885 90.8868C33.1681 91.1066 32.3933 91.0333 31.7304 90.683C31.0674 90.3327 30.5703 89.7339 30.3479 89.0179C30.1283 88.3017 30.2018 87.5277 30.5522 86.8657C30.9025 86.2036 31.5012 85.7076 32.2168 85.4864L81.0611 70.3951C81.778 70.1784 82.5514 70.2532 83.2136 70.603C83.8757 70.9529 84.3732 71.5498 84.5982 72.2641C84.7103 72.6209 84.7506 72.9963 84.7169 73.3687C84.6833 73.7411 84.5762 74.1032 84.402 74.4341C84.2277 74.7649 83.9897 75.058 83.7017 75.2965C83.4136 75.535 83.0812 75.7141 82.7237 75.8235Z" fill="#CAD3E2"/>
</g>
<path d="M103.661 6.21387L55.5809 9.18191C54.7314 9.23239 53.9003 9.44989 53.1351 9.82196C52.3698 10.194 51.6854 10.7134 51.1211 11.3502C50.5568 11.9871 50.1236 12.729 49.8463 13.5335C49.5691 14.3379 49.4532 15.1892 49.5053 16.0385L54.9895 104.901C55.0406 105.751 55.259 106.582 55.6321 107.348C56.0052 108.113 56.5256 108.797 57.1636 109.361C57.8016 109.925 58.5446 110.358 59.35 110.634C60.1555 110.91 61.0075 111.025 61.8572 110.971L123.394 107.172C124.242 107.121 125.072 106.902 125.836 106.53C126.6 106.157 127.283 105.638 127.846 105.001C128.409 104.364 128.841 103.622 129.116 102.818C129.392 102.014 129.506 101.163 129.453 100.315L124.822 24.9036L103.661 6.21387Z" fill="#CAD3E2"/>
<path opacity="0.8" d="M103.661 6.21387L55.5809 9.18191C54.7314 9.23239 53.9003 9.44989 53.1351 9.82196C52.3698 10.194 51.6854 10.7134 51.1211 11.3502C50.5568 11.9871 50.1236 12.729 49.8463 13.5335C49.5691 14.3379 49.4532 15.1892 49.5053 16.0385L54.9895 104.901C55.0406 105.751 55.259 106.582 55.6321 107.348C56.0052 108.113 56.5256 108.797 57.1636 109.361C57.8016 109.925 58.5446 110.358 59.35 110.634C60.1555 110.91 61.0075 111.025 61.8572 110.971L123.394 107.172C124.242 107.121 125.072 106.902 125.836 106.53C126.6 106.157 127.283 105.638 127.846 105.001C128.409 104.364 128.841 103.622 129.116 102.818C129.392 102.014 129.506 101.163 129.453 100.315L124.822 24.9036L103.661 6.21387Z" fill="white"/>
<g opacity="0.22">
<path d="M106.567 99.2547L66.56 101.726C65.8126 101.769 65.0786 101.514 64.5184 101.018C63.9581 100.521 63.617 99.8233 63.5696 99.0762C63.5268 98.3291 63.7805 97.5954 64.2757 97.0344C64.7709 96.4734 65.4675 96.1305 66.2141 96.0803L106.221 93.6144C106.969 93.57 107.703 93.8232 108.264 94.3187C108.826 94.8142 109.168 95.5117 109.217 96.2588C109.261 97.0071 109.007 97.7425 108.511 98.304C108.014 98.8655 107.315 99.2073 106.567 99.2547Z" fill="#CAD3E2"/>
</g>
<g opacity="0.22">
<path d="M82.8898 22.0862L61.7286 23.3805C60.9816 23.4234 60.2478 23.1696 59.6868 22.6744C59.1258 22.1793 58.7829 21.4827 58.7327 20.7361C58.6899 19.9881 58.9444 19.2535 59.4407 18.6924C59.9371 18.1312 60.6351 17.789 61.3827 17.7401L82.5439 16.4347C83.2907 16.3904 84.0247 16.6438 84.5852 17.1394C85.1456 17.635 85.4869 18.3324 85.5343 19.0791C85.5817 19.8284 85.3298 20.5659 84.834 21.1296C84.3382 21.6934 83.639 22.0374 82.8898 22.0862Z" fill="#CAD3E2"/>
</g>
<g opacity="0.22">
<path d="M97.384 32.4299L62.4203 34.5834C61.6725 34.6292 60.9371 34.3765 60.3755 33.8807C59.8138 33.3849 59.4717 32.6866 59.4244 31.9389C59.3801 31.1906 59.6341 30.4552 60.1307 29.8937C60.6274 29.3322 61.3263 28.9904 62.0744 28.943L97.0325 26.7895C97.7803 26.7437 98.5157 26.9964 99.0774 27.4921C99.639 27.9879 99.9811 28.6863 100.028 29.4339C100.073 30.1814 99.8196 30.9159 99.3241 31.4773C98.8286 32.0386 98.1311 32.3811 97.384 32.4299Z" fill="#CAD3E2"/>
</g>
<g opacity="0.22">
<path d="M114.138 42.634L63.1126 45.7806C62.3628 45.8264 61.6254 45.5733 61.0618 45.0766C60.4982 44.5799 60.1543 43.8802 60.1056 43.1305C60.0613 42.3837 60.3146 41.6497 60.8103 41.0893C61.3059 40.5288 62.0034 40.1876 62.75 40.1402L113.781 36.988C114.529 36.9453 115.263 37.1999 115.823 37.6964C116.383 38.1929 116.724 38.891 116.772 39.6381C116.816 40.3837 116.564 41.1167 116.071 41.6777C115.578 42.2387 114.883 42.5824 114.138 42.634Z" fill="#CAD3E2"/>
</g>
<g opacity="0.22">
<path d="M114.83 53.8254L85.1663 55.6553C84.4189 55.6996 83.6843 55.4464 83.1229 54.9509C82.5616 54.4554 82.2191 53.758 82.1703 53.0108C82.1245 52.2631 82.3772 51.5276 82.873 50.966C83.3688 50.4043 84.0671 50.0623 84.8148 50.0149L114.478 48.185C115.226 48.1392 115.962 48.3919 116.523 48.8876C117.085 49.3834 117.427 50.0818 117.474 50.8294C117.519 51.5769 117.265 52.3114 116.77 52.8728C116.274 53.4341 115.577 53.7766 114.83 53.8254Z" fill="#CAD3E2"/>
</g>
<g opacity="0.22">
<path d="M71.559 56.4917L63.7986 56.9715C63.0517 57.0158 62.3177 56.7624 61.7573 56.2668C61.1968 55.7712 60.8556 55.0737 60.8082 54.3271C60.7639 53.5796 61.0171 52.8451 61.5126 52.2837C62.0081 51.7224 62.7055 51.3799 63.4527 51.3311L71.2131 50.8513C71.961 50.8085 72.6956 51.063 73.2567 51.5594C73.8179 52.0558 74.1602 52.7538 74.209 53.5014C74.2518 54.2487 73.9971 54.9827 73.5006 55.543C73.0041 56.1032 72.3061 56.4443 71.559 56.4917Z" fill="#CAD3E2"/>
</g>
<g opacity="0.22">
<path d="M115.522 65.0164L64.4903 68.163C63.7429 68.2073 63.0083 67.9541 62.447 67.4586C61.8856 66.9632 61.5432 66.2657 61.4944 65.5185C61.4516 64.7706 61.7061 64.036 62.2024 63.4749C62.6988 62.9137 63.3968 62.5714 64.1444 62.5226L115.17 59.376C115.918 59.3318 116.654 59.5857 117.215 60.0824C117.777 60.5791 118.119 61.2779 118.166 62.0261C118.21 62.7729 117.957 63.5069 117.461 64.0673C116.966 64.6278 116.268 64.9691 115.522 65.0164Z" fill="#CAD3E2"/>
</g>
<g opacity="0.22">
<path d="M96.52 77.4243L65.1827 79.3602C64.4347 79.403 63.7002 79.1485 63.139 78.6522C62.5778 78.1558 62.2356 77.4578 62.1868 76.7102C62.144 75.9628 62.3987 75.2289 62.8952 74.6686C63.3917 74.1083 64.0897 73.7673 64.8368 73.7198L96.1741 71.7839C96.9215 71.7412 97.6554 71.9958 98.2157 72.4923C98.776 72.9888 99.1171 73.6869 99.1645 74.434C99.2103 75.1812 98.9574 75.9159 98.4615 76.4767C97.9656 77.0375 97.2672 77.3784 96.52 77.4243Z" fill="#CAD3E2"/>
</g>
<g opacity="0.22">
<path d="M116.208 76.2141L107.84 76.7273C107.093 76.7716 106.359 76.5182 105.799 76.0226C105.238 75.527 104.897 74.8295 104.85 74.0829C104.804 73.3351 105.056 72.5997 105.552 72.038C106.048 71.4763 106.746 71.1343 107.494 71.0869L115.863 70.5737C116.61 70.5278 117.346 70.7805 117.907 71.2763C118.469 71.7721 118.811 72.4704 118.858 73.2181C118.901 73.9661 118.647 74.7006 118.15 75.2618C117.654 75.823 116.956 76.1652 116.208 76.2141Z" fill="#CAD3E2"/>
</g>
<g opacity="0.22">
<path d="M116.9 87.4051L65.8744 90.5517C65.127 90.596 64.3924 90.3428 63.8311 89.8473C63.2698 89.3518 62.9273 88.6544 62.8785 87.9072C62.8342 87.1598 63.0874 86.4252 63.5829 85.8639C64.0784 85.3026 64.7758 84.9601 65.523 84.9113L116.554 81.7647C117.301 81.7204 118.035 81.9738 118.595 82.4694C119.156 82.9651 119.497 83.6625 119.545 84.4092C119.59 85.157 119.338 85.8924 118.842 86.454C118.346 87.0157 117.648 87.3578 116.9 87.4051Z" fill="#CAD3E2"/>
</g>
<path opacity="0.22" d="M103.661 6.21387L104.492 19.6705C104.544 20.5189 104.762 21.3488 105.135 22.1128C105.508 22.8768 106.027 23.5598 106.664 24.123C107.301 24.6862 108.042 25.1184 108.846 25.3949C109.65 25.6715 110.5 25.787 111.349 25.7348L124.822 24.9036L103.661 6.21387Z" fill="#CAD3E2"/>
<path opacity="0.5" d="M87.9171 39.7824C87.9087 39.1375 87.7711 38.5009 87.5125 37.9101C87.2539 37.3193 86.8795 36.7864 86.4114 36.3428C85.9433 35.8991 85.3911 35.5538 84.7873 35.3272C84.1835 35.1006 83.5404 34.9974 82.896 35.0235H38.2081C34.8216 35.0235 31.5133 37.774 30.8773 41.1604L13.242 131.513C12.5837 134.899 14.793 137.649 18.1794 137.649H159.886C163.273 137.649 166.553 134.905 167.217 131.513L181.762 57.0327C182.42 53.6407 180.211 50.8958 176.824 50.8958H99.7167C93.0219 50.8958 88.1459 46.2875 87.9171 39.7824Z" fill="#CAD3E2"/>
</svg>
