<svg width="34" height="34" viewBox="0 0 34 34" fill="none" xmlns="http://www.w3.org/2000/svg">
<path d="M12.7493 31.1654H21.2493C28.3326 31.1654 31.166 28.332 31.166 21.2487V12.7487C31.166 5.66536 28.3326 2.83203 21.2493 2.83203H12.7493C5.66597 2.83203 2.83264 5.66536 2.83264 12.7487V21.2487C2.83264 28.332 5.66597 31.1654 12.7493 31.1654Z" stroke="#5690F5" stroke-width="1.5" stroke-linecap="round" stroke-linejoin="round"/>
<path d="M12.7507 14.1667C14.3155 14.1667 15.584 12.8981 15.584 11.3333C15.584 9.76853 14.3155 8.5 12.7507 8.5C11.1859 8.5 9.91736 9.76853 9.91736 11.3333C9.91736 12.8981 11.1859 14.1667 12.7507 14.1667Z" stroke="#5690F5" stroke-width="1.5" stroke-linecap="round" stroke-linejoin="round"/>
<path d="M3.78308 26.8455L10.7672 22.1563C11.8864 21.4055 13.5014 21.4905 14.5072 22.3546L14.9747 22.7655C16.0797 23.7146 17.8647 23.7146 18.9697 22.7655L24.8631 17.708C25.9681 16.7588 27.7531 16.7588 28.8581 17.708L31.1672 19.6913" stroke="#5690F5" stroke-width="1.5" stroke-linecap="round" stroke-linejoin="round"/>
</svg>
