<svg width="25" height="24" viewBox="0 0 25 24" fill="none" xmlns="http://www.w3.org/2000/svg">
<path fill-rule="evenodd" clip-rule="evenodd" d="M9.3335 9L15.3334 14.9999L9.3335 9Z" fill="#E54040"/>
<path fill-rule="evenodd" clip-rule="evenodd" d="M9.3335 15L15.3334 9.00012L9.3335 15Z" fill="#E54040"/>
<path d="M12.3335 21C7.36293 21 3.3335 16.9706 3.3335 12C3.3335 7.02944 7.36293 3 12.3335 3C17.3041 3 21.3335 7.02944 21.3335 12C21.3335 16.9706 17.3041 21 12.3335 21Z" fill="#E54040"/>
<path d="M9.68705 8.64645C9.49179 8.45118 9.17521 8.45118 8.97994 8.64645C8.78468 8.84171 8.78468 9.15829 8.97994 9.35355L9.68705 8.64645ZM14.9798 15.3534C15.1751 15.5487 15.4917 15.5487 15.6869 15.3534C15.8822 15.1582 15.8822 14.8416 15.6869 14.6463L14.9798 15.3534ZM8.97994 14.6464C8.78468 14.8417 8.78468 15.1583 8.97994 15.3535C9.17521 15.5488 9.49179 15.5488 9.68705 15.3535L8.97994 14.6464ZM15.6869 9.35368C15.8822 9.15841 15.8822 8.84183 15.6869 8.64657C15.4917 8.45131 15.1751 8.45131 14.9798 8.64657L15.6869 9.35368ZM12.3335 20.5C7.63908 20.5 3.8335 16.6944 3.8335 12H2.8335C2.8335 17.2467 7.08679 21.5 12.3335 21.5V20.5ZM3.8335 12C3.8335 7.30558 7.63908 3.5 12.3335 3.5V2.5C7.08679 2.5 2.8335 6.75329 2.8335 12H3.8335ZM12.3335 3.5C17.0279 3.5 20.8335 7.30558 20.8335 12H21.8335C21.8335 6.75329 17.5802 2.5 12.3335 2.5V3.5ZM20.8335 12C20.8335 16.6944 17.0279 20.5 12.3335 20.5V21.5C17.5802 21.5 21.8335 17.2467 21.8335 12H20.8335ZM8.97994 9.35355L14.9798 15.3534L15.6869 14.6463L9.68705 8.64645L8.97994 9.35355ZM9.68705 15.3535L15.6869 9.35368L14.9798 8.64657L8.97994 14.6464L9.68705 15.3535Z" fill="white"/>
</svg>
