<svg width="220" height="195" viewBox="0 0 220 195" fill="none" xmlns="http://www.w3.org/2000/svg">
<path opacity="0.2" d="M102.965 144.101C89.6761 149.263 75.1543 150.37 61.2363 147.279C47.3183 144.189 34.6292 137.041 24.7736 126.739C14.9179 116.438 8.33835 103.445 5.86685 89.4038C3.39535 75.3627 5.14292 60.904 10.8886 47.8562C16.6343 34.8083 26.12 23.7572 38.1463 16.1002C50.1726 8.44331 64.1993 4.52446 78.4527 4.83923C92.7062 5.15401 106.546 9.68827 118.223 17.8687C129.899 26.0491 138.888 37.5082 144.052 50.797C147.482 59.621 149.14 69.0343 148.932 78.4993C148.723 87.9643 146.652 97.2955 142.837 105.96C139.021 114.624 133.536 122.452 126.695 128.996C119.854 135.541 111.79 140.673 102.965 144.101Z" fill="#A1AFC4"/>
<path opacity="0.1" d="M89.9204 6.01597L33.3814 134.421C32.5107 133.762 31.6479 133.08 30.8007 132.39C25.3361 127.869 20.5773 122.557 16.6816 116.631L65.5179 5.71791C73.6088 4.41477 81.8638 4.5156 89.9204 6.01597Z" fill="white"/>
<path opacity="0.1" d="M130.113 28.2927L76.9548 149.019C65.9131 149.03 55.0167 146.502 45.1084 141.63L103.153 9.79675C113.437 13.8184 122.66 20.1461 130.113 28.2927Z" fill="white"/>
<path d="M17.5135 28.3477C27.1189 16.6109 39.9889 7.98597 54.4961 3.5636C69.0033 -0.858765 84.4961 -0.87995 99.0153 3.50273C113.535 7.8854 126.428 16.4751 136.066 28.1856C145.703 39.8961 151.651 54.2014 153.159 69.2926C154.666 84.3838 151.664 99.5831 144.533 112.968C137.402 126.354 126.462 137.324 113.097 144.491C99.7312 151.659 84.5402 154.703 69.4449 153.237C54.3497 151.771 40.028 145.862 28.2911 136.257C12.554 123.375 2.57779 104.77 0.556661 84.534C-1.46446 64.2977 4.63499 44.0873 17.5135 28.3477ZM131.345 121.502C140.162 110.724 145.585 97.5743 146.928 83.7146C148.272 69.8548 145.476 55.9079 138.893 43.6373C132.31 31.3668 122.237 21.3237 109.946 14.778C97.656 8.23235 83.7007 5.47805 69.8451 6.8634C55.9894 8.24874 42.8557 13.7115 32.1046 22.561C21.3535 31.4104 13.4679 43.2491 9.44497 56.5801C5.42201 69.911 5.44234 84.1355 9.50338 97.4549C13.5644 110.774 21.4838 122.59 32.2601 131.409C39.4163 137.265 47.656 141.654 56.5086 144.326C65.3612 146.997 74.6534 147.899 83.8544 146.979C93.0555 146.059 101.985 143.336 110.134 138.964C118.282 134.593 125.49 128.659 131.345 121.502Z" fill="#A1AFC4"/>
<path d="M138.114 121.236C145.668 125.746 152.853 130.703 159.912 135.817C166.972 140.932 173.851 146.258 180.62 151.725C187.389 157.192 194.033 162.816 200.442 168.723C203.653 171.672 206.79 174.7 209.854 177.806C212.929 180.944 215.949 184.081 218.797 187.485C219.454 188.274 219.817 189.266 219.822 190.293C219.827 191.32 219.475 192.316 218.825 193.111C218.175 193.905 217.268 194.449 216.261 194.648C215.254 194.846 214.209 194.688 213.306 194.2C209.384 192.082 205.713 189.744 202.05 187.352C198.387 184.96 194.81 182.465 191.28 179.9C184.22 174.786 177.388 169.397 170.698 163.836C164.007 158.275 157.418 152.588 151.009 146.673C144.601 140.759 138.318 134.704 132.403 128.193C131.665 127.388 131.242 126.343 131.211 125.251C131.18 124.159 131.544 123.092 132.236 122.247C132.928 121.401 133.902 120.834 134.979 120.648C136.055 120.462 137.163 120.671 138.098 121.236H138.114Z" fill="#A1AFC4"/>
</svg>
