<svg width="32" height="33" viewBox="0 0 32 33" fill="none" xmlns="http://www.w3.org/2000/svg">
<path opacity="0.4" d="M16.0003 29.8333C23.3641 29.8333 29.3337 23.8638 29.3337 16.5C29.3337 9.13616 23.3641 3.16663 16.0003 3.16663C8.63653 3.16663 2.66699 9.13616 2.66699 16.5C2.66699 23.8638 8.63653 29.8333 16.0003 29.8333Z" fill="#58AB83"/>
<path d="M14.1069 21.2733C13.8402 21.2733 13.5869 21.1667 13.4002 20.98L9.62691 17.2067C9.24025 16.82 9.24025 16.18 9.62691 15.7933C10.0136 15.4067 10.6536 15.4067 11.0402 15.7933L14.1069 18.86L20.9602 12.0067C21.3469 11.62 21.9869 11.62 22.3736 12.0067C22.7602 12.3933 22.7602 13.0333 22.3736 13.42L14.8136 20.98C14.6269 21.1667 14.3736 21.2733 14.1069 21.2733Z" fill="#4F846A"/>
</svg>
