<svg width="17" height="17" viewBox="0 0 17 17" fill="none" xmlns="http://www.w3.org/2000/svg">
<path d="M14.5 4.48665C12.28 4.26665 10.0467 4.15332 7.82 4.15332C6.5 4.15332 5.18 4.21999 3.86 4.35332L2.5 4.48665" stroke="#5A5C81" stroke-linecap="round" stroke-linejoin="round"/>
<path d="M6.16699 3.81325L6.31366 2.93992C6.42033 2.30659 6.50033 1.83325 7.62699 1.83325H9.37366C10.5003 1.83325 10.587 2.33325 10.687 2.94659L10.8337 3.81325" stroke="#5A5C81" stroke-linecap="round" stroke-linejoin="round"/>
<path d="M13.0669 6.59326L12.6336 13.3066C12.5603 14.3533 12.5003 15.1666 10.6403 15.1666H6.36026C4.50026 15.1666 4.44026 14.3533 4.36693 13.3066L3.93359 6.59326" stroke="#5A5C81" stroke-linecap="round" stroke-linejoin="round"/>
<path d="M7.38672 11.5H9.60672" stroke="#5A5C81" stroke-linecap="round" stroke-linejoin="round"/>
<path d="M6.83301 8.83325H10.1663" stroke="#5A5C81" stroke-linecap="round" stroke-linejoin="round"/>
</svg>
