<svg width="17" height="17" viewBox="0 0 17 17" fill="none" xmlns="http://www.w3.org/2000/svg">
<path d="M13.8337 5.13464V11.868C13.727 11.848 13.6137 11.8346 13.5003 11.8346C12.5803 11.8346 11.8337 12.5813 11.8337 13.5013C11.8337 13.6146 11.847 13.728 11.867 13.8346H5.13366C5.15366 13.728 5.16699 13.6146 5.16699 13.5013C5.16699 12.5813 4.42033 11.8346 3.50033 11.8346C3.38699 11.8346 3.27366 11.848 3.16699 11.868V5.13464C3.27366 5.15464 3.38699 5.16797 3.50033 5.16797C4.42033 5.16797 5.16699 4.4213 5.16699 3.5013C5.16699 3.38797 5.15366 3.27464 5.13366 3.16797H11.867C11.847 3.27464 11.8337 3.38797 11.8337 3.5013C11.8337 4.4213 12.5803 5.16797 13.5003 5.16797C13.6137 5.16797 13.727 5.15464 13.8337 5.13464Z" stroke="#5A5C81" stroke-linecap="round" stroke-linejoin="round"/>
<path d="M5.16634 3.4987C5.16634 4.4187 4.41967 5.16536 3.49967 5.16536C3.38634 5.16536 3.27301 5.15203 3.16634 5.13203C2.40634 4.9787 1.83301 4.30536 1.83301 3.4987C1.83301 2.5787 2.57967 1.83203 3.49967 1.83203C4.30634 1.83203 4.97967 2.40536 5.13301 3.16536C5.15301 3.27203 5.16634 3.38536 5.16634 3.4987Z" stroke="#5A5C81" stroke-linecap="round" stroke-linejoin="round"/>
<path d="M15.1663 3.4987C15.1663 4.30536 14.593 4.9787 13.833 5.13203C13.7263 5.15203 13.613 5.16536 13.4997 5.16536C12.5797 5.16536 11.833 4.4187 11.833 3.4987C11.833 3.38536 11.8463 3.27203 11.8663 3.16536C12.0197 2.40536 12.693 1.83203 13.4997 1.83203C14.4197 1.83203 15.1663 2.5787 15.1663 3.4987Z" stroke="#5A5C81" stroke-linecap="round" stroke-linejoin="round"/>
<path d="M5.16634 13.4987C5.16634 13.612 5.15301 13.7254 5.13301 13.832C4.97967 14.592 4.30634 15.1654 3.49967 15.1654C2.57967 15.1654 1.83301 14.4187 1.83301 13.4987C1.83301 12.692 2.40634 12.0187 3.16634 11.8654C3.27301 11.8454 3.38634 11.832 3.49967 11.832C4.41967 11.832 5.16634 12.5787 5.16634 13.4987Z" stroke="#5A5C81" stroke-linecap="round" stroke-linejoin="round"/>
<path d="M15.1663 13.4987C15.1663 14.4187 14.4197 15.1654 13.4997 15.1654C12.693 15.1654 12.0197 14.592 11.8663 13.832C11.8463 13.7254 11.833 13.612 11.833 13.4987C11.833 12.5787 12.5797 11.832 13.4997 11.832C13.613 11.832 13.7263 11.8454 13.833 11.8654C14.593 12.0187 15.1663 12.692 15.1663 13.4987Z" stroke="#5A5C81" stroke-linecap="round" stroke-linejoin="round"/>
</svg>
