<svg width="20" height="21" viewBox="0 0 20 21" fill="none" xmlns="http://www.w3.org/2000/svg">
<path d="M10.1002 11.1497C10.0418 11.1414 9.96685 11.1414 9.90018 11.1497C8.43351 11.0997 7.26685 9.89974 7.26685 8.42474C7.26685 6.91641 8.48351 5.69141 10.0002 5.69141C11.5085 5.69141 12.7335 6.91641 12.7335 8.42474C12.7252 9.89974 11.5668 11.0997 10.1002 11.1497Z" stroke="#020203" stroke-linecap="round" stroke-linejoin="round"/>
<path d="M15.6169 16.6508C14.1335 18.0091 12.1669 18.8341 10.0002 18.8341C7.83354 18.8341 5.86688 18.0091 4.38354 16.6508C4.46688 15.8674 4.96688 15.1008 5.85854 14.5008C8.14188 12.9841 11.8752 12.9841 14.1419 14.5008C15.0335 15.1008 15.5335 15.8674 15.6169 16.6508Z" stroke="#020203" stroke-linecap="round" stroke-linejoin="round"/>
<path d="M9.99959 18.8346C14.602 18.8346 18.3329 15.1037 18.3329 10.5013C18.3329 5.89893 14.602 2.16797 9.99959 2.16797C5.39722 2.16797 1.66626 5.89893 1.66626 10.5013C1.66626 15.1037 5.39722 18.8346 9.99959 18.8346Z" stroke="#020203" stroke-linecap="round" stroke-linejoin="round"/>
</svg>
