<svg width="20" height="20" viewBox="0 0 20 20" fill="none" xmlns="http://www.w3.org/2000/svg">
<path fill-rule="evenodd" clip-rule="evenodd" d="M14.0416 16.6666H5.95866C4.44294 16.6666 3.68518 16.6666 3.24707 16.3483C2.86493 16.0707 2.61838 15.6439 2.56901 15.1741C2.51241 14.6356 2.89123 13.9793 3.64909 12.6667L7.69054 5.66667L7.69153 5.66495C8.44873 4.35345 8.82744 3.69751 9.32194 3.47734C9.75345 3.28522 10.2464 3.28522 10.6779 3.47734C11.1726 3.6976 11.5517 4.35402 12.3096 5.66667L16.351 12.6667C17.1089 13.9793 17.4877 14.6356 17.4311 15.1741C17.3817 15.6439 17.1352 16.0707 16.753 16.3483C16.3149 16.6666 15.5573 16.6666 14.0416 16.6666ZM10.0415 13.4166V13.3333H9.9585V13.4166L10.0415 13.4166Z" fill="#FFE3E3"/>
<path d="M3.64909 12.6667L3.21608 12.4167L3.64909 12.6667ZM7.69054 5.66667L8.12355 5.91667L8.12357 5.91664L7.69054 5.66667ZM12.3096 5.66667L11.8766 5.91667L12.3096 5.66667ZM16.351 12.6667L16.784 12.4167L16.351 12.6667ZM9.32194 3.47734L9.52531 3.93412V3.93412L9.32194 3.47734ZM10.6779 3.47734L10.4745 3.93412V3.93412L10.6779 3.47734ZM3.24707 16.3483L2.95318 16.7528L3.24707 16.3483ZM2.56901 15.1741L3.06627 15.1219L2.56901 15.1741ZM16.753 16.3483L17.0469 16.7528L16.753 16.3483ZM17.4311 15.1741L17.9284 15.2264L17.4311 15.1741ZM10.0415 13.3333H10.5415C10.5415 13.0572 10.3176 12.8333 10.0415 12.8333V13.3333ZM10.0415 13.4166L10.0414 13.9166C10.174 13.9167 10.3012 13.864 10.395 13.7702C10.4888 13.6765 10.5415 13.5493 10.5415 13.4166H10.0415ZM9.9585 13.4166H9.4585C9.4585 13.6927 9.68228 13.9165 9.95838 13.9166L9.9585 13.4166ZM9.9585 13.3333V12.8333C9.68235 12.8333 9.4585 13.0572 9.4585 13.3333H9.9585ZM10.5 7.49997C10.5 7.22382 10.2761 6.99997 10 6.99997C9.72386 6.99997 9.5 7.22382 9.5 7.49997H10.5ZM9.5 10.8333C9.5 11.1094 9.72386 11.3333 10 11.3333C10.2761 11.3333 10.5 11.1094 10.5 10.8333H9.5ZM7.69153 5.66495L7.25852 5.41495L7.2585 5.41499L7.69153 5.66495ZM14.0416 16.1666H5.95866V17.1666H14.0416V16.1666ZM4.0821 12.9167L8.12355 5.91667L7.25753 5.41667L3.21608 12.4167L4.0821 12.9167ZM11.8766 5.91667L15.918 12.9167L16.784 12.4167L12.7426 5.41667L11.8766 5.91667ZM12.7426 5.41667C12.3686 4.76887 12.0711 4.25274 11.8034 3.87383C11.5372 3.49706 11.2544 3.18672 10.8813 3.02057L10.4745 3.93412C10.5961 3.98823 10.7502 4.11623 10.9867 4.4509C11.2217 4.78342 11.4927 5.25183 11.8766 5.91667L12.7426 5.41667ZM9.52531 3.93412C9.82736 3.79963 10.1725 3.79963 10.4745 3.93412L10.8813 3.02057C10.3203 2.77081 9.67953 2.77081 9.11857 3.02057L9.52531 3.93412ZM5.95866 16.1666C5.19094 16.1666 4.64984 16.1661 4.24444 16.1289C3.83645 16.0915 3.64859 16.022 3.54096 15.9438L2.95318 16.7528C3.28366 16.993 3.69373 17.0826 4.15308 17.1248C4.61502 17.1671 5.21066 17.1666 5.95866 17.1666V16.1666ZM3.21608 12.4167C2.84207 13.0645 2.54383 13.5801 2.34958 14.0013C2.15641 14.4202 2.02905 14.8202 2.07175 15.2264L3.06627 15.1219C3.05237 14.9896 3.08612 14.7921 3.25767 14.4201C3.42815 14.0504 3.69825 13.5815 4.0821 12.9167L3.21608 12.4167ZM3.54096 15.9438C3.27339 15.7494 3.10082 15.4506 3.06627 15.1219L2.07175 15.2264C2.13595 15.8372 2.45648 16.392 2.95318 16.7528L3.54096 15.9438ZM14.0416 17.1666C14.7896 17.1666 15.3852 17.1671 15.8471 17.1248C16.3064 17.0826 16.7164 16.9929 17.0469 16.7528L16.4591 15.9438C16.3515 16.022 16.1637 16.0915 15.7557 16.1289C15.3504 16.1661 14.8093 16.1666 14.0416 16.1666V17.1666ZM15.918 12.9167C16.3019 13.5815 16.572 14.0504 16.7424 14.4201C16.914 14.7921 16.9477 14.9896 16.9338 15.1219L17.9284 15.2264C17.9711 14.8202 17.8437 14.4202 17.6505 14.0013C17.4563 13.5801 17.158 13.0645 16.784 12.4167L15.918 12.9167ZM17.0469 16.7528C17.5436 16.392 17.8642 15.8372 17.9284 15.2264L16.9338 15.1219C16.8993 15.4506 16.7267 15.7494 16.4591 15.9438L17.0469 16.7528ZM9.54151 13.3333V13.4166H10.5415V13.3333H9.54151ZM10.0416 12.9166L9.95862 12.9166L9.95838 13.9166L10.0414 13.9166L10.0416 12.9166ZM10.4585 13.4166V13.3333H9.4585V13.4166H10.4585ZM9.9585 13.8333H10.0415V12.8333H9.9585V13.8333ZM9.5 7.49997V10.8333H10.5V7.49997H9.5ZM8.12357 5.91664L8.12457 5.91492L7.2585 5.41499L7.25751 5.41671L8.12357 5.91664ZM8.12455 5.91495C8.50807 5.25066 8.77885 4.78267 9.0136 4.45042C9.24986 4.11604 9.40388 3.98818 9.52531 3.93412L9.11857 3.02057C8.7455 3.18667 8.46292 3.49686 8.19689 3.87337C7.92937 4.252 7.63219 4.76774 7.25852 5.41495L8.12455 5.91495Z" fill="#D82E2E"/>
</svg>
