<svg width="17" height="16" viewBox="0 0 17 16" fill="none" xmlns="http://www.w3.org/2000/svg">
<path fill-rule="evenodd" clip-rule="evenodd" d="M12.5416 14.6669H4.45866C2.94294 14.6669 2.18518 14.6669 1.74707 14.3486C1.36493 14.0709 1.11838 13.6441 1.06901 13.1744C1.01241 12.6358 1.39123 11.9796 2.14909 10.6669L6.19054 3.66692L6.19153 3.6652C6.94873 2.35369 7.32744 1.69775 7.82194 1.47759C8.25345 1.28547 8.74639 1.28547 9.1779 1.47759C9.67261 1.69785 10.0517 2.35427 10.8096 3.66692L14.851 10.6669C15.6089 11.9796 15.9877 12.6358 15.9311 13.1744C15.8817 13.6441 15.6352 14.0709 15.253 14.3486C14.8149 14.6669 14.0573 14.6669 12.5416 14.6669ZM8.54151 11.4169V11.3335H8.4585V11.4169L8.54151 11.4169Z" fill="#FFE8C7"/>
<path d="M2.14909 10.6669L1.71608 10.4169L2.14909 10.6669ZM6.19054 3.66692L6.62355 3.91692L6.62357 3.91688L6.19054 3.66692ZM10.8096 3.66692L10.3766 3.91692L10.8096 3.66692ZM14.851 10.6669L15.284 10.4169L14.851 10.6669ZM7.82194 1.47759L8.02531 1.93436V1.93436L7.82194 1.47759ZM9.1779 1.47759L8.97453 1.93436V1.93436L9.1779 1.47759ZM1.74707 14.3486L1.45318 14.7531L1.74707 14.3486ZM1.06901 13.1744L1.56627 13.1221L1.06901 13.1744ZM15.253 14.3486L15.5469 14.7531L15.253 14.3486ZM15.9311 13.1744L16.4284 13.2266L15.9311 13.1744ZM8.54151 11.3335H9.04151C9.04151 11.0574 8.81765 10.8335 8.54151 10.8335V11.3335ZM8.54151 11.4169L8.54138 11.9169C8.67401 11.9169 8.80122 11.8642 8.89502 11.7705C8.98881 11.6767 9.04151 11.5495 9.04151 11.4169H8.54151ZM8.4585 11.4169H7.9585C7.9585 11.693 8.18228 11.9168 8.45838 11.9169L8.4585 11.4169ZM8.4585 11.3335V10.8335C8.18235 10.8335 7.9585 11.0574 7.9585 11.3335H8.4585ZM9 5.50021C9 5.22407 8.77614 5.00021 8.5 5.00021C8.22386 5.00021 8 5.22407 8 5.50021H9ZM8 8.83354C8 9.10969 8.22386 9.33354 8.5 9.33354C8.77614 9.33354 9 9.10969 9 8.83354H8ZM6.19153 3.6652L5.75852 3.4152L5.7585 3.41523L6.19153 3.6652ZM12.5416 14.1669H4.45866V15.1669H12.5416V14.1669ZM2.5821 10.9169L6.62355 3.91692L5.75753 3.41692L1.71608 10.4169L2.5821 10.9169ZM10.3766 3.91692L14.418 10.9169L15.284 10.4169L11.2426 3.41692L10.3766 3.91692ZM11.2426 3.41692C10.8686 2.76911 10.5711 2.25298 10.3034 1.87407C10.0372 1.4973 9.75445 1.18696 9.38127 1.02081L8.97453 1.93436C9.09606 1.98847 9.25023 2.11647 9.48671 2.45114C9.72167 2.78367 9.99271 3.25207 10.3766 3.91692L11.2426 3.41692ZM8.02531 1.93436C8.32736 1.79987 8.67247 1.79987 8.97453 1.93436L9.38127 1.02081C8.8203 0.771057 8.17953 0.771057 7.61857 1.02081L8.02531 1.93436ZM4.45866 14.1669C3.69094 14.1669 3.14984 14.1664 2.74444 14.1292C2.33645 14.0918 2.14859 14.0223 2.04096 13.9441L1.45318 14.7531C1.78366 14.9932 2.19373 15.0829 2.65308 15.125C3.11502 15.1674 3.71066 15.1669 4.45866 15.1669V14.1669ZM1.71608 10.4169C1.34207 11.0647 1.04383 11.5803 0.849576 12.0016C0.65641 12.4204 0.529052 12.8204 0.57175 13.2266L1.56627 13.1221C1.55237 12.9898 1.58612 12.7923 1.75767 12.4203C1.92815 12.0506 2.19825 11.5818 2.5821 10.9169L1.71608 10.4169ZM2.04096 13.9441C1.77339 13.7497 1.60082 13.4509 1.56627 13.1221L0.57175 13.2266C0.635946 13.8374 0.956477 14.3922 1.45318 14.7531L2.04096 13.9441ZM12.5416 15.1669C13.2896 15.1669 13.8852 15.1674 14.3471 15.125C14.8064 15.0829 15.2164 14.9932 15.5469 14.7531L14.9591 13.9441C14.8515 14.0223 14.6637 14.0918 14.2557 14.1292C13.8504 14.1664 13.3093 14.1669 12.5416 14.1669V15.1669ZM14.418 10.9169C14.8019 11.5818 15.072 12.0506 15.2424 12.4203C15.414 12.7923 15.4477 12.9898 15.4338 13.1221L16.4284 13.2266C16.4711 12.8204 16.3437 12.4204 16.1505 12.0016C15.9563 11.5803 15.658 11.0647 15.284 10.4169L14.418 10.9169ZM15.5469 14.7531C16.0436 14.3922 16.3642 13.8374 16.4284 13.2266L15.4338 13.1221C15.3993 13.4509 15.2267 13.7497 14.9591 13.9441L15.5469 14.7531ZM8.04151 11.3335V11.4169H9.04151V11.3335H8.04151ZM8.54163 10.9169L8.45862 10.9169L8.45838 11.9169L8.54138 11.9169L8.54163 10.9169ZM8.9585 11.4169V11.3335H7.9585V11.4169H8.9585ZM8.4585 11.8335H8.54151V10.8335H8.4585V11.8335ZM8 5.50021V8.83354H9V5.50021H8ZM6.62357 3.91688L6.62457 3.91516L5.7585 3.41523L5.75751 3.41695L6.62357 3.91688ZM6.62455 3.9152C7.00807 3.25091 7.27885 2.78292 7.5136 2.45066C7.74986 2.11629 7.90388 1.98842 8.02531 1.93436L7.61857 1.02081C7.2455 1.18691 6.96292 1.4971 6.69689 1.87362C6.42937 2.25225 6.13219 2.76798 5.75852 3.4152L6.62455 3.9152Z" fill="#FBAD39"/>
</svg>
