<svg width="20" height="21" viewBox="0 0 20 21" fill="none" xmlns="http://www.w3.org/2000/svg">
<path d="M10 7.16797C11.3807 7.16797 12.5 6.04868 12.5 4.66797C12.5 3.28726 11.3807 2.16797 10 2.16797C8.61929 2.16797 7.5 3.28726 7.5 4.66797C7.5 6.04868 8.61929 7.16797 10 7.16797Z" stroke="black" stroke-linecap="round" stroke-linejoin="round"/>
<path d="M5.41644 7.16797C5.05582 7.17171 4.70614 7.29232 4.4199 7.5117C4.13365 7.73108 3.92629 8.03738 3.82894 8.38464L1.74977 15.918C1.68677 16.1618 1.67985 16.4167 1.72951 16.6636C1.77917 16.9105 1.88413 17.1429 2.03651 17.3434C2.18888 17.5439 2.38471 17.7072 2.60928 17.8212C2.83385 17.9351 3.08132 17.9967 3.33311 18.0013H16.6664C16.9237 18.0012 17.1774 17.9416 17.4077 17.8271C17.6381 17.7126 17.8388 17.5463 17.9941 17.3413C18.1495 17.1363 18.2553 16.8981 18.3033 16.6454C18.3512 16.3927 18.3401 16.1323 18.2706 15.8846L16.1664 8.41797C16.0747 8.06248 15.8681 7.74724 15.5788 7.5212C15.2894 7.29517 14.9336 7.171 14.5664 7.16797H5.41644Z" stroke="black" stroke-linecap="round" stroke-linejoin="round"/>
</svg>
