<?xml version="1.0" encoding="UTF-8"?> <svg xmlns="http://www.w3.org/2000/svg" width="26" height="26" viewBox="0 0 26 26" fill="none"><path fill-rule="evenodd" clip-rule="evenodd" d="M11.8339 0.0307653C9.32152 0.276742 6.99949 1.20231 4.96357 2.76927C3.97213 3.53233 2.68459 4.96638 1.94054 6.13619C1.6192 6.64142 0.993681 7.92166 0.769601 8.53264C0.519055 9.21584 0.252021 10.2599 0.120616 11.07C-0.0402053 12.0615 -0.0402053 13.9441 0.120616 14.9356C0.348005 16.3373 0.707715 17.4705 1.32342 18.725C1.99612 20.0955 2.69559 21.067 3.81569 22.1865C4.93584 23.306 5.90789 24.005 7.27919 24.6773C8.53441 25.2927 9.6682 25.6522 11.0707 25.8795C12.0628 26.0402 13.9465 26.0402 14.9386 25.8795C16.3411 25.6522 17.4748 25.2927 18.7301 24.6773C20.1014 24.005 21.0734 23.306 22.1936 22.1865C23.3137 21.067 24.0131 20.0955 24.6858 18.725C25.1326 17.8146 25.3574 17.218 25.5981 16.3031C25.9187 15.0847 26 14.4168 26 13.0028C26 11.5888 25.9187 10.9209 25.5981 9.7025C25.3574 8.78762 25.1326 8.19098 24.6858 7.28063C24.0131 5.9101 23.3137 4.93861 22.1936 3.8191C21.0734 2.69964 20.1014 2.00056 18.7301 1.32825C17.4761 0.713458 16.3198 0.34668 14.964 0.13351C14.2159 0.0159131 12.5455 -0.038918 11.8339 0.0307653ZM13.9168 3.95297L14.0734 4.10948V8.31321V12.5169L16.23 14.68C18.4236 16.8802 18.4716 16.9366 18.4131 17.2426C18.4005 17.3086 18.154 17.5978 17.8652 17.8854C17.3746 18.374 17.327 18.4082 17.1367 18.4082C17.0118 18.4082 16.8772 18.3677 16.7883 18.3033C16.4624 18.0672 12.1015 13.6308 12.0205 13.4529C11.9436 13.2842 11.9359 12.8485 11.9359 8.68833V4.10948L12.0925 3.95297L12.2491 3.79646H13.0046H13.7602L13.9168 3.95297Z" fill="#003DA5"></path></svg> 