<?xml version="1.0" encoding="UTF-8"?> <svg xmlns="http://www.w3.org/2000/svg" width="28" height="28" viewBox="0 0 28 28" fill="none"><g clip-path="url(#clip0_217_6675)"><path d="M3.64084 7.18609C5.65162 7.18609 7.28168 5.57743 7.28168 3.59304C7.28168 1.60866 5.65162 0 3.64084 0C1.63006 0 0 1.60866 0 3.59304C0 5.57743 1.63006 7.18609 3.64084 7.18609Z" fill="#003DA5"></path><path d="M17.7665 22.3025H6.49015C6.49015 22.3025 1.53638 22.4588 1.53638 17.4965C1.53638 12.9478 6.18287 12.9753 6.18287 12.9753H20.1037C20.1037 12.9753 25.402 13.2326 25.402 8.30714C25.402 3.38164 19.8989 3.593 19.8989 3.593H9.04153" stroke="#003DA5" stroke-width="2" stroke-miterlimit="10"></path><path d="M12.8965 18.048L18.3065 22.3027L13.1851 27.3568" stroke="#003DA5" stroke-width="2" stroke-miterlimit="10"></path><path d="M24.3406 25.8314C26.3617 25.8314 28.0001 24.2145 28.0001 22.2199C28.0001 20.2254 26.3617 18.6085 24.3406 18.6085C22.3195 18.6085 20.6812 20.2254 20.6812 22.2199C20.6812 24.2145 22.3195 25.8314 24.3406 25.8314Z" fill="#003DA5"></path></g><defs><clipPath id="clip0_217_6675"><rect width="28" height="28" fill="white"></rect></clipPath></defs></svg> 