<?xml version="1.0" encoding="UTF-8"?> <svg xmlns="http://www.w3.org/2000/svg" width="30" height="25" viewBox="0 0 30 25" fill="none"><path fill-rule="evenodd" clip-rule="evenodd" d="M7.0315 0.0682571C6.87131 0.112552 6.11747 0.820698 3.58922 3.30191C1.80879 5.04929 0.35202 6.49888 0.35202 6.5233C0.35202 6.54772 2.08886 6.56771 4.2117 6.56771H8.07133L9.3092 3.32323C9.98998 1.53875 10.547 0.0612874 10.547 0.039975C10.547 -0.0212547 7.25972 0.00518416 7.0315 0.0682571ZM12.4207 0.130178C12.3888 0.201833 11.8248 1.67308 11.1674 3.39966L9.97217 6.53891L12.4861 6.55395C13.8688 6.56218 16.1312 6.56218 17.5138 6.55395L20.0277 6.53891L18.7864 3.28446L17.5452 0.0300101L15.0119 0.0149761L12.4786 0L12.4207 0.130178ZM19.453 0.039975C19.453 0.0612874 20.01 1.53875 20.6908 3.32323L21.9287 6.56771H25.7883C27.9111 6.56771 29.648 6.54772 29.648 6.5233C29.648 6.49888 28.1912 5.04964 26.4108 3.30278C23.6452 0.589373 23.1394 0.117564 22.9392 0.0642251C22.684 -0.00368636 19.453 -0.0262084 19.453 0.039975ZM6.33566 16.0863C9.8203 20.3711 12.7089 23.9157 12.7549 23.9632C12.8292 24.04 12.835 24.04 12.808 23.9632C12.7913 23.9157 11.7865 20.6238 10.575 16.6479C9.36363 12.672 8.29375 9.16626 8.19754 8.85735L8.02252 8.29574H4.01126H0L6.33566 16.0863ZM9.90186 8.33894C9.90063 8.42799 14.9715 25 15 25C15.0285 25 20.0994 8.42799 20.0981 8.33894C20.0973 8.28243 9.90268 8.28243 9.90186 8.33894ZM21.8025 8.85735C21.7063 9.16626 20.6364 12.672 19.425 16.6479C18.2135 20.6238 17.2087 23.9157 17.192 23.9632C17.165 24.04 17.1708 24.04 17.2451 23.9632C17.2911 23.9157 20.1797 20.3711 23.6643 16.0863L30 8.29574H25.9887H21.9775L21.8025 8.85735Z" fill="#003DA5"></path></svg> 