<?xml version="1.0" encoding="UTF-8"?> <svg xmlns="http://www.w3.org/2000/svg" width="26" height="20" viewBox="0 0 26 20" fill="none"><path fill-rule="evenodd" clip-rule="evenodd" d="M0.668861 0.0348283C0.550601 0.0579901 0.386896 0.138714 0.305129 0.214132C-0.0109339 0.505709 0.000128157 0.301132 0.000242197 5.86892C0.000299217 11.6147 -0.0238205 11.267 0.394308 11.5465L0.588861 11.6766L8.81442 11.6618L17.04 11.6469L17.1926 11.5043C17.5218 11.1965 17.5053 11.4943 17.5053 5.84416C17.5053 0.871505 17.5005 0.625682 17.3991 0.435938C17.3406 0.326632 17.206 0.185836 17.0997 0.123083C16.9092 0.0105254 16.7967 0.0088711 8.89528 0.00077018C4.48904 -0.00367962 0.787178 0.0116094 0.668861 0.0348283ZM19.2148 7.49663C19.2142 9.3595 19.1891 10.9647 19.1571 11.1905C19.0015 12.2907 18.1203 13.1724 17.0207 13.3281C16.7834 13.3617 14.6097 13.3862 11.6608 13.3883L6.7 13.392L7.10838 13.5243C8.25083 13.8946 9.27281 14.837 9.71637 15.9292C9.7922 16.1158 9.87226 16.3647 9.89427 16.4822L9.93435 16.6957H12.9175H15.9007L15.9959 16.3677C16.309 15.2889 17.0864 14.3388 18.0863 13.8131C19.376 13.135 20.9504 13.181 22.1875 13.9329C23.0582 14.4621 23.7788 15.4018 24.043 16.3527L24.1409 16.7048L24.8106 16.686C25.5615 16.6649 25.7147 16.6016 25.9014 16.2353C25.9935 16.0547 26.001 15.7439 25.9999 12.1889L25.9986 8.3381L25.8647 8.0123C25.4358 6.96899 23.7468 5.29718 22.4376 4.62024C21.7019 4.23983 21.5079 4.20207 20.2889 4.20207H19.2159L19.2148 7.49663ZM21.9759 6.36849C22.5944 6.5268 23.0593 6.79094 23.4924 7.23039C24.126 7.87315 24.5465 8.87978 24.6163 9.9212L24.6497 10.4204H22.6171H20.5844V8.3381V6.25582H21.06C21.3469 6.25582 21.7102 6.30055 21.9759 6.36849ZM0.000242197 14.6216C0.000299217 15.859 0.0130147 16.0646 0.100028 16.2353C0.282492 16.5933 0.446083 16.6649 1.13027 16.6861L1.73924 16.7049L1.81069 16.4026C1.84998 16.2363 1.99013 15.8813 2.12219 15.6136C2.31481 15.223 2.46397 15.0243 2.87754 14.6076C3.44095 14.0398 3.86011 13.7728 4.56174 13.5348L4.98939 13.3898L2.96518 13.3865C1.09497 13.3834 0.354851 13.3466 0.0999134 13.2438C0.00645735 13.2061 0.000128157 13.2938 0.000242197 14.6216ZM5.27216 15.0639C4.7998 15.1786 4.43926 15.3853 4.07297 15.751C3.66675 16.1566 3.45196 16.5739 3.35879 17.1383C3.18271 18.205 3.7597 19.2912 4.76291 19.7817C5.14791 19.9699 5.18206 19.976 5.8447 19.976C6.50419 19.976 6.54296 19.9692 6.91702 19.7862C7.66911 19.4183 8.2047 18.6867 8.3204 17.8695C8.56707 16.1269 6.96497 14.6524 5.27216 15.0639ZM19.501 15.0469C18.8676 15.1707 18.1449 15.7074 17.8286 16.2888C17.1334 17.5667 17.6206 19.1196 18.9179 19.7611C19.295 19.9476 19.4027 19.9739 19.8699 19.9944C20.253 20.0112 20.4874 19.9912 20.7283 19.9211C21.3999 19.7258 21.9981 19.2026 22.3081 18.5396C22.542 18.0397 22.5899 17.3023 22.4227 16.7754C22.026 15.5253 20.7912 14.7948 19.501 15.0469Z" fill="#003DA5"></path></svg> 