<?xml version="1.0" encoding="UTF-8"?> <svg xmlns="http://www.w3.org/2000/svg" width="20" height="26" viewBox="0 0 20 26" fill="none"><path fill-rule="evenodd" clip-rule="evenodd" d="M0.394113 0.104711C0.278078 0.166004 0.164531 0.282801 0.102121 0.405133C0.000660236 0.604094 0 0.682906 0 13C0 25.3221 0.000609403 25.3959 0.102223 25.5951C0.168188 25.7244 0.275945 25.832 0.405742 25.8982C0.605719 26.0002 0.661782 26.0008 9.68531 25.9877L18.7637 25.9746L18.9345 25.8528C19.2679 25.615 19.2461 26.2759 19.2461 16.405V7.41614L15.7967 7.40238C12.3801 7.38882 12.3459 7.38766 12.2039 7.28178C12.125 7.22302 12.0148 7.09734 11.959 7.00248C11.8605 6.83536 11.857 6.72537 11.8434 3.41504L11.8293 0L6.20664 0.00223438C0.708856 0.00441797 0.57977 0.00670313 0.394113 0.104711ZM13.3678 3.03418L13.3809 5.86523L16.25 5.87829L19.1191 5.89128L16.2755 3.04723C14.7116 1.48296 13.4146 0.203125 13.3933 0.203125C13.372 0.203125 13.3605 1.47707 13.3678 3.03418ZM10.0446 9.83643C10.1165 9.89011 10.2225 9.9971 10.2801 10.0742C10.3822 10.211 10.3854 10.2848 10.4102 13.1313L10.4355 16.0481L11.248 15.2316C11.6949 14.7824 12.1222 14.3823 12.1977 14.3423C12.2731 14.3022 12.4285 14.2695 12.543 14.2695C13.0408 14.2695 13.3716 14.6755 13.2805 15.1749C13.2514 15.3346 13.0197 15.5892 11.6633 16.9519C10.7925 17.8267 10.0184 18.5751 9.94297 18.615C9.7693 18.7068 9.5389 18.7075 9.32943 18.6167C9.23879 18.5775 8.46163 17.8369 7.58408 16.9536C6.14067 15.5007 5.99925 15.3432 5.96878 15.1541C5.92546 14.8854 6.05282 14.5595 6.25838 14.4131C6.45831 14.2708 6.84191 14.2331 7.03747 14.3366C7.11892 14.3797 7.55092 14.7822 7.99744 15.2309C8.44401 15.6797 8.82675 16.0469 8.84802 16.0469C8.8693 16.0469 8.88672 14.7363 8.88672 13.1345V10.2221L9.00199 10.0495C9.23229 9.7048 9.73167 9.60273 10.0446 9.83643ZM13.4773 20.2817C13.7462 20.3941 13.9336 20.68 13.9336 20.9777C13.9336 21.2587 13.8306 21.4353 13.5591 21.6201L13.3912 21.7344L9.65362 21.7343C6.19658 21.7342 5.90276 21.7276 5.7393 21.6454C5.19523 21.3721 5.19421 20.5937 5.73747 20.305C5.90505 20.2159 6.11076 20.2109 9.61121 20.2109C12.6573 20.2109 13.3377 20.2234 13.4773 20.2817Z" fill="#003DA5"></path></svg> 