<?xml version="1.0" encoding="UTF-8"?> <svg xmlns="http://www.w3.org/2000/svg" width="36" height="36" viewBox="0 0 36 36" fill="none"><path d="M30.7507 27H5.24925C4.83616 27 4.5 27.3356 4.5 27.7498C4.5 28.164 4.83616 28.5002 5.24925 28.5002H30.7507C31.1638 28.5002 31.5 28.164 31.5 27.7498C31.5 27.3356 31.1638 27 30.7507 27Z" fill="#003DA5"></path><rect x="6" y="5" width="25" height="17" fill="#F2F5F9"></rect><path d="M35.2508 18H31.5V4.5H4.5V18H0.74925C0.336164 18 0 18.3356 0 18.7498V30.7502C0 31.1644 0.336164 31.5 0.74925 31.5H35.2508C35.6638 31.5 36 31.1644 36 30.7502V18.7498C36 18.3356 35.6638 18 35.2508 18ZM6.00075 6.00019H29.9993V20.9998H6.00075V6.00019ZM34.4993 29.9998H1.50075V19.5002H4.5V22.5H31.5V19.5002H34.4993V29.9998Z" fill="#003DA5"></path><path d="M19.7863 8.75L16.5103 14.4816L14.7854 11.607L10.5007 18.7498H14.0713H19.0711H25.4992L19.7863 8.75ZM14.9283 17.2501H13.1496L14.7855 14.5228L15.6578 15.9752L14.9283 17.2501ZM16.6565 17.2501L19.7865 11.7729L22.9154 17.2501H16.6565Z" fill="#003DA5"></path><path d="M4.5 29.9907H31.5V35.4907H4.5V29.9907Z" fill="#F2F5F9"></path><path fill-rule="evenodd" clip-rule="evenodd" d="M30 31.4907H6V33.9907H30V31.4907ZM4.5 29.9907V35.4907H31.5V29.9907H4.5Z" fill="#003DA5"></path></svg> 