<?xml version="1.0" encoding="UTF-8"?> <svg xmlns="http://www.w3.org/2000/svg" width="36" height="36" viewBox="0 0 36 36" fill="none"><rect x="1" y="10" width="34" height="23" fill="#F2F5F9"></rect><path d="M34.5004 4.12451H30.0004V2.62489C30.0004 2.21068 29.6642 1.87451 29.25 1.87451C28.8358 1.87451 28.5007 2.21068 28.5007 2.62489V4.12451H22.5V2.62489C22.5 2.21068 22.1649 1.87451 21.7507 1.87451C21.3366 1.87451 21.0004 2.21068 21.0004 2.62489V4.12451H15.0007V2.62489C15.0007 2.21068 14.6646 1.87451 14.2504 1.87451C13.8362 1.87451 13.5 2.21068 13.5 2.62489V4.12451H7.50037V2.62489C7.50037 2.21068 7.16421 1.87451 6.75 1.87451C6.33579 1.87451 6.00075 2.21068 6.00075 2.62489V4.12451H1.50075C0.675633 4.12451 0 4.79965 0 5.6247V32.6247C0 33.4497 0.675633 34.1255 1.50075 34.1255H34.5004C35.3254 34.1255 36 33.4498 36 32.6247V5.6247C36 4.79965 35.3254 4.12451 34.5004 4.12451ZM34.5004 32.6225C34.4992 32.6225 34.4982 32.6247 34.4982 32.6247H1.50293C1.5018 32.6247 1.50075 32.6225 1.50075 32.6225V10.1247H34.5004V32.6225ZM34.5004 8.62451H1.50075V5.62744C1.50075 5.62639 1.5018 5.62526 1.50293 5.6247H6.00075V7.12489C6.00075 7.5391 6.33586 7.8747 6.75 7.8747C7.16414 7.8747 7.50037 7.5391 7.50037 7.12489V5.6247H13.5V7.12489C13.5 7.5391 13.8362 7.8747 14.2504 7.8747C14.6646 7.8747 15.0007 7.5391 15.0007 7.12489V5.6247H21.0004V7.12489C21.0004 7.5391 21.3365 7.8747 21.7507 7.8747C22.165 7.8747 22.5 7.5391 22.5 7.12489V5.6247H28.5007V7.12489C28.5007 7.5391 28.8359 7.8747 29.25 7.8747C29.6641 7.8747 30.0004 7.5391 30.0004 7.12489V5.6247H34.4982C34.4982 5.62526 34.4993 5.62632 34.5004 5.62744V8.62451Z" fill="#003DA5"></path><path d="M18.2116 28.125C17.9782 28.125 17.7739 28.0375 17.5988 27.8624C17.4237 27.6873 17.3362 27.4772 17.3362 27.2321V16.5524L16.0581 17.0951C15.8597 17.1768 15.673 17.2176 15.4979 17.2176C15.2411 17.2176 15.0252 17.1359 14.8501 16.9725C14.6867 16.8091 14.605 16.599 14.605 16.3423C14.605 16.1555 14.6517 15.9863 14.745 15.8345C14.8384 15.6828 14.9843 15.5719 15.1827 15.5019L17.914 14.5214C17.9723 14.4981 18.0307 14.4806 18.089 14.4689C18.1474 14.4573 18.1999 14.4514 18.2466 14.4514C18.5151 14.4514 18.7252 14.539 18.8769 14.714C19.0403 14.8774 19.122 15.0934 19.122 15.3618V27.2321C19.122 27.4772 19.0345 27.6873 18.8594 27.8624C18.6843 28.0375 18.4684 28.125 18.2116 28.125Z" fill="#003DA5"></path></svg> 