<svg width="16" height="16" viewBox="0 0 16 16" fill="none" xmlns="http://www.w3.org/2000/svg">
<path d="M13.4633 4.34648C11.4419 4.14616 9.40834 4.04297 7.38085 4.04297C6.17893 4.04297 4.97701 4.10367 3.77509 4.22508L2.53674 4.34648" stroke="#FF5858" stroke-width="1.01172" stroke-linecap="round" stroke-linejoin="round"/>
<path d="M5.87561 3.73257L6.00916 2.93736C6.10628 2.36068 6.17913 1.92969 7.20501 1.92969H8.79543C9.82131 1.92969 9.90023 2.38496 9.99128 2.94343L10.1248 3.73257" stroke="#FF5858" stroke-width="1.01172" stroke-linecap="round" stroke-linejoin="round"/>
<path d="M12.1584 6.26562L11.7638 12.3784C11.697 13.3315 11.6424 14.072 9.94877 14.072H6.05163C4.35802 14.072 4.30338 13.3315 4.23661 12.3784L3.84204 6.26562" stroke="#FF5858" stroke-width="1.01172" stroke-linecap="round" stroke-linejoin="round"/>
<path d="M6.98633 10.7344H9.00774" stroke="#FF5858" stroke-width="1.01172" stroke-linecap="round" stroke-linejoin="round"/>
<path d="M6.48206 8.30469H9.51721" stroke="#FF5858" stroke-width="1.01172" stroke-linecap="round" stroke-linejoin="round"/>
</svg>
