<?xml version="1.0" encoding="UTF-8"?> <svg xmlns="http://www.w3.org/2000/svg" width="36" height="36" viewBox="0 0 36 36" fill="none"><path d="M10.9429 23.9091C9.7292 22.4395 9 20.5549 9 18.5C9 13.8056 12.8056 10 17.5 10C22.1944 10 26 13.8056 26 18.5C26 23.1944 22.1944 27 17.5 27C15.1816 27 13.0799 26.0718 11.5464 24.5667" stroke="white" stroke-width="1.6" stroke-miterlimit="10"></path><path d="M33.2606 18.2417L30.9934 19.4783C29.7471 20.158 29.3784 21.7761 30.2071 22.9287L31.7149 25.026L29.1375 25.1528C27.7184 25.2227 26.6822 26.5212 26.9288 27.9205L27.3768 30.4617L24.9951 29.4598C23.6868 28.9095 22.1922 29.6298 21.8075 30.9961L21.1073 33.4834L19.4012 31.5478C18.4613 30.4816 16.7993 30.4816 15.8595 31.5478L14.1533 33.4834L13.453 30.996C13.0684 29.6298 11.5738 28.9094 10.2655 29.4598L7.88373 30.4616L8.33173 27.9204C8.57845 26.5212 7.54213 25.2227 6.12304 25.1528L3.54562 25.0259L5.05351 22.9286C5.88221 21.776 5.51342 20.1579 4.2672 19.4782L2 18.2417L4.2672 17.0051C5.51349 16.3254 5.88221 14.7073 5.05351 13.5547L3.54562 11.4574L6.12304 11.3305C7.54213 11.2607 8.57839 9.96219 8.33173 8.5629L7.88373 6.02173L10.2655 7.02356C11.5738 7.57389 13.0684 6.85354 13.453 5.48732L14.1533 3L15.8594 4.93557C16.7992 6.0018 18.4613 6.0018 19.4011 4.93557L21.1072 3L21.8075 5.48739C22.1922 6.8536 23.6868 7.57395 24.9951 7.02362L27.3768 6.0218L26.9288 8.56297C26.6821 9.96219 27.7184 11.2607 29.1375 11.3306L31.7149 11.4575L30.2071 13.5548C29.3784 14.7074 29.7471 16.3254 30.9934 17.0052L33.2606 18.2417Z" stroke="white" stroke-width="1.6" stroke-miterlimit="10"></path></svg> 