<?xml version="1.0" encoding="UTF-8"?> <svg xmlns="http://www.w3.org/2000/svg" width="36" height="36" viewBox="0 0 36 36" fill="none"><path d="M11.2219 28.1671C16.8371 28.1671 21.3891 23.6151 21.3891 18C21.3891 12.3848 16.8371 7.83276 11.2219 7.83276C5.60669 7.83276 1.05469 12.3848 1.05469 18C1.05469 23.6151 5.60669 28.1671 11.2219 28.1671Z" stroke="white" stroke-width="1.6" stroke-miterlimit="10" stroke-linecap="round" stroke-linejoin="round"></path><path d="M30.4273 18C30.4273 12.3849 25.8747 7.83276 20.2601 7.83276H11.2227" stroke="white" stroke-width="1.6" stroke-miterlimit="10" stroke-linecap="round" stroke-linejoin="round"></path><path d="M11.2219 22.5187C13.7175 22.5187 15.7407 20.4956 15.7407 18C15.7407 15.5043 13.7175 13.4812 11.2219 13.4812C8.72625 13.4812 6.70312 15.5043 6.70312 18C6.70312 20.4956 8.72625 22.5187 11.2219 22.5187Z" stroke="white" stroke-width="1.6" stroke-miterlimit="10" stroke-linecap="round" stroke-linejoin="round"></path><path d="M25.9086 16.1293C28.3996 18.6236 32.4495 18.6236 34.9461 16.1293V18C34.9461 20.6966 33.8728 23.2824 31.9693 25.1893C30.0601 27.0957 27.4732 28.1672 24.7789 28.1672H11.2227H15.7414C18.4357 28.1672 21.0227 27.0957 22.9319 25.1893C24.8354 23.2824 25.9086 20.6966 25.9086 18V16.1293Z" stroke="white" stroke-width="1.6" stroke-miterlimit="10" stroke-linecap="round" stroke-linejoin="round"></path></svg> 