<?xml version="1.0" encoding="UTF-8"?> <svg xmlns="http://www.w3.org/2000/svg" width="36" height="36" viewBox="0 0 36 36" fill="none"><rect x="1" y="7" width="22" height="19" fill="#003DA5"></rect><path d="M13.785 10.0444L10.51 15.776L8.7852 12.9014L4.5 20.0436H8.0711H13.071H19.4991L13.785 10.0444ZM8.92863 18.544H7.14937L8.78527 15.8167L9.657 17.269L8.92863 18.544ZM10.6556 18.544L13.7851 13.0673L16.9146 18.544H10.6556Z" fill="white"></path><path d="M29.2493 25.3303C28.835 25.3303 28.5 25.6665 28.5 26.0807C28.5 26.4949 28.8351 26.8311 29.2493 26.8311C29.6634 26.8311 29.9996 26.4949 29.9996 26.0807C29.9996 25.6665 29.6634 25.3303 29.2493 25.3303Z" fill="white"></path><path d="M7.49981 25.3303C7.0856 25.3303 6.75 25.6665 6.75 26.0807C6.75 26.4949 7.0856 26.8311 7.49981 26.8311C7.91402 26.8311 8.24963 26.4949 8.24963 26.0807C8.24963 25.6665 7.91402 25.3303 7.49981 25.3303Z" fill="white"></path><path d="M29.9982 11.7945L23.9986 11.8006V7.29455C23.9986 6.4662 23.3273 5.79492 22.4989 5.79492H1.50019C0.671836 5.79492 0 6.4662 0 7.29455V25.2929C0 26.1213 0.671273 26.7937 1.49962 26.7937H3.50845C3.84574 28.6921 5.50357 30.1346 7.49925 30.1346C9.49493 30.1346 11.1528 28.6921 11.49 26.7937H20.9982H25.1851C25.5224 28.7316 27.2132 30.205 29.2478 30.205C31.2825 30.205 32.9733 28.7317 33.3105 26.7937H35.9846L36 19.2944L29.9982 11.7945ZM7.49925 28.635C6.09082 28.635 4.94494 27.4891 4.94494 26.0806C4.94494 24.6711 6.09082 23.5263 7.49925 23.5263C8.90768 23.5263 10.0536 24.6711 10.0536 26.0806C10.0536 27.4891 8.90775 28.635 7.49925 28.635ZM22.4977 25.2929H11.4769C11.1105 23.4308 9.46912 22.0256 7.49932 22.0256C5.52952 22.0256 3.88814 23.4307 3.52174 25.2929H1.49962L1.50019 7.29455H22.4989L22.4977 25.2929ZM29.2478 28.7053C27.7998 28.7053 26.6232 27.5275 26.6232 26.0806C26.6232 24.6338 27.7998 23.456 29.2478 23.456C30.6958 23.456 31.8736 24.6338 31.8736 26.0806C31.8736 27.5275 30.6958 28.7053 29.2478 28.7053ZM34.4872 25.2929H33.2973C32.9304 23.3923 31.2561 21.9553 29.2477 21.9553C27.2394 21.9553 25.5651 23.3923 25.1982 25.2929H23.9985V13.3002L29.2785 13.2953L34.4993 19.8195L34.4872 25.2929Z" fill="white"></path></svg> 