<?xml version="1.0" encoding="UTF-8"?> <svg xmlns="http://www.w3.org/2000/svg" width="37" height="36" viewBox="0 0 37 36" fill="none"><rect x="5.83203" y="5" width="25" height="17" fill="#003DA5"></rect><rect x="2.8" y="2.8" width="30.4" height="30.4" stroke="white" stroke-width="1.6"></rect><path d="M18.6495 10.625L18 9.5L17.3505 10.625L16.701 11.75L17.3505 12.125L16.0514 14.375L15.4019 14L14.1029 16.25L14.7524 16.625L13.4534 18.875L12.8038 18.5L11.5048 20.75L12.1543 21.125L10.8553 23.375L10.2058 23L9.55625 24.125L8.90673 25.25H10.2058H11.5048V24.5H14.1029V25.25H16.701V24.5H19.299V25.25H21.8971V24.5H24.4952V25.25H25.7942H27.0933L26.4437 24.125L25.7942 23L25.1447 23.375L23.8457 21.125L24.4952 20.75L23.1962 18.5L22.5466 18.875L21.2476 16.625L21.8971 16.25L20.5981 14L19.9486 14.375L18.6495 12.125L19.299 11.75L18.6495 10.625Z" stroke="white" stroke-width="1.5" stroke-dasharray="3 3"></path></svg> 