<?xml version="1.0" encoding="UTF-8"?> <svg xmlns="http://www.w3.org/2000/svg" width="37" height="36" viewBox="0 0 37 36" fill="none"><g clip-path="url(#clip0_930_9173)"><path d="M31.4187 27H5.91722C5.50413 27 5.16797 27.3356 5.16797 27.7498C5.16797 28.164 5.50413 28.5002 5.91722 28.5002H31.4187C31.8318 28.5002 32.168 28.164 32.168 27.7498C32.168 27.3356 31.8318 27 31.4187 27Z" fill="white"></path><rect x="6.16797" y="5" width="25" height="17" fill="#003DA5"></rect><path d="M35.9187 18H32.168V4.5H5.16797V18H1.41722C1.00413 18 0.667969 18.3356 0.667969 18.7498V30.7502C0.667969 31.1644 1.00413 31.5 1.41722 31.5H35.9187C36.3318 31.5 36.668 31.1644 36.668 30.7502V18.7498C36.668 18.3356 36.3318 18 35.9187 18ZM6.66872 6.00019H30.6672V20.9998H6.66872V6.00019ZM35.1672 29.9998H2.16872V19.5002H5.16797V22.5H32.168V19.5002H35.1672V29.9998Z" fill="white"></path><path d="M20.4536 8.75L17.1775 14.4816L15.4527 11.607L11.168 18.7498H14.7385H19.7384H26.1665L20.4536 8.75ZM15.5955 17.2501H13.8169L15.4527 14.5228L16.325 15.9752L15.5955 17.2501ZM17.3237 17.2501L20.4537 11.7729L23.5826 17.2501H17.3237Z" fill="white"></path><path d="M5.16797 29.9907H32.168V35.4907H5.16797V29.9907Z" fill="#003DA5"></path><path fill-rule="evenodd" clip-rule="evenodd" d="M31.1124 31.3636H6.22352V33.6364H31.1124V31.3636ZM4.66797 30V35H32.668V30H4.66797Z" fill="white"></path></g><defs><clipPath id="clip0_930_9173"><rect width="36" height="36" fill="white" transform="translate(0.667969)"></rect></clipPath></defs></svg> 