<?xml version="1.0" encoding="UTF-8"?> <svg xmlns="http://www.w3.org/2000/svg" width="36" height="36" viewBox="0 0 36 36" fill="none"><g clip-path="url(#clip0_930_9208)"><path d="M0.703125 14.823L35.2969 14.823L35.2969 22.5889L0.703125 22.5889L0.703125 14.823Z" stroke="white" stroke-width="1.6" stroke-miterlimit="10" stroke-linecap="round"></path><path d="M0.703125 22.5889L35.2969 22.5889L35.2969 26.8248L0.703125 26.8248L0.703125 22.5889Z" stroke="white" stroke-width="1.6" stroke-miterlimit="10" stroke-linecap="square"></path><path d="M3.52709 14.8231L3.52709 19.0591M6.35105 14.8231L6.35105 17.6471M9.17508 14.8231L9.17508 19.0591M11.999 14.8231L11.999 17.6471M14.823 14.8231L14.823 19.0591M17.647 14.8231L17.647 17.6471M20.471 14.8231L20.471 19.0591M23.295 14.8231L23.295 17.6471M26.1189 14.8231L26.1189 19.0591M28.9429 14.8231L28.9429 17.6471M31.7669 14.8231L31.7669 19.0591M0.703125 11.9991L0.703125 9.17518M0.703125 10.5872L35.2969 10.5872M35.2969 9.17518L35.2969 11.9991" stroke="white" stroke-width="1.6" stroke-miterlimit="10" stroke-linecap="square"></path></g><defs><clipPath id="clip0_930_9208"><rect width="36" height="36" fill="white" transform="translate(0 36) rotate(-90)"></rect></clipPath></defs></svg> 