<?xml version="1.0" encoding="UTF-8"?> <svg xmlns="http://www.w3.org/2000/svg" width="36" height="36" viewBox="0 0 36 36" fill="none"><path d="M12.75 22C12.75 23.933 14.317 25.5 16.25 25.5H19.5C21.5711 25.5 23.25 23.8211 23.25 21.75C23.25 19.6789 21.5711 18 19.5 18H16.5C14.4289 18 12.75 16.3211 12.75 14.25C12.75 12.1789 14.4289 10.5 16.5 10.5H19.75C21.683 10.5 23.25 12.067 23.25 14M18 8.25V10.5M18 25.5V27.75M33 18C33 26.2843 26.2843 33 18 33C9.71573 33 3 26.2843 3 18C3 9.71573 9.71573 3 18 3C26.2843 3 33 9.71573 33 18Z" stroke="white" stroke-width="1.7" stroke-linecap="square"></path></svg> 