<?xml version="1.0" encoding="UTF-8"?>
<svg width="63px" height="16px" viewBox="0 0 63 16" version="1.1" xmlns="http://www.w3.org/2000/svg" xmlns:xlink="http://www.w3.org/1999/xlink">
    <title>CFBD4F7B-2C63-44DF-A2BD-A3DCB8BCC745</title>
    <g id="UI-Design" stroke="none" stroke-width="1" fill="none" fill-rule="evenodd">
        <g id="02e---Solutions---Features---Fast-Payments" transform="translate(-569.000000, -562.000000)" fill="#1F72CD">
            <g id="Page-Banner---Centered" transform="translate(-98.000000, -138.000000)">
                <g id="Logo-Grid---Payments" transform="translate(413.000000, 678.000000)">
                    <g id="Logo---AmEx" transform="translate(240.000000, 0.000000)">
                        <g transform="translate(14.000000, 22.000000)" id="Shape">
                            <path d="M6.98597333,0 L0,15.4597333 L8.36318933,15.4597333 L9.39997867,12.9947733 L11.7698133,12.9947733 L12.8066133,15.4597333 L22.01216,15.4597333 L22.01216,13.5784533 L22.8324267,15.4597333 L27.59424,15.4597333 L28.4145067,13.5386667 L28.4145067,15.4597333 L47.5594667,15.4597333 L49.8874667,13.0587733 L52.0672,15.4597333 L61.90048,15.4795733 L54.89248,7.77301333 L61.90048,0 L52.2197333,0 L49.9536,2.356544 L47.8424533,0 L27.0152533,0 L25.2267733,3.99028267 L23.3963733,0 L15.0506667,0 L15.0506667,1.81729067 L14.12224,0 L6.98597333,0 Z M8.60420267,2.19530667 L12.6808533,2.19530667 L17.31456,12.6786133 L17.31456,2.19530667 L21.7803733,2.19530667 L25.3594667,9.71179733 L28.65792,2.19530667 L33.10144,2.19530667 L33.10144,13.28864 L30.3976533,13.28864 L30.3755733,4.59597867 L26.4338133,13.28864 L24.0151467,13.28864 L20.0513067,4.59597867 L20.0513067,13.28864 L14.4891733,13.28864 L13.4346667,10.8017067 L7.73762133,10.8017067 L6.685312,13.2865067 L3.705152,13.2865067 L8.60420267,2.19530667 Z M46.56896,2.19530667 L35.57504,2.19530667 L35.57504,13.2821333 L46.3988267,13.2821333 L49.8874667,9.607776 L53.24992,13.2821333 L56.7650133,13.2821333 L51.656,7.770848 L56.7650133,2.19530667 L53.4024533,2.19530667 L49.93152,5.82746667 L46.56896,2.19530667 Z M10.587328,4.07224533 L8.71038933,8.50260267 L12.46208,8.50260267 L10.587328,4.07224533 Z M38.28992,6.51725867 L38.28992,4.49217067 L38.28992,4.49024 L45.1498667,4.49024 L48.1431467,7.72887467 L45.0171733,10.9851733 L38.28992,10.9851733 L38.28992,8.77438933 L44.28768,8.77438933 L44.28768,6.51725867 L38.28992,6.51725867 Z"></path>
                        </g>
                    </g>
                </g>
            </g>
        </g>
    </g>
</svg>