<?xml version="1.0" encoding="UTF-8"?>
<svg width="51px" height="16px" viewBox="0 0 51 16" version="1.1" xmlns="http://www.w3.org/2000/svg" xmlns:xlink="http://www.w3.org/1999/xlink">
    <title>DBB49070-F137-4228-BB6B-63DB52B7E87B</title>
    <g id="UI-Design" stroke="none" stroke-width="1" fill="none" fill-rule="evenodd">
        <g id="02e---Solutions---Features---Fast-Payments" transform="translate(-335.000000, -562.000000)" fill="#142688">
            <g id="Page-Banner---Centered" transform="translate(-98.000000, -138.000000)">
                <g id="Logo-Grid---Payments" transform="translate(413.000000, 678.000000)">
                    <g id="Shape" transform="translate(20.000000, 22.000000)">
                        <path d="M12.5338301,15.8753663 L8.19512265,15.8753663 L4.94161638,3.46303266 C4.78718544,2.89206582 4.45930359,2.38729536 3.97698057,2.1493874 C2.77331135,1.55153276 1.44694861,1.07572706 9.59232693e-14,0.835752376 L9.59232693e-14,0.35787689 L6.98933555,0.35787689 C7.95397136,0.35787689 8.67744567,1.07572706 8.79802131,1.90942295 L10.4861417,10.8628574 L14.8227722,0.35787689 L19.0408222,0.35787689 L12.5338301,15.8753663 Z M21.4524373,15.8753663 L17.3549118,15.8753663 L20.7289835,0.35787689 L24.826509,0.35787689 L21.4524373,15.8753663 Z M30.1277446,4.65669568 C30.2483714,3.82093308 30.9718253,3.34305043 31.8159059,3.34305043 C33.1422891,3.2230682 34.5870482,3.46304289 35.792907,4.05883081 L36.5163608,0.717846077 C35.3105021,0.239971614 33.9842212,0 32.780511,0 C28.80351,0 25.9095923,2.14939763 25.9095923,5.13250138 C25.9095923,7.40189147 27.9594294,8.59346732 29.4064394,9.31131442 C30.9718253,10.0270948 31.5747546,10.5049672 31.4541278,11.2207476 C31.4541278,12.2944182 30.2483714,12.7723213 29.0446613,12.7723213 C27.5977536,12.7723213 26.1507436,12.4144311 24.826509,11.8165151 L24.1030551,15.159586 C25.5499628,15.7553534 27.1154511,15.9953793 28.5623587,15.9953793 C33.0216623,16.1132436 35.792907,13.9659025 35.792907,10.7428445 C35.792907,6.68404437 30.1277446,6.44613641 30.1277446,4.65669568 Z M50.1332743,15.8753663 L46.8797271,0.35787689 L43.3851309,0.35787689 C42.6615748,0.35787689 41.9381209,0.835752376 41.6969697,1.55153276 L35.6722802,15.8753663 L39.8904325,15.8753663 L40.7323645,13.6080123 L45.915122,13.6080123 L46.3974245,15.8753663 L50.1332743,15.8753663 Z M43.987958,4.53671346 L45.1916681,10.3849543 L41.8175965,10.3849543 L43.987958,4.53671346 Z"></path>
                    </g>
                </g>
            </g>
        </g>
    </g>
</svg>